FlexSansGBVF-Regular.ufo
<glyph name="uni0022" format="2">
  <advance width="439"/>
  <unicode hex="0022"/>
  <outline>
    <contour>
      <point x="163" y="485" type="line"/>
      <point x="163" y="777" type="line"/>
      <point x="91" y="777" type="line"/>
      <point x="91" y="485" type="line"/>
    </contour>
    <contour>
      <point x="348" y="485" type="line"/>
      <point x="348" y="777" type="line"/>
      <point x="276" y="777" type="line"/>
      <point x="276" y="485" type="line"/>
    </contour>
  </outline>
</glyph>
<glyph name="uni0025" format="2">
  <advance width="973"/>
  <unicode hex="0025"/>
  <outline>
    <contour>
      <point x="271" y="0" type="line"/>
      <point x="779" y="733" type="line"/>
      <point x="702" y="733" type="line"/>
      <point x="194" y="0" type="line"/>
    </contour>
    <contour>
      <point x="234" y="331" type="curve" smooth="yes"/>
      <point x="339" y="331"/>
      <point x="399" y="404"/>
      <point x="399" y="538" type="curve" smooth="yes"/>
      <point x="399" y="673"/>
      <point x="339" y="746"/>
      <point x="234" y="746" type="curve" smooth="yes"/>
      <point x="129" y="746"/>
      <point x="69" y="673"/>
      <point x="69" y="538" type="curve" smooth="yes"/>
      <point x="69" y="404"/>
      <point x="129" y="331"/>
    </contour>
    <contour>
      <point x="234" y="383" type="curve" smooth="yes"/>
      <point x="171" y="383"/>
      <point x="141" y="425"/>
      <point x="141" y="507" type="curve" smooth="yes"/>
      <point x="141" y="570" type="line" smooth="yes"/>
      <point x="141" y="652"/>
      <point x="171" y="694"/>
      <point x="234" y="694" type="curve" smooth="yes"/>
      <point x="297" y="694"/>
      <point x="327" y="652"/>
      <point x="327" y="570" type="curve" smooth="yes"/>
      <point x="327" y="507" type="line" smooth="yes"/>
      <point x="327" y="425"/>
      <point x="297" y="383"/>
    </contour>
    <contour>
      <point x="739" y="-13" type="curve" smooth="yes"/>
      <point x="844" y="-13"/>
      <point x="904" y="60"/>
      <point x="904" y="195" type="curve" smooth="yes"/>
      <point x="904" y="329"/>
      <point x="844" y="402"/>
      <point x="739" y="402" type="curve" smooth="yes"/>
      <point x="634" y="402"/>
      <point x="574" y="329"/>
      <point x="574" y="195" type="curve" smooth="yes"/>
      <point x="574" y="60"/>
      <point x="634" y="-13"/>
    </contour>
    <contour>
      <point x="739" y="39" type="curve" smooth="yes"/>
      <point x="676" y="39"/>
      <point x="646" y="81"/>
      <point x="646" y="163" type="curve" smooth="yes"/>
      <point x="646" y="226" type="line" smooth="yes"/>
      <point x="646" y="308"/>
      <point x="676" y="350"/>
      <point x="739" y="350" type="curve" smooth="yes"/>
      <point x="802" y="350"/>
      <point x="832" y="308"/>
      <point x="832" y="226" type="curve" smooth="yes"/>
      <point x="832" y="163" type="line" smooth="yes"/>
      <point x="832" y="81"/>
      <point x="802" y="39"/>
    </contour>
  </outline>
</glyph>
<glyph name="uni002A" format="2">
  <advance width="472"/>
  <unicode hex="002A"/>
  <outline>
    <contour>
      <point x="236" y="540" type="line"/>
      <point x="322" y="410" type="line"/>
      <point x="379" y="451" type="line"/>
      <point x="284" y="574" type="line"/>
      <point x="433" y="615" type="line"/>
      <point x="411" y="683" type="line"/>
      <point x="265" y="629" type="line"/>
      <point x="271" y="784" type="line"/>
      <point x="201" y="784" type="line"/>
      <point x="207" y="629" type="line"/>
      <point x="61" y="683" type="line"/>
      <point x="39" y="615" type="line"/>
      <point x="188" y="574" type="line"/>
      <point x="92" y="451" type="line"/>
      <point x="149" y="410" type="line"/>
    </contour>
  </outline>
</glyph>
<glyph name="uni002B" format="2">
  <advance width="630"/>
  <unicode hex="002B"/>
  <outline>
    <contour>
      <point x="353" y="66" type="line"/>
      <point x="353" y="287" type="line"/>
      <point x="562" y="287" type="line"/>
      <point x="562" y="355" type="line"/>
      <point x="353" y="355" type="line"/>
      <point x="353" y="576" type="line"/>
      <point x="277" y="576" type="line"/>
      <point x="277" y="355" type="line"/>
      <point x="68" y="355" type="line"/>
      <point x="68" y="287" type="line"/>
      <point x="277" y="287" type="line"/>
      <point x="277" y="66" type="line"/>
    </contour>
  </outline>
</glyph>
<glyph name="uni002D" format="2">
  <advance width="419"/>
  <unicode hex="002D"/>
  <unicode hex="2011"/>
  <outline>
    <contour>
      <point x="346" y="276" type="line"/>
      <point x="346" y="362" type="line"/>
      <point x="73" y="362" type="line"/>
      <point x="73" y="276" type="line"/>
    </contour>
  </outline>
</glyph>
<glyph name="uni0030" format="2">
  <advance width="630"/>
  <unicode hex="0030"/>
  <outline>
    <contour>
      <point x="315" y="-13" type="curve" smooth="yes"/>
      <point x="489" y="-13"/>
      <point x="566" y="125"/>
      <point x="566" y="366" type="curve" smooth="yes"/>
      <point x="566" y="608"/>
      <point x="489" y="746"/>
      <point x="315" y="746" type="curve" smooth="yes"/>
      <point x="141" y="746"/>
      <point x="64" y="608"/>
      <point x="64" y="366" type="curve" smooth="yes"/>
      <point x="64" y="125"/>
      <point x="141" y="-13"/>
    </contour>
    <contour>
      <point x="315" y="60" type="curve" smooth="yes"/>
      <point x="200" y="60"/>
      <point x="152" y="161"/>
      <point x="152" y="308" type="curve" smooth="yes"/>
      <point x="152" y="425" type="line" smooth="yes"/>
      <point x="152" y="572"/>
      <point x="200" y="673"/>
      <point x="315" y="673" type="curve" smooth="yes"/>
      <point x="430" y="673"/>
      <point x="478" y="572"/>
      <point x="478" y="425" type="curve" smooth="yes"/>
      <point x="478" y="308" type="line" smooth="yes"/>
      <point x="478" y="161"/>
      <point x="430" y="60"/>
    </contour>
  </outline>
</glyph>
<glyph name="uni0031" format="2">
  <advance width="630"/>
  <unicode hex="0031"/>
  <outline>
    <contour>
      <point x="573" y="74" type="line"/>
      <point x="382" y="74" type="line"/>
      <point x="382" y="733" type="line"/>
      <point x="251" y="733" type="line"/>
      <point x="55" y="551" type="line"/>
      <point x="104" y="498" type="line"/>
      <point x="291" y="671" type="line"/>
      <point x="298" y="671" type="line"/>
      <point x="298" y="74" type="line"/>
      <point x="91" y="74" type="line"/>
      <point x="91" y="0" type="line"/>
      <point x="573" y="0" type="line"/>
    </contour>
  </outline>
</glyph>
<glyph name="uni0034" format="2">
  <advance width="630"/>
  <unicode hex="0034"/>
  <outline>
    <contour>
      <point x="476" y="145" type="line"/>
      <point x="584" y="145" type="line"/>
      <point x="584" y="215" type="line"/>
      <point x="476" y="215" type="line"/>
      <point x="476" y="733" type="line"/>
      <point x="351" y="733" type="line"/>
      <point x="40" y="219" type="line"/>
      <point x="40" y="145" type="line"/>
      <point x="396" y="145" type="line"/>
      <point x="396" y="0" type="line"/>
      <point x="476" y="0" type="line"/>
    </contour>
    <contour>
      <point x="396" y="668" type="line"/>
      <point x="396" y="215" type="line"/>
      <point x="119" y="215" type="line"/>
      <point x="391" y="668" type="line"/>
    </contour>
  </outline>
</glyph>
<glyph name="uni0037" format="2">
  <advance width="630"/>
  <unicode hex="0037"/>
  <outline>
    <contour>
      <point x="552" y="659" type="line"/>
      <point x="552" y="733" type="line"/>
      <point x="72" y="733" type="line"/>
      <point x="72" y="522" type="line"/>
      <point x="147" y="522" type="line"/>
      <point x="147" y="661" type="line"/>
      <point x="467" y="661" type="line"/>
      <point x="185" y="0" type="line"/>
      <point x="275" y="0" type="line"/>
    </contour>
  </outline>
</glyph>
<glyph name="uni003A" format="2">
  <advance width="306"/>
  <unicode hex="003A"/>
  <outline>
    <contour>
      <point x="153" y="-12" type="curve" smooth="yes"/>
      <point x="195" y="-12"/>
      <point x="214" y="12"/>
      <point x="214" y="46" type="curve" smooth="yes"/>
      <point x="214" y="59" type="line" smooth="yes"/>
      <point x="214" y="93"/>
      <point x="195" y="117"/>
      <point x="153" y="117" type="curve" smooth="yes"/>
      <point x="111" y="117"/>
      <point x="92" y="93"/>
      <point x="92" y="59" type="curve" smooth="yes"/>
      <point x="92" y="46" type="line" smooth="yes"/>
      <point x="92" y="12"/>
      <point x="111" y="-12"/>
    </contour>
    <contour>
      <point x="153" y="425" type="curve" smooth="yes"/>
      <point x="195" y="425"/>
      <point x="214" y="449"/>
      <point x="214" y="483" type="curve" smooth="yes"/>
      <point x="214" y="496" type="line" smooth="yes"/>
      <point x="214" y="530"/>
      <point x="195" y="554"/>
      <point x="153" y="554" type="curve" smooth="yes"/>
      <point x="111" y="554"/>
      <point x="92" y="530"/>
      <point x="92" y="496" type="curve" smooth="yes"/>
      <point x="92" y="483" type="line" smooth="yes"/>
      <point x="92" y="449"/>
      <point x="111" y="425"/>
    </contour>
  </outline>
</glyph>
<glyph name="uni003D" format="2">
  <advance width="630"/>
  <unicode hex="003D"/>
  <outline>
    <contour>
      <point x="558" y="393" type="line"/>
      <point x="558" y="461" type="line"/>
      <point x="72" y="461" type="line"/>
      <point x="72" y="393" type="line"/>
    </contour>
    <contour>
      <point x="558" y="183" type="line"/>
      <point x="558" y="251" type="line"/>
      <point x="72" y="251" type="line"/>
      <point x="72" y="183" type="line"/>
    </contour>
  </outline>
</glyph>
<glyph name="uni0046" format="2">
  <advance width="586"/>
  <unicode hex="0046"/>
  <outline>
    <contour>
      <point x="183" y="335" type="line"/>
      <point x="503" y="335" type="line"/>
      <point x="503" y="409" type="line"/>
      <point x="183" y="409" type="line"/>
      <point x="183" y="659" type="line"/>
      <point x="532" y="659" type="line"/>
      <point x="532" y="733" type="line"/>
      <point x="99" y="733" type="line"/>
      <point x="99" y="0" type="line"/>
      <point x="183" y="0" type="line"/>
    </contour>
  </outline>
</glyph>
<glyph name="uni004A" format="2">
  <advance width="533"/>
  <unicode hex="004A"/>
  <outline>
    <contour>
      <point x="231" y="-13" type="curve" smooth="yes"/>
      <point x="355" y="-13"/>
      <point x="440" y="66"/>
      <point x="440" y="190" type="curve" smooth="yes"/>
      <point x="440" y="733" type="line"/>
      <point x="103" y="733" type="line"/>
      <point x="103" y="659" type="line"/>
      <point x="356" y="659" type="line"/>
      <point x="356" y="205" type="line" smooth="yes"/>
      <point x="356" y="109"/>
      <point x="312" y="62"/>
      <point x="233" y="62" type="curve" smooth="yes"/>
      <point x="159" y="62"/>
      <point x="120" y="106"/>
      <point x="105" y="169" type="curve"/>
      <point x="29" y="152" type="line"/>
      <point x="49" y="54"/>
      <point x="120" y="-13"/>
    </contour>
  </outline>
</glyph>
<glyph name="uni004B" format="2">
  <advance width="663"/>
  <unicode hex="004B"/>
  <outline>
    <contour>
      <point x="183" y="0" type="line"/>
      <point x="183" y="245" type="line"/>
      <point x="290" y="363" type="line"/>
      <point x="536" y="0" type="line"/>
      <point x="640" y="0" type="line"/>
      <point x="348" y="419" type="line"/>
      <point x="621" y="733" type="line"/>
      <point x="518" y="733" type="line"/>
      <point x="293" y="468" type="line"/>
      <point x="186" y="340" type="line"/>
      <point x="183" y="340" type="line"/>
      <point x="183" y="733" type="line"/>
      <point x="99" y="733" type="line"/>
      <point x="99" y="0" type="line"/>
    </contour>
  </outline>
</glyph>
<glyph name="uni0055" format="2">
  <advance width="711"/>
  <unicode hex="0055"/>
  <outline>
    <contour>
      <point x="93" y="299" type="line" smooth="yes"/>
      <point x="93" y="86"/>
      <point x="162" y="-13"/>
      <point x="355" y="-13" type="curve" smooth="yes"/>
      <point x="549" y="-13"/>
      <point x="618" y="86"/>
      <point x="618" y="299" type="curve" smooth="yes"/>
      <point x="618" y="733" type="line"/>
      <point x="534" y="733" type="line"/>
      <point x="534" y="279" type="line" smooth="yes"/>
      <point x="534" y="136"/>
      <point x="488" y="62"/>
      <point x="355" y="62" type="curve" smooth="yes"/>
      <point x="223" y="62"/>
      <point x="177" y="136"/>
      <point x="177" y="279" type="curve" smooth="yes"/>
      <point x="177" y="733" type="line"/>
      <point x="93" y="733" type="line"/>
    </contour>
  </outline>
</glyph>
<glyph name="uni0056" format="2">
  <advance width="639"/>
  <unicode hex="0056"/>
  <outline>
    <contour>
      <point x="370" y="0" type="line"/>
      <point x="616" y="733" type="line"/>
      <point x="529" y="733" type="line"/>
      <point x="321" y="85" type="line"/>
      <point x="321" y="85" type="line"/>
      <point x="316" y="85" type="line"/>
      <point x="316" y="85" type="line"/>
      <point x="112" y="733" type="line"/>
      <point x="22" y="733" type="line"/>
      <point x="267" y="0" type="line"/>
    </contour>
  </outline>
</glyph>
<glyph name="uni005B" format="2">
  <advance width="333"/>
  <unicode hex="005B"/>
  <outline>
    <contour>
      <point x="267" y="-145" type="line"/>
      <point x="267" y="-82" type="line"/>
      <point x="168" y="-82" type="line"/>
      <point x="168" y="735" type="line"/>
      <point x="267" y="735" type="line"/>
      <point x="267" y="798" type="line"/>
      <point x="99" y="798" type="line"/>
      <point x="99" y="-145" type="line"/>
    </contour>
  </outline>
</glyph>
<glyph name="uni005E" format="2">
  <advance width="630"/>
  <unicode hex="005E"/>
  <outline>
    <contour>
      <point x="313" y="659" type="line"/>
      <point x="317" y="659" type="line"/>
      <point x="514" y="312" type="line"/>
      <point x="575" y="344" type="line"/>
      <point x="358" y="733" type="line"/>
      <point x="272" y="733" type="line"/>
      <point x="55" y="344" type="line"/>
      <point x="116" y="312" type="line"/>
    </contour>
  </outline>
</glyph>
<glyph name="uni005F" format="2">
  <advance width="593"/>
  <unicode hex="005F"/>
  <unicode hex="0332"/>
  <outline>
    <contour>
      <point x="559" y="-172" type="line"/>
      <point x="559" y="-102" type="line"/>
      <point x="34" y="-102" type="line"/>
      <point x="34" y="-172" type="line"/>
    </contour>
  </outline>
</glyph>
<glyph name="uni0060" format="2">
  <advance width="630"/>
  <unicode hex="0060"/>
  <unicode hex="0300"/>
  <outline>
    <contour>
      <point x="396" y="638" type="line"/>
      <point x="307" y="816" type="line"/>
      <point x="234" y="781" type="line"/>
      <point x="345" y="614" type="line"/>
    </contour>
  </outline>
</glyph>
<glyph name="uni0063" format="2">
  <advance width="527"/>
  <unicode hex="0063"/>
  <outline>
    <contour>
      <point x="291" y="-13" type="curve" smooth="yes"/>
      <point x="393" y="-13"/>
      <point x="462" y="37"/>
      <point x="497" y="115" type="curve"/>
      <point x="439" y="153" type="line"/>
      <point x="408" y="91"/>
      <point x="359" y="58"/>
      <point x="291" y="58" type="curve" smooth="yes"/>
      <point x="188" y="58"/>
      <point x="136" y="127"/>
      <point x="136" y="226" type="curve" smooth="yes"/>
      <point x="136" y="315" type="line" smooth="yes"/>
      <point x="136" y="413"/>
      <point x="188" y="482"/>
      <point x="291" y="482" type="curve" smooth="yes"/>
      <point x="357" y="482"/>
      <point x="404" y="450"/>
      <point x="425" y="394" type="curve"/>
      <point x="492" y="428" type="line"/>
      <point x="460" y="502"/>
      <point x="396" y="553"/>
      <point x="291" y="553" type="curve" smooth="yes"/>
      <point x="139" y="553"/>
      <point x="50" y="444"/>
      <point x="50" y="271" type="curve" smooth="yes"/>
      <point x="50" y="97"/>
      <point x="139" y="-13"/>
    </contour>
  </outline>
</glyph>
<glyph name="uni0064" format="2">
  <advance width="608"/>
  <unicode hex="0064"/>
  <outline>
    <contour>
      <point x="273" y="-13" type="curve" smooth="yes"/>
      <point x="350" y="-13"/>
      <point x="401" y="21"/>
      <point x="433" y="87" type="curve"/>
      <point x="437" y="87" type="line"/>
      <point x="437" y="0" type="line"/>
      <point x="517" y="0" type="line"/>
      <point x="517" y="777" type="line"/>
      <point x="437" y="777" type="line"/>
      <point x="437" y="454" type="line"/>
      <point x="433" y="454" type="line"/>
      <point x="405" y="521"/>
      <point x="350" y="554"/>
      <point x="273" y="554" type="curve" smooth="yes"/>
      <point x="139" y="554"/>
      <point x="54" y="444"/>
      <point x="54" y="271" type="curve" smooth="yes"/>
      <point x="54" y="97"/>
      <point x="139" y="-13"/>
    </contour>
    <contour>
      <point x="295" y="59" type="curve" smooth="yes"/>
      <point x="200" y="59"/>
      <point x="140" y="125"/>
      <point x="140" y="226" type="curve" smooth="yes"/>
      <point x="140" y="316" type="line" smooth="yes"/>
      <point x="140" y="416"/>
      <point x="200" y="482"/>
      <point x="295" y="482" type="curve" smooth="yes"/>
      <point x="373" y="482"/>
      <point x="437" y="438"/>
      <point x="437" y="375" type="curve" smooth="yes"/>
      <point x="437" y="172" type="line" smooth="yes"/>
      <point x="437" y="100"/>
      <point x="373" y="59"/>
    </contour>
  </outline>
</glyph>
<glyph name="uni0067" format="2">
  <advance width="554"/>
  <unicode hex="0067"/>
  <outline>
    <contour>
      <point x="284" y="-223" type="curve" smooth="yes"/>
      <point x="457" y="-223"/>
      <point x="545" y="-171"/>
      <point x="545" y="-60" type="curve" smooth="yes"/>
      <point x="545" y="28"/>
      <point x="487" y="83"/>
      <point x="354" y="83" type="curve" smooth="yes"/>
      <point x="237" y="83" type="line" smooth="yes"/>
      <point x="186" y="83"/>
      <point x="153" y="92"/>
      <point x="153" y="124" type="curve" smooth="yes"/>
      <point x="153" y="159"/>
      <point x="189" y="176"/>
      <point x="226" y="187" type="curve"/>
      <point x="243" y="183"/>
      <point x="261" y="181"/>
      <point x="279" y="181" type="curve" smooth="yes"/>
      <point x="402" y="181"/>
      <point x="483" y="257"/>
      <point x="483" y="368" type="curve" smooth="yes"/>
      <point x="483" y="425"/>
      <point x="460" y="473"/>
      <point x="422" y="506" type="curve"/>
      <point x="422" y="544" type="line"/>
      <point x="525" y="544" type="line"/>
      <point x="525" y="614" type="line"/>
      <point x="443" y="614" type="line" smooth="yes"/>
      <point x="399" y="614"/>
      <point x="382" y="585"/>
      <point x="382" y="544" type="curve" smooth="yes"/>
      <point x="382" y="532" type="line"/>
      <point x="353" y="546"/>
      <point x="317" y="553"/>
      <point x="278" y="553" type="curve" smooth="yes"/>
      <point x="155" y="553"/>
      <point x="76" y="478"/>
      <point x="76" y="368" type="curve" smooth="yes"/>
      <point x="76" y="292"/>
      <point x="113" y="232"/>
      <point x="177" y="202" type="curve"/>
      <point x="177" y="197" type="line"/>
      <point x="123" y="184"/>
      <point x="84" y="158"/>
      <point x="84" y="104" type="curve" smooth="yes"/>
      <point x="84" y="67"/>
      <point x="102" y="43"/>
      <point x="132" y="28" type="curve"/>
      <point x="132" y="17" type="line"/>
      <point x="79" y="2"/>
      <point x="45" y="-30"/>
      <point x="45" y="-89" type="curve" smooth="yes"/>
      <point x="45" y="-174"/>
      <point x="114" y="-223"/>
    </contour>
    <contour>
      <point x="242" y="-158" type="line" smooth="yes"/>
      <point x="154" y="-158"/>
      <point x="120" y="-119"/>
      <point x="120" y="-69" type="curve" smooth="yes"/>
      <point x="120" y="-34"/>
      <point x="138" y="-8"/>
      <point x="175" y="8" type="curve"/>
      <point x="355" y="8" type="line" smooth="yes"/>
      <point x="441" y="8"/>
      <point x="470" y="-21"/>
      <point x="470" y="-66" type="curve" smooth="yes"/>
      <point x="470" y="-128"/>
      <point x="414" y="-158"/>
      <point x="318" y="-158" type="curve" smooth="yes"/>
    </contour>
    <contour>
      <point x="279" y="245" type="curve" smooth="yes"/>
      <point x="205" y="245"/>
      <point x="160" y="279"/>
      <point x="160" y="353" type="curve" smooth="yes"/>
      <point x="160" y="382" type="line" smooth="yes"/>
      <point x="160" y="455"/>
      <point x="205" y="489"/>
      <point x="279" y="489" type="curve" smooth="yes"/>
      <point x="353" y="489"/>
      <point x="399" y="455"/>
      <point x="399" y="382" type="curve" smooth="yes"/>
      <point x="399" y="353" type="line" smooth="yes"/>
      <point x="399" y="279"/>
      <point x="353" y="245"/>
    </contour>
  </outline>
</glyph>
<glyph name="uni0069" format="2">
  <advance width="261"/>
  <unicode hex="0069"/>
  <outline>
    <contour>
      <point x="170" y="0" type="line"/>
      <point x="170" y="541" type="line"/>
      <point x="90" y="541" type="line"/>
      <point x="90" y="0" type="line"/>
    </contour>
    <contour>
      <point x="131" y="672" type="curve" smooth="yes"/>
      <point x="165" y="672"/>
      <point x="180" y="690"/>
      <point x="180" y="717" type="curve" smooth="yes"/>
      <point x="180" y="730" type="line" smooth="yes"/>
      <point x="180" y="757"/>
      <point x="165" y="775"/>
      <point x="131" y="775" type="curve" smooth="yes"/>
      <point x="97" y="775"/>
      <point x="82" y="757"/>
      <point x="82" y="730" type="curve" smooth="yes"/>
      <point x="82" y="717" type="line" smooth="yes"/>
      <point x="82" y="690"/>
      <point x="97" y="672"/>
    </contour>
  </outline>
</glyph>
<glyph name="uni006D" format="2">
  <advance width="916"/>
  <unicode hex="006D"/>
  <outline>
    <contour>
      <point x="171" y="0" type="line"/>
      <point x="171" y="375" type="line" smooth="yes"/>
      <point x="171" y="447"/>
      <point x="235" y="481"/>
      <point x="302" y="481" type="curve" smooth="yes"/>
      <point x="384" y="481"/>
      <point x="422" y="431"/>
      <point x="422" y="332" type="curve" smooth="yes"/>
      <point x="422" y="0" type="line"/>
      <point x="502" y="0" type="line"/>
      <point x="502" y="375" type="line" smooth="yes"/>
      <point x="502" y="447"/>
      <point x="563" y="481"/>
      <point x="630" y="481" type="curve" smooth="yes"/>
      <point x="714" y="481"/>
      <point x="752" y="430"/>
      <point x="752" y="332" type="curve" smooth="yes"/>
      <point x="752" y="0" type="line"/>
      <point x="832" y="0" type="line"/>
      <point x="832" y="348" type="line" smooth="yes"/>
      <point x="832" y="479"/>
      <point x="767" y="553"/>
      <point x="655" y="553" type="curve" smooth="yes"/>
      <point x="563" y="553"/>
      <point x="510" y="503"/>
      <point x="490" y="443" type="curve"/>
      <point x="488" y="443" type="line"/>
      <point x="459" y="521"/>
      <point x="394" y="553"/>
      <point x="322" y="553" type="curve" smooth="yes"/>
      <point x="237" y="553"/>
      <point x="199" y="508"/>
      <point x="175" y="454" type="curve"/>
      <point x="171" y="454" type="line"/>
      <point x="171" y="541" type="line"/>
      <point x="91" y="541" type="line"/>
      <point x="91" y="0" type="line"/>
    </contour>
  </outline>
</glyph>
<glyph name="uni0072" format="2">
  <advance width="384"/>
  <unicode hex="0072"/>
  <outline>
    <contour>
      <point x="171" y="0" type="line"/>
      <point x="171" y="368" type="line" smooth="yes"/>
      <point x="171" y="421"/>
      <point x="227" y="461"/>
      <point x="317" y="461" type="curve" smooth="yes"/>
      <point x="367" y="461" type="line"/>
      <point x="367" y="541" type="line"/>
      <point x="333" y="541" type="line" smooth="yes"/>
      <point x="244" y="541"/>
      <point x="194" y="494"/>
      <point x="176" y="442" type="curve"/>
      <point x="171" y="442" type="line"/>
      <point x="171" y="541" type="line"/>
      <point x="91" y="541" type="line"/>
      <point x="91" y="0" type="line"/>
    </contour>
  </outline>
</glyph>
<glyph name="uni0076" format="2">
  <advance width="514"/>
  <unicode hex="0076"/>
  <outline>
    <contour>
      <point x="303" y="0" type="line"/>
      <point x="494" y="541" type="line"/>
      <point x="417" y="541" type="line"/>
      <point x="260" y="85" type="line"/>
      <point x="260" y="85" type="line"/>
      <point x="255" y="85" type="line"/>
      <point x="255" y="85" type="line"/>
      <point x="100" y="541" type="line"/>
      <point x="20" y="541" type="line"/>
      <point x="211" y="0" type="line"/>
    </contour>
  </outline>
</glyph>
<glyph name="uni0079" format="2">
  <advance width="521"/>
  <unicode hex="0079"/>
  <outline>
    <contour>
      <point x="139" y="-210" type="line" smooth="yes"/>
      <point x="214" y="-210"/>
      <point x="236" y="-192"/>
      <point x="260" y="-129" type="curve"/>
      <point x="502" y="541" type="line"/>
      <point x="423" y="541" type="line"/>
      <point x="262" y="82" type="line"/>
      <point x="262" y="82" type="line"/>
      <point x="256" y="82" type="line"/>
      <point x="256" y="82" type="line"/>
      <point x="99" y="541" type="line"/>
      <point x="19" y="541" type="line"/>
      <point x="221" y="-20" type="line"/>
      <point x="179" y="-140" type="line"/>
      <point x="93" y="-140" type="line"/>
      <point x="93" y="-210" type="line"/>
    </contour>
  </outline>
</glyph>
<glyph name="uni007A" format="2">
  <advance width="484"/>
  <unicode hex="007A"/>
  <outline>
    <contour>
      <point x="451" y="70" type="line"/>
      <point x="126" y="70" type="line"/>
      <point x="442" y="481" type="line"/>
      <point x="442" y="541" type="line"/>
      <point x="44" y="541" type="line"/>
      <point x="44" y="471" type="line"/>
      <point x="345" y="471" type="line"/>
      <point x="35" y="67" type="line"/>
      <point x="35" y="0" type="line"/>
      <point x="451" y="0" type="line"/>
    </contour>
  </outline>
</glyph>
<glyph name="uni007C" format="2">
  <advance width="330"/>
  <unicode hex="007C"/>
  <outline>
    <contour>
      <point x="199" y="-145" type="line"/>
      <point x="199" y="798" type="line"/>
      <point x="131" y="798" type="line"/>
      <point x="131" y="-145" type="line"/>
    </contour>
  </outline>
</glyph>
<glyph name="uni007D" format="2">
  <advance width="360"/>
  <unicode hex="007D"/>
  <outline>
    <contour>
      <point x="114" y="-145" type="line" smooth="yes"/>
      <point x="168" y="-145"/>
      <point x="195" y="-109"/>
      <point x="195" y="-62" type="curve" smooth="yes"/>
      <point x="195" y="194" type="line" smooth="yes"/>
      <point x="195" y="255"/>
      <point x="238" y="288"/>
      <point x="296" y="288" type="curve"/>
      <point x="296" y="364" type="line"/>
      <point x="238" y="364"/>
      <point x="195" y="397"/>
      <point x="195" y="459" type="curve" smooth="yes"/>
      <point x="195" y="715" type="line" smooth="yes"/>
      <point x="195" y="762"/>
      <point x="168" y="798"/>
      <point x="114" y="798" type="curve" smooth="yes"/>
      <point x="26" y="798" type="line"/>
      <point x="26" y="735" type="line"/>
      <point x="126" y="735" type="line"/>
      <point x="126" y="468" type="line" smooth="yes"/>
      <point x="126" y="402"/>
      <point x="167" y="344"/>
      <point x="225" y="334" type="curve"/>
      <point x="225" y="318" type="line"/>
      <point x="167" y="308"/>
      <point x="126" y="251"/>
      <point x="126" y="185" type="curve" smooth="yes"/>
      <point x="126" y="-82" type="line"/>
      <point x="26" y="-82" type="line"/>
      <point x="26" y="-145" type="line"/>
    </contour>
  </outline>
</glyph>
<glyph name="uni00A4" format="2">
  <advance width="642"/>
  <unicode hex="00A4"/>
  <outline>
    <contour>
      <point x="176" y="174" type="line"/>
      <point x="214" y="144"/>
      <point x="263" y="126"/>
      <point x="321" y="126" type="curve" smooth="yes"/>
      <point x="379" y="126"/>
      <point x="428" y="144"/>
      <point x="466" y="174" type="curve"/>
      <point x="574" y="66" type="line"/>
      <point x="621" y="113" type="line"/>
      <point x="510" y="224" type="line"/>
      <point x="532" y="262"/>
      <point x="544" y="311"/>
      <point x="544" y="366" type="curve" smooth="yes"/>
      <point x="544" y="421"/>
      <point x="532" y="470"/>
      <point x="510" y="508" type="curve"/>
      <point x="621" y="619" type="line"/>
      <point x="574" y="666" type="line"/>
      <point x="466" y="558" type="line"/>
      <point x="428" y="588"/>
      <point x="379" y="606"/>
      <point x="321" y="606" type="curve" smooth="yes"/>
      <point x="263" y="606"/>
      <point x="214" y="588"/>
      <point x="176" y="558" type="curve"/>
      <point x="68" y="666" type="line"/>
      <point x="21" y="619" type="line"/>
      <point x="132" y="508" type="line"/>
      <point x="110" y="470"/>
      <point x="98" y="421"/>
      <point x="98" y="366" type="curve" smooth="yes"/>
      <point x="98" y="311"/>
      <point x="110" y="262"/>
      <point x="132" y="224" type="curve"/>
      <point x="21" y="113" type="line"/>
      <point x="68" y="66" type="line"/>
    </contour>
    <contour>
      <point x="321" y="193" type="curve" smooth="yes"/>
      <point x="238" y="193"/>
      <point x="183" y="239"/>
      <point x="183" y="333" type="curve" smooth="yes"/>
      <point x="183" y="399" type="line" smooth="yes"/>
      <point x="183" y="493"/>
      <point x="238" y="539"/>
      <point x="321" y="539" type="curve" smooth="yes"/>
      <point x="404" y="539"/>
      <point x="459" y="493"/>
      <point x="459" y="399" type="curve" smooth="yes"/>
      <point x="459" y="333" type="line" smooth="yes"/>
      <point x="459" y="239"/>
      <point x="404" y="193"/>
    </contour>
  </outline>
</glyph>
<glyph name="uni00A7" format="2">
  <advance width="614"/>
  <unicode hex="00A7"/>
  <outline>
    <contour>
      <point x="292" y="-163" type="curve" smooth="yes"/>
      <point x="415" y="-163"/>
      <point x="498" y="-98"/>
      <point x="498" y="3" type="curve" smooth="yes"/>
      <point x="498" y="65"/>
      <point x="467" y="109"/>
      <point x="419" y="139" type="curve"/>
      <point x="419" y="146" type="line"/>
      <point x="491" y="176"/>
      <point x="533" y="229"/>
      <point x="533" y="297" type="curve" smooth="yes"/>
      <point x="533" y="369"/>
      <point x="484" y="423"/>
      <point x="373" y="457" type="curve" smooth="yes"/>
      <point x="307" y="477" type="line" smooth="yes"/>
      <point x="238" y="498"/>
      <point x="195" y="526"/>
      <point x="195" y="582" type="curve" smooth="yes"/>
      <point x="195" y="640"/>
      <point x="243" y="677"/>
      <point x="321" y="677" type="curve" smooth="yes"/>
      <point x="375" y="677"/>
      <point x="418" y="659"/>
      <point x="451" y="631" type="curve"/>
      <point x="498" y="687" type="line"/>
      <point x="449" y="729"/>
      <point x="386" y="746"/>
      <point x="322" y="746" type="curve" smooth="yes"/>
      <point x="199" y="746"/>
      <point x="117" y="681"/>
      <point x="117" y="581" type="curve" smooth="yes"/>
      <point x="117" y="519"/>
      <point x="147" y="474"/>
      <point x="195" y="444" type="curve"/>
      <point x="195" y="437" type="line"/>
      <point x="123" y="407"/>
      <point x="81" y="354"/>
      <point x="81" y="286" type="curve" smooth="yes"/>
      <point x="81" y="214"/>
      <point x="130" y="160"/>
      <point x="241" y="126" type="curve" smooth="yes"/>
      <point x="307" y="106" type="line" smooth="yes"/>
      <point x="376" y="85"/>
      <point x="419" y="57"/>
      <point x="419" y="2" type="curve" smooth="yes"/>
      <point x="419" y="-57"/>
      <point x="371" y="-94"/>
      <point x="293" y="-94" type="curve" smooth="yes"/>
      <point x="239" y="-94"/>
      <point x="196" y="-76"/>
      <point x="163" y="-48" type="curve"/>
      <point x="116" y="-104" type="line"/>
      <point x="165" y="-146"/>
      <point x="228" y="-163"/>
    </contour>
    <contour>
      <point x="383" y="158" type="curve"/>
      <point x="372" y="162"/>
      <point x="361" y="166"/>
      <point x="349" y="169" type="curve"/>
      <point x="283" y="188" type="line" smooth="yes"/>
      <point x="199" y="211"/>
      <point x="160" y="247"/>
      <point x="160" y="307" type="curve" smooth="yes"/>
      <point x="160" y="358"/>
      <point x="187" y="396"/>
      <point x="231" y="425" type="curve"/>
      <point x="242" y="421"/>
      <point x="253" y="417"/>
      <point x="265" y="414" type="curve"/>
      <point x="331" y="395" type="line" smooth="yes"/>
      <point x="415" y="372"/>
      <point x="454" y="336"/>
      <point x="454" y="276" type="curve" smooth="yes"/>
      <point x="454" y="225"/>
      <point x="427" y="187"/>
    </contour>
  </outline>
</glyph>
<glyph name="uni00A8" format="2">
  <advance width="630"/>
  <unicode hex="00A8"/>
  <outline>
    <contour>
      <point x="218" y="652" type="curve" smooth="yes"/>
      <point x="252" y="652"/>
      <point x="267" y="670"/>
      <point x="267" y="698" type="curve" smooth="yes"/>
      <point x="267" y="709" type="line" smooth="yes"/>
      <point x="267" y="737"/>
      <point x="252" y="755"/>
      <point x="218" y="755" type="curve" smooth="yes"/>
      <point x="184" y="755"/>
      <point x="169" y="737"/>
      <point x="169" y="709" type="curve" smooth="yes"/>
      <point x="169" y="698" type="line" smooth="yes"/>
      <point x="169" y="670"/>
      <point x="184" y="652"/>
    </contour>
    <contour>
      <point x="412" y="652" type="curve" smooth="yes"/>
      <point x="446" y="652"/>
      <point x="461" y="670"/>
      <point x="461" y="698" type="curve" smooth="yes"/>
      <point x="461" y="709" type="line" smooth="yes"/>
      <point x="461" y="737"/>
      <point x="446" y="755"/>
      <point x="412" y="755" type="curve" smooth="yes"/>
      <point x="378" y="755"/>
      <point x="363" y="737"/>
      <point x="363" y="709" type="curve" smooth="yes"/>
      <point x="363" y="698" type="line" smooth="yes"/>
      <point x="363" y="670"/>
      <point x="378" y="652"/>
    </contour>
  </outline>
</glyph>
<glyph name="uni00B0" format="2">
  <advance width="490"/>
  <unicode hex="00B0"/>
  <outline>
    <contour>
      <point x="245" y="385" type="curve" smooth="yes"/>
      <point x="344" y="385"/>
      <point x="421" y="462"/>
      <point x="421" y="565" type="curve" smooth="yes"/>
      <point x="421" y="668"/>
      <point x="344" y="745"/>
      <point x="245" y="745" type="curve" smooth="yes"/>
      <point x="146" y="745"/>
      <point x="69" y="668"/>
      <point x="69" y="565" type="curve" smooth="yes"/>
      <point x="69" y="462"/>
      <point x="146" y="385"/>
    </contour>
    <contour>
      <point x="245" y="449" type="curve" smooth="yes"/>
      <point x="180" y="449"/>
      <point x="139" y="500"/>
      <point x="139" y="565" type="curve" smooth="yes"/>
      <point x="139" y="630"/>
      <point x="180" y="681"/>
      <point x="245" y="681" type="curve" smooth="yes"/>
      <point x="310" y="681"/>
      <point x="351" y="630"/>
      <point x="351" y="565" type="curve" smooth="yes"/>
      <point x="351" y="500"/>
      <point x="310" y="449"/>
    </contour>
  </outline>
</glyph>
<glyph name="uni00EC" format="2">
  <advance width="262"/>
  <unicode hex="00EC"/>
  <outline>
    <contour>
      <point x="171" y="0" type="line"/>
      <point x="171" y="541" type="line"/>
      <point x="90" y="541" type="line"/>
      <point x="90" y="0" type="line"/>
    </contour>
    <contour>
      <point x="177" y="638" type="line"/>
      <point x="88" y="816" type="line"/>
      <point x="15" y="781" type="line"/>
      <point x="126" y="614" type="line"/>
    </contour>
  </outline>
</glyph>
<glyph name="uni00F7" format="2">
  <advance width="630"/>
  <unicode hex="00F7"/>
  <outline>
    <contour>
      <point x="560" y="287" type="line"/>
      <point x="560" y="355" type="line"/>
      <point x="70" y="355" type="line"/>
      <point x="70" y="287" type="line"/>
    </contour>
    <contour>
      <point x="315" y="55" type="curve" smooth="yes"/>
      <point x="361" y="55"/>
      <point x="377" y="76"/>
      <point x="377" y="103" type="curve" smooth="yes"/>
      <point x="377" y="125" type="line" smooth="yes"/>
      <point x="377" y="152"/>
      <point x="361" y="173"/>
      <point x="315" y="173" type="curve" smooth="yes"/>
      <point x="269" y="173"/>
      <point x="253" y="152"/>
      <point x="253" y="125" type="curve" smooth="yes"/>
      <point x="253" y="103" type="line" smooth="yes"/>
      <point x="253" y="76"/>
      <point x="269" y="55"/>
    </contour>
    <contour>
      <point x="315" y="469" type="curve" smooth="yes"/>
      <point x="361" y="469"/>
      <point x="377" y="490"/>
      <point x="377" y="517" type="curve" smooth="yes"/>
      <point x="377" y="539" type="line" smooth="yes"/>
      <point x="377" y="566"/>
      <point x="361" y="587"/>
      <point x="315" y="587" type="curve" smooth="yes"/>
      <point x="269" y="587"/>
      <point x="253" y="566"/>
      <point x="253" y="539" type="curve" smooth="yes"/>
      <point x="253" y="517" type="line" smooth="yes"/>
      <point x="253" y="490"/>
      <point x="269" y="469"/>
    </contour>
  </outline>
</glyph>
<glyph name="uni00FA" format="2">
  <advance width="595"/>
  <unicode hex="00FA"/>
  <outline>
    <contour>
      <point x="266" y="-12" type="curve" smooth="yes"/>
      <point x="347" y="-12"/>
      <point x="394" y="27"/>
      <point x="420" y="87" type="curve"/>
      <point x="424" y="87" type="line"/>
      <point x="424" y="0" type="line"/>
      <point x="504" y="0" type="line"/>
      <point x="504" y="541" type="line"/>
      <point x="424" y="541" type="line"/>
      <point x="424" y="166" type="line" smooth="yes"/>
      <point x="424" y="94"/>
      <point x="358" y="60"/>
      <point x="289" y="60" type="curve" smooth="yes"/>
      <point x="208" y="60"/>
      <point x="165" y="110"/>
      <point x="165" y="209" type="curve" smooth="yes"/>
      <point x="165" y="541" type="line"/>
      <point x="85" y="541" type="line"/>
      <point x="85" y="193" type="line" smooth="yes"/>
      <point x="85" y="62"/>
      <point x="155" y="-12"/>
    </contour>
    <contour>
      <point x="412" y="783" type="line"/>
      <point x="339" y="818" type="line"/>
      <point x="250" y="639" type="line"/>
      <point x="300" y="615" type="line"/>
    </contour>
  </outline>
</glyph>
<glyph name="uni00FC" format="2">
  <advance width="595"/>
  <unicode hex="00FC"/>
  <outline>
    <contour>
      <point x="266" y="-12" type="curve" smooth="yes"/>
      <point x="347" y="-12"/>
      <point x="394" y="27"/>
      <point x="420" y="87" type="curve"/>
      <point x="424" y="87" type="line"/>
      <point x="424" y="0" type="line"/>
      <point x="504" y="0" type="line"/>
      <point x="504" y="541" type="line"/>
      <point x="424" y="541" type="line"/>
      <point x="424" y="166" type="line" smooth="yes"/>
      <point x="424" y="94"/>
      <point x="358" y="60"/>
      <point x="289" y="60" type="curve" smooth="yes"/>
      <point x="208" y="60"/>
      <point x="165" y="110"/>
      <point x="165" y="209" type="curve" smooth="yes"/>
      <point x="165" y="541" type="line"/>
      <point x="85" y="541" type="line"/>
      <point x="85" y="193" type="line" smooth="yes"/>
      <point x="85" y="62"/>
      <point x="155" y="-12"/>
    </contour>
    <contour>
      <point x="198" y="652" type="curve" smooth="yes"/>
      <point x="232" y="652"/>
      <point x="247" y="670"/>
      <point x="247" y="698" type="curve" smooth="yes"/>
      <point x="247" y="709" type="line" smooth="yes"/>
      <point x="247" y="737"/>
      <point x="232" y="755"/>
      <point x="198" y="755" type="curve" smooth="yes"/>
      <point x="164" y="755"/>
      <point x="149" y="737"/>
      <point x="149" y="709" type="curve" smooth="yes"/>
      <point x="149" y="698" type="line" smooth="yes"/>
      <point x="149" y="670"/>
      <point x="164" y="652"/>
    </contour>
    <contour>
      <point x="392" y="652" type="curve" smooth="yes"/>
      <point x="426" y="652"/>
      <point x="441" y="670"/>
      <point x="441" y="698" type="curve" smooth="yes"/>
      <point x="441" y="709" type="line" smooth="yes"/>
      <point x="441" y="737"/>
      <point x="426" y="755"/>
      <point x="392" y="755" type="curve" smooth="yes"/>
      <point x="358" y="755"/>
      <point x="343" y="737"/>
      <point x="343" y="709" type="curve" smooth="yes"/>
      <point x="343" y="698" type="line" smooth="yes"/>
      <point x="343" y="670"/>
      <point x="358" y="652"/>
    </contour>
  </outline>
</glyph>
<glyph name="uni012B" format="2">
  <advance width="262"/>
  <unicode hex="012B"/>
  <outline>
    <contour>
      <point x="171" y="0" type="line"/>
      <point x="171" y="541" type="line"/>
      <point x="91" y="541" type="line"/>
      <point x="91" y="0" type="line"/>
    </contour>
    <contour>
      <point x="276" y="671" type="line"/>
      <point x="276" y="739" type="line"/>
      <point x="-14" y="739" type="line"/>
      <point x="-14" y="671" type="line"/>
    </contour>
  </outline>
</glyph>
<glyph name="uni0144" format="2">
  <advance width="601"/>
  <unicode hex="0144"/>
  <outline>
    <contour>
      <point x="170" y="0" type="line"/>
      <point x="170" y="371" type="line" smooth="yes"/>
      <point x="170" y="451"/>
      <point x="237" y="489"/>
      <point x="310" y="489" type="curve" smooth="yes"/>
      <point x="395" y="489"/>
      <point x="438" y="441"/>
      <point x="438" y="335" type="curve" smooth="yes"/>
      <point x="438" y="0" type="line"/>
      <point x="514" y="0" type="line"/>
      <point x="514" y="343" type="line" smooth="yes"/>
      <point x="514" y="478"/>
      <point x="452" y="552"/>
      <point x="335" y="552" type="curve" smooth="yes"/>
      <point x="244" y="552"/>
      <point x="194" y="506"/>
      <point x="174" y="455" type="curve"/>
      <point x="170" y="455" type="line"/>
      <point x="170" y="539" type="line"/>
      <point x="94" y="539" type="line"/>
      <point x="94" y="0" type="line"/>
    </contour>
    <contour>
      <point x="416" y="784" type="line"/>
      <point x="352" y="817" type="line"/>
      <point x="241" y="638" type="line"/>
      <point x="288" y="614" type="line"/>
    </contour>
  </outline>
</glyph>
<glyph name="uni016B" format="2">
  <advance width="596"/>
  <unicode hex="016B"/>
  <outline>
    <contour>
      <point x="440" y="671" type="line"/>
      <point x="440" y="739" type="line"/>
      <point x="150" y="739" type="line"/>
      <point x="150" y="671" type="line"/>
    </contour>
    <contour>
      <point x="267" y="-12" type="curve" smooth="yes"/>
      <point x="348" y="-12"/>
      <point x="395" y="27"/>
      <point x="421" y="87" type="curve"/>
      <point x="425" y="87" type="line"/>
      <point x="425" y="0" type="line"/>
      <point x="505" y="0" type="line"/>
      <point x="505" y="541" type="line"/>
      <point x="425" y="541" type="line"/>
      <point x="425" y="166" type="line" smooth="yes"/>
      <point x="425" y="94"/>
      <point x="359" y="60"/>
      <point x="290" y="60" type="curve" smooth="yes"/>
      <point x="209" y="60"/>
      <point x="166" y="110"/>
      <point x="166" y="209" type="curve" smooth="yes"/>
      <point x="166" y="541" type="line"/>
      <point x="86" y="541" type="line"/>
      <point x="86" y="193" type="line" smooth="yes"/>
      <point x="86" y="62"/>
      <point x="156" y="-12"/>
    </contour>
  </outline>
</glyph>
<glyph name="uni01D4" format="2">
  <advance width="596"/>
  <unicode hex="01D4"/>
  <outline>
    <contour>
      <point x="345" y="632" type="line"/>
      <point x="461" y="780" type="line"/>
      <point x="416" y="810" type="line"/>
      <point x="294" y="687" type="line"/>
      <point x="171" y="810" type="line"/>
      <point x="127" y="780" type="line"/>
      <point x="241" y="632" type="line"/>
    </contour>
    <contour>
      <point x="267" y="-12" type="curve" smooth="yes"/>
      <point x="348" y="-12"/>
      <point x="395" y="27"/>
      <point x="421" y="87" type="curve"/>
      <point x="425" y="87" type="line"/>
      <point x="425" y="0" type="line"/>
      <point x="505" y="0" type="line"/>
      <point x="505" y="541" type="line"/>
      <point x="425" y="541" type="line"/>
      <point x="425" y="166" type="line" smooth="yes"/>
      <point x="425" y="94"/>
      <point x="359" y="60"/>
      <point x="290" y="60" type="curve" smooth="yes"/>
      <point x="209" y="60"/>
      <point x="166" y="110"/>
      <point x="166" y="209" type="curve" smooth="yes"/>
      <point x="166" y="541" type="line"/>
      <point x="86" y="541" type="line"/>
      <point x="86" y="193" type="line" smooth="yes"/>
      <point x="86" y="62"/>
      <point x="156" y="-12"/>
    </contour>
  </outline>
</glyph>
<glyph name="uni01DA" format="2">
  <advance width="596"/>
  <unicode hex="01DA"/>
  <outline>
    <contour>
      <point x="199" y="632" type="curve" smooth="yes"/>
      <point x="233" y="632"/>
      <point x="248" y="650"/>
      <point x="248" y="678" type="curve" smooth="yes"/>
      <point x="248" y="689" type="line" smooth="yes"/>
      <point x="248" y="717"/>
      <point x="233" y="735"/>
      <point x="199" y="735" type="curve" smooth="yes"/>
      <point x="165" y="735"/>
      <point x="150" y="717"/>
      <point x="150" y="689" type="curve" smooth="yes"/>
      <point x="150" y="678" type="line" smooth="yes"/>
      <point x="150" y="650"/>
      <point x="165" y="632"/>
    </contour>
    <contour>
      <point x="393" y="632" type="curve" smooth="yes"/>
      <point x="427" y="632"/>
      <point x="442" y="650"/>
      <point x="442" y="678" type="curve" smooth="yes"/>
      <point x="442" y="689" type="line" smooth="yes"/>
      <point x="442" y="717"/>
      <point x="427" y="735"/>
      <point x="393" y="735" type="curve" smooth="yes"/>
      <point x="359" y="735"/>
      <point x="344" y="717"/>
      <point x="344" y="689" type="curve" smooth="yes"/>
      <point x="344" y="678" type="line" smooth="yes"/>
      <point x="344" y="650"/>
      <point x="359" y="632"/>
    </contour>
    <contour>
      <point x="354" y="776" type="line"/>
      <point x="470" y="924" type="line"/>
      <point x="425" y="954" type="line"/>
      <point x="303" y="831" type="line"/>
      <point x="180" y="954" type="line"/>
      <point x="136" y="924" type="line"/>
      <point x="250" y="776" type="line"/>
    </contour>
    <contour>
      <point x="267" y="-12" type="curve" smooth="yes"/>
      <point x="348" y="-12"/>
      <point x="395" y="27"/>
      <point x="421" y="87" type="curve"/>
      <point x="425" y="87" type="line"/>
      <point x="425" y="0" type="line"/>
      <point x="505" y="0" type="line"/>
      <point x="505" y="541" type="line"/>
      <point x="425" y="541" type="line"/>
      <point x="425" y="166" type="line" smooth="yes"/>
      <point x="425" y="94"/>
      <point x="359" y="60"/>
      <point x="290" y="60" type="curve" smooth="yes"/>
      <point x="209" y="60"/>
      <point x="166" y="110"/>
      <point x="166" y="209" type="curve" smooth="yes"/>
      <point x="166" y="541" type="line"/>
      <point x="86" y="541" type="line"/>
      <point x="86" y="193" type="line" smooth="yes"/>
      <point x="86" y="62"/>
      <point x="156" y="-12"/>
    </contour>
  </outline>
</glyph>
<glyph name="uni01F9" format="2">
  <advance width="595"/>
  <unicode hex="01F9"/>
  <outline>
    <contour>
      <point x="171" y="0" type="line"/>
      <point x="171" y="375" type="line" smooth="yes"/>
      <point x="171" y="447"/>
      <point x="237" y="481"/>
      <point x="306" y="481" type="curve" smooth="yes"/>
      <point x="387" y="481"/>
      <point x="430" y="431"/>
      <point x="430" y="332" type="curve" smooth="yes"/>
      <point x="430" y="0" type="line"/>
      <point x="510" y="0" type="line"/>
      <point x="510" y="348" type="line" smooth="yes"/>
      <point x="510" y="479"/>
      <point x="440" y="553"/>
      <point x="329" y="553" type="curve" smooth="yes"/>
      <point x="248" y="553"/>
      <point x="201" y="514"/>
      <point x="175" y="454" type="curve"/>
      <point x="171" y="454" type="line"/>
      <point x="171" y="541" type="line"/>
      <point x="91" y="541" type="line"/>
      <point x="91" y="0" type="line"/>
    </contour>
    <contour>
      <point x="366" y="641" type="line"/>
      <point x="277" y="817" type="line"/>
      <point x="204" y="782" type="line"/>
      <point x="315" y="615" type="line"/>
    </contour>
  </outline>
</glyph>
<glyph name="uni0261" format="2">
  <advance width="608"/>
  <unicode hex="0261"/>
  <outline>
    <contour>
      <point x="517" y="541" type="line"/>
      <point x="437" y="541" type="line"/>
      <point x="437" y="454" type="line"/>
      <point x="433" y="454" type="line"/>
      <point x="405" y="521"/>
      <point x="350" y="554"/>
      <point x="274" y="554" type="curve" smooth="yes"/>
      <point x="139" y="554"/>
      <point x="54" y="444"/>
      <point x="54" y="271" type="curve" smooth="yes"/>
      <point x="54" y="97"/>
      <point x="139" y="-13"/>
      <point x="274" y="-13" type="curve" smooth="yes"/>
      <point x="351" y="-13"/>
      <point x="401" y="21"/>
      <point x="433" y="88" type="curve"/>
      <point x="437" y="88" type="line"/>
      <point x="437" y="12" type="line" smooth="yes"/>
      <point x="437" y="-96"/>
      <point x="380" y="-152"/>
      <point x="281" y="-152" type="curve" smooth="yes"/>
      <point x="217" y="-152"/>
      <point x="170" y="-131"/>
      <point x="134" y="-93" type="curve"/>
      <point x="86" y="-148" type="line"/>
      <point x="128" y="-192"/>
      <point x="191" y="-223"/>
      <point x="279" y="-223" type="curve" smooth="yes"/>
      <point x="431" y="-223"/>
      <point x="517" y="-132"/>
      <point x="517" y="16" type="curve" smooth="yes"/>
    </contour>
    <contour>
      <point x="295" y="59" type="curve" smooth="yes"/>
      <point x="200" y="59"/>
      <point x="140" y="126"/>
      <point x="140" y="226" type="curve" smooth="yes"/>
      <point x="140" y="316" type="line" smooth="yes"/>
      <point x="140" y="415"/>
      <point x="200" y="482"/>
      <point x="295" y="482" type="curve" smooth="yes"/>
      <point x="373" y="482"/>
      <point x="437" y="437"/>
      <point x="437" y="375" type="curve" smooth="yes"/>
      <point x="437" y="173" type="line" smooth="yes"/>
      <point x="437" y="101"/>
      <point x="373" y="59"/>
    </contour>
  </outline>
</glyph>
<glyph name="uni02CA" format="2">
  <advance width="630"/>
  <unicode hex="02CA"/>
  <outline>
    <contour>
      <point x="414" y="776" type="line"/>
      <point x="363" y="825" type="line"/>
      <point x="193" y="623" type="line"/>
      <point x="231" y="588" type="line"/>
    </contour>
  </outline>
</glyph>
<glyph name="uni02CB" format="2">
  <advance width="630"/>
  <unicode hex="02CB"/>
  <outline>
    <contour>
      <point x="406" y="623" type="line"/>
      <point x="255" y="814" type="line"/>
      <point x="202" y="765" type="line"/>
      <point x="369" y="588" type="line"/>
    </contour>
  </outline>
</glyph>
<glyph name="uni02D9" format="2">
  <advance width="630"/>
  <unicode hex="02D9"/>
  <outline>
    <contour>
      <point x="315" y="649" type="curve" smooth="yes"/>
      <point x="349" y="649"/>
      <point x="366" y="667"/>
      <point x="366" y="695" type="curve" smooth="yes"/>
      <point x="366" y="706" type="line" smooth="yes"/>
      <point x="366" y="734"/>
      <point x="349" y="752"/>
      <point x="315" y="752" type="curve" smooth="yes"/>
      <point x="281" y="752"/>
      <point x="264" y="734"/>
      <point x="264" y="706" type="curve" smooth="yes"/>
      <point x="264" y="695" type="line" smooth="yes"/>
      <point x="264" y="667"/>
      <point x="281" y="649"/>
    </contour>
  </outline>
</glyph>
<glyph name="uni0301" format="2">
  <advance width="630"/>
  <unicode hex="0301"/>
  <outline>
    <contour>
      <point x="396" y="783" type="line"/>
      <point x="323" y="818" type="line"/>
      <point x="234" y="639" type="line"/>
      <point x="284" y="615" type="line"/>
    </contour>
  </outline>
</glyph>
<glyph name="uni0394" format="2">
  <advance width="675"/>
  <unicode hex="0394"/>
  <outline>
    <contour>
      <point x="48" y="0" type="line"/>
      <point x="627" y="0" type="line"/>
      <point x="627" y="75" type="line"/>
      <point x="392" y="733" type="line"/>
      <point x="283" y="733" type="line"/>
      <point x="48" y="75" type="line"/>
    </contour>
    <contour>
      <point x="537" y="74" type="line"/>
      <point x="133" y="74" type="line"/>
      <point x="333" y="659" type="line"/>
      <point x="338" y="659" type="line"/>
    </contour>
  </outline>
</glyph>
<glyph name="uni039B" format="2">
  <advance width="660"/>
  <unicode hex="039B"/>
  <outline>
    <contour>
      <point x="276" y="733" type="line"/>
      <point x="26" y="0" type="line"/>
      <point x="111" y="0" type="line"/>
      <point x="232" y="370" type="line"/>
      <point x="325" y="658" type="line"/>
      <point x="331" y="658" type="line"/>
      <point x="425" y="370" type="line"/>
      <point x="546" y="0" type="line"/>
      <point x="634" y="0" type="line"/>
      <point x="384" y="733" type="line"/>
    </contour>
  </outline>
</glyph>
<glyph name="uni03A0" format="2">
  <advance width="728"/>
  <unicode hex="03A0"/>
  <outline>
    <contour>
      <point x="100" y="0" type="line"/>
      <point x="184" y="0" type="line"/>
      <point x="184" y="659" type="line"/>
      <point x="544" y="659" type="line"/>
      <point x="544" y="0" type="line"/>
      <point x="628" y="0" type="line"/>
      <point x="628" y="733" type="line"/>
      <point x="100" y="733" type="line"/>
    </contour>
  </outline>
</glyph>
<glyph name="uni03A6" format="2">
  <advance width="895"/>
  <unicode hex="03A6"/>
  <outline>
    <contour>
      <point x="405" y="-34" type="line"/>
      <point x="489" y="-34" type="line"/>
      <point x="489" y="29" type="line"/>
      <point x="510" y="29" type="line" smooth="yes"/>
      <point x="720" y="29"/>
      <point x="836" y="175"/>
      <point x="836" y="368" type="curve" smooth="yes"/>
      <point x="836" y="561"/>
      <point x="720" y="707"/>
      <point x="510" y="707" type="curve" smooth="yes"/>
      <point x="489" y="707" type="line"/>
      <point x="489" y="758" type="line"/>
      <point x="405" y="758" type="line"/>
      <point x="405" y="707" type="line"/>
      <point x="384" y="707" type="line" smooth="yes"/>
      <point x="174" y="707"/>
      <point x="58" y="561"/>
      <point x="58" y="368" type="curve" smooth="yes"/>
      <point x="58" y="175"/>
      <point x="174" y="29"/>
      <point x="384" y="29" type="curve" smooth="yes"/>
      <point x="405" y="29" type="line"/>
    </contour>
    <contour>
      <point x="407" y="103" type="line"/>
      <point x="384" y="103" type="line" smooth="yes"/>
      <point x="238" y="103"/>
      <point x="148" y="203"/>
      <point x="148" y="336" type="curve" smooth="yes"/>
      <point x="148" y="401" type="line" smooth="yes"/>
      <point x="148" y="533"/>
      <point x="238" y="634"/>
      <point x="384" y="634" type="curve" smooth="yes"/>
      <point x="407" y="634" type="line"/>
    </contour>
    <contour>
      <point x="487" y="103" type="line"/>
      <point x="487" y="634" type="line"/>
      <point x="510" y="634" type="line" smooth="yes"/>
      <point x="656" y="634"/>
      <point x="746" y="533"/>
      <point x="746" y="401" type="curve" smooth="yes"/>
      <point x="746" y="336" type="line" smooth="yes"/>
      <point x="746" y="203"/>
      <point x="656" y="103"/>
      <point x="510" y="103" type="curve" smooth="yes"/>
    </contour>
  </outline>
</glyph>
<glyph name="uni03A8" format="2">
  <advance width="830"/>
  <unicode hex="03A8"/>
  <outline>
    <contour>
      <point x="373" y="0" type="line"/>
      <point x="457" y="0" type="line"/>
      <point x="457" y="213" type="line"/>
      <point x="633" y="213"/>
      <point x="756" y="300"/>
      <point x="756" y="491" type="curve" smooth="yes"/>
      <point x="756" y="733" type="line"/>
      <point x="672" y="733" type="line"/>
      <point x="672" y="491" type="line" smooth="yes"/>
      <point x="672" y="338"/>
      <point x="579" y="287"/>
      <point x="457" y="287" type="curve"/>
      <point x="457" y="733" type="line"/>
      <point x="373" y="733" type="line"/>
      <point x="373" y="287" type="line"/>
      <point x="252" y="287"/>
      <point x="158" y="338"/>
      <point x="158" y="491" type="curve" smooth="yes"/>
      <point x="158" y="733" type="line"/>
      <point x="74" y="733" type="line"/>
      <point x="74" y="491" type="line" smooth="yes"/>
      <point x="74" y="300"/>
      <point x="197" y="213"/>
      <point x="373" y="213" type="curve"/>
    </contour>
  </outline>
</glyph>
<glyph name="uni03B1" format="2">
  <advance width="676"/>
  <unicode hex="03B1"/>
  <outline>
    <contour>
      <point x="637" y="70" type="line"/>
      <point x="580" y="70" type="line"/>
      <point x="512" y="273" type="line"/>
      <point x="628" y="541" type="line"/>
      <point x="540" y="541" type="line"/>
      <point x="512" y="465" type="line"/>
      <point x="477" y="349" type="line"/>
      <point x="473" y="349" type="line"/>
      <point x="444" y="487"/>
      <point x="380" y="554"/>
      <point x="268" y="554" type="curve" smooth="yes"/>
      <point x="140" y="554"/>
      <point x="53" y="442"/>
      <point x="53" y="270" type="curve" smooth="yes"/>
      <point x="53" y="99"/>
      <point x="140" y="-13"/>
      <point x="268" y="-13" type="curve" smooth="yes"/>
      <point x="382" y="-13"/>
      <point x="443" y="57"/>
      <point x="471" y="197" type="curve"/>
      <point x="475" y="197" type="line"/>
      <point x="497" y="84" type="line" smooth="yes"/>
      <point x="509" y="21"/>
      <point x="533" y="0"/>
      <point x="590" y="0" type="curve" smooth="yes"/>
      <point x="637" y="0" type="line"/>
    </contour>
    <contour>
      <point x="268" y="58" type="curve" smooth="yes"/>
      <point x="200" y="58"/>
      <point x="139" y="115"/>
      <point x="139" y="233" type="curve" smooth="yes"/>
      <point x="139" y="308" type="line" smooth="yes"/>
      <point x="139" y="426"/>
      <point x="200" y="483"/>
      <point x="268" y="483" type="curve" smooth="yes"/>
      <point x="331" y="483"/>
      <point x="365" y="459"/>
      <point x="402" y="360" type="curve" smooth="yes"/>
      <point x="436" y="270" type="line"/>
      <point x="402" y="181" type="line" smooth="yes"/>
      <point x="365" y="83"/>
      <point x="331" y="58"/>
    </contour>
  </outline>
</glyph>
<glyph name="uni03B2" format="2">
  <advance width="613"/>
  <unicode hex="03B2"/>
  <outline>
    <contour>
      <point x="93" y="-210" type="line"/>
      <point x="173" y="-210" type="line"/>
      <point x="173" y="63" type="line"/>
      <point x="177" y="63" type="line"/>
      <point x="208" y="13"/>
      <point x="264" y="-13"/>
      <point x="334" y="-13" type="curve" smooth="yes"/>
      <point x="469" y="-13"/>
      <point x="554" y="89"/>
      <point x="554" y="222" type="curve" smooth="yes"/>
      <point x="554" y="361"/>
      <point x="465" y="413"/>
      <point x="380" y="423" type="curve"/>
      <point x="380" y="427" type="line"/>
      <point x="448" y="439"/>
      <point x="516" y="496"/>
      <point x="516" y="603" type="curve" smooth="yes"/>
      <point x="516" y="718"/>
      <point x="433" y="790"/>
      <point x="313" y="790" type="curve" smooth="yes"/>
      <point x="170" y="790"/>
      <point x="93" y="694"/>
      <point x="93" y="547" type="curve" smooth="yes"/>
    </contour>
    <contour>
      <point x="260" y="388" type="line"/>
      <point x="315" y="388" type="line" smooth="yes"/>
      <point x="409" y="388"/>
      <point x="468" y="335"/>
      <point x="468" y="237" type="curve" smooth="yes"/>
      <point x="468" y="212" type="line" smooth="yes"/>
      <point x="468" y="113"/>
      <point x="410" y="59"/>
      <point x="313" y="59" type="curve" smooth="yes"/>
      <point x="239" y="59"/>
      <point x="173" y="88"/>
      <point x="173" y="144" type="curve" smooth="yes"/>
      <point x="173" y="553" type="line" smooth="yes"/>
      <point x="173" y="670"/>
      <point x="216" y="718"/>
      <point x="307" y="718" type="curve" smooth="yes"/>
      <point x="391" y="718"/>
      <point x="430" y="675"/>
      <point x="430" y="604" type="curve" smooth="yes"/>
      <point x="430" y="579" type="line" smooth="yes"/>
      <point x="430" y="505"/>
      <point x="393" y="458"/>
      <point x="309" y="458" type="curve" smooth="yes"/>
      <point x="260" y="458" type="line"/>
    </contour>
  </outline>
</glyph>
<glyph name="uni03B3" format="2">
  <advance width="527"/>
  <unicode hex="03B3"/>
  <outline>
    <contour>
      <point x="229" y="-210" type="line"/>
      <point x="309" y="-210" type="line"/>
      <point x="309" y="0" type="line"/>
      <point x="507" y="541" type="line"/>
      <point x="430" y="541" type="line"/>
      <point x="330" y="272" type="line"/>
      <point x="272" y="99" type="line"/>
      <point x="267" y="99" type="line"/>
      <point x="215" y="272" type="line"/>
      <point x="146" y="479" type="line" smooth="yes"/>
      <point x="130" y="526"/>
      <point x="104" y="541"/>
      <point x="58" y="541" type="curve" smooth="yes"/>
      <point x="11" y="541" type="line"/>
      <point x="11" y="471" type="line"/>
      <point x="68" y="471" type="line"/>
      <point x="229" y="0" type="line"/>
    </contour>
  </outline>
</glyph>
<glyph name="uni03B6" format="2">
  <advance width="449"/>
  <unicode hex="03B6"/>
  <outline>
    <contour>
      <point x="67" y="709" type="line"/>
      <point x="271" y="709" type="line"/>
      <point x="337" y="715" type="line"/>
      <point x="337" y="709" type="line"/>
      <point x="180" y="509" type="line" smooth="yes"/>
      <point x="75" y="375"/>
      <point x="51" y="307"/>
      <point x="51" y="235" type="curve" smooth="yes"/>
      <point x="51" y="105"/>
      <point x="106" y="45"/>
      <point x="263" y="7" type="curve" smooth="yes"/>
      <point x="341" y="-12" type="line"/>
      <point x="305" y="-145" type="line"/>
      <point x="381" y="-165" type="line"/>
      <point x="412" y="-47" type="line" smooth="yes"/>
      <point x="415" y="-35"/>
      <point x="418" y="-23"/>
      <point x="418" y="-13" type="curve" smooth="yes"/>
      <point x="418" y="24"/>
      <point x="400" y="48"/>
      <point x="350" y="61" type="curve" smooth="yes"/>
      <point x="272" y="81" type="line" smooth="yes"/>
      <point x="175" y="106"/>
      <point x="137" y="152"/>
      <point x="137" y="228" type="curve" smooth="yes"/>
      <point x="137" y="242" type="line" smooth="yes"/>
      <point x="137" y="303"/>
      <point x="162" y="372"/>
      <point x="250" y="484" type="curve" smooth="yes"/>
      <point x="436" y="720" type="line"/>
      <point x="436" y="779" type="line"/>
      <point x="67" y="779" type="line"/>
    </contour>
  </outline>
</glyph>
<glyph name="uni03B7" format="2">
  <advance width="602"/>
  <unicode hex="03B7"/>
  <outline>
    <contour>
      <point x="177" y="0" type="line"/>
      <point x="177" y="375" type="line" smooth="yes"/>
      <point x="177" y="445"/>
      <point x="244" y="482"/>
      <point x="311" y="482" type="curve" smooth="yes"/>
      <point x="394" y="482"/>
      <point x="436" y="432"/>
      <point x="436" y="336" type="curve" smooth="yes"/>
      <point x="436" y="-210" type="line"/>
      <point x="516" y="-210" type="line"/>
      <point x="516" y="348" type="line" smooth="yes"/>
      <point x="516" y="479"/>
      <point x="446" y="554"/>
      <point x="336" y="554" type="curve" smooth="yes"/>
      <point x="256" y="554"/>
      <point x="207" y="514"/>
      <point x="181" y="454" type="curve"/>
      <point x="177" y="454" type="line"/>
      <point x="177" y="454" type="line"/>
      <point x="177" y="504"/>
      <point x="147" y="541"/>
      <point x="90" y="541" type="curve" smooth="yes"/>
      <point x="33" y="541" type="line"/>
      <point x="33" y="471" type="line"/>
      <point x="97" y="471" type="line"/>
      <point x="97" y="0" type="line"/>
    </contour>
  </outline>
</glyph>
<glyph name="uni03B8" format="2">
  <advance width="590"/>
  <unicode hex="03B8"/>
  <outline>
    <contour>
      <point x="295" y="790" type="curve" smooth="yes"/>
      <point x="148" y="790"/>
      <point x="61" y="690"/>
      <point x="61" y="388" type="curve" smooth="yes"/>
      <point x="61" y="86"/>
      <point x="148" y="-13"/>
      <point x="295" y="-13" type="curve" smooth="yes"/>
      <point x="442" y="-13"/>
      <point x="529" y="86"/>
      <point x="529" y="388" type="curve" smooth="yes"/>
      <point x="529" y="690"/>
      <point x="442" y="790"/>
    </contour>
    <contour>
      <point x="295" y="56" type="curve" smooth="yes"/>
      <point x="201" y="56"/>
      <point x="147" y="117"/>
      <point x="147" y="285" type="curve" smooth="yes"/>
      <point x="147" y="353" type="line"/>
      <point x="443" y="353" type="line"/>
      <point x="443" y="285" type="line" smooth="yes"/>
      <point x="443" y="117"/>
      <point x="390" y="56"/>
    </contour>
    <contour>
      <point x="147" y="491" type="line" smooth="yes"/>
      <point x="147" y="659"/>
      <point x="201" y="721"/>
      <point x="295" y="721" type="curve" smooth="yes"/>
      <point x="390" y="721"/>
      <point x="443" y="659"/>
      <point x="443" y="491" type="curve" smooth="yes"/>
      <point x="443" y="423" type="line"/>
      <point x="147" y="423" type="line"/>
    </contour>
  </outline>
</glyph>
<glyph name="uni03BB" format="2">
  <advance width="534"/>
  <unicode hex="03BB"/>
  <outline>
    <contour>
      <point x="222" y="540" type="line"/>
      <point x="6" y="-1" type="line"/>
      <point x="85" y="-1" type="line"/>
      <point x="191" y="269" type="line"/>
      <point x="253" y="456" type="line"/>
      <point x="258" y="456" type="line"/>
      <point x="309" y="269" type="line"/>
      <point x="378" y="59" type="line" smooth="yes"/>
      <point x="391" y="19"/>
      <point x="415" y="-1"/>
      <point x="468" y="-1" type="curve" smooth="yes"/>
      <point x="526" y="-1" type="line"/>
      <point x="526" y="69" type="line"/>
      <point x="454" y="69" type="line"/>
      <point x="245" y="715" type="line" smooth="yes"/>
      <point x="232" y="755"/>
      <point x="209" y="775"/>
      <point x="156" y="775" type="curve" smooth="yes"/>
      <point x="61" y="775" type="line"/>
      <point x="61" y="705" type="line"/>
      <point x="170" y="705" type="line"/>
    </contour>
  </outline>
</glyph>
<glyph name="uni03BC" format="2">
  <advance width="607"/>
  <unicode hex="03BC"/>
  <outline>
    <contour>
      <point x="171" y="-210" type="line"/>
      <point x="171" y="-68" type="line"/>
      <point x="153" y="88" type="line"/>
      <point x="157" y="88" type="line"/>
      <point x="176" y="25"/>
      <point x="224" y="-13"/>
      <point x="292" y="-13" type="curve" smooth="yes"/>
      <point x="355" y="-13"/>
      <point x="401" y="21"/>
      <point x="426" y="88" type="curve"/>
      <point x="430" y="88" type="line"/>
      <point x="430" y="88" type="line"/>
      <point x="430" y="37"/>
      <point x="462" y="0"/>
      <point x="517" y="0" type="curve" smooth="yes"/>
      <point x="574" y="0" type="line"/>
      <point x="574" y="70" type="line"/>
      <point x="510" y="70" type="line"/>
      <point x="510" y="541" type="line"/>
      <point x="430" y="541" type="line"/>
      <point x="430" y="164" type="line" smooth="yes"/>
      <point x="430" y="93"/>
      <point x="363" y="59"/>
      <point x="297" y="59" type="curve" smooth="yes"/>
      <point x="216" y="59"/>
      <point x="171" y="108"/>
      <point x="171" y="205" type="curve" smooth="yes"/>
      <point x="171" y="541" type="line"/>
      <point x="91" y="541" type="line"/>
      <point x="91" y="-210" type="line"/>
    </contour>
  </outline>
</glyph>
<glyph name="uni03BE" format="2">
  <advance width="479"/>
  <unicode hex="03BE"/>
  <outline>
    <contour>
      <point x="449" y="709" type="line"/>
      <point x="449" y="779" type="line"/>
      <point x="47" y="779" type="line"/>
      <point x="47" y="709" type="line"/>
      <point x="191" y="709" type="line"/>
      <point x="191" y="702" type="line"/>
      <point x="130" y="681"/>
      <point x="96" y="629"/>
      <point x="96" y="564" type="curve" smooth="yes"/>
      <point x="96" y="480"/>
      <point x="135" y="430"/>
      <point x="217" y="409" type="curve"/>
      <point x="217" y="405" type="line"/>
      <point x="118" y="393"/>
      <point x="58" y="321"/>
      <point x="58" y="229" type="curve" smooth="yes"/>
      <point x="58" y="105"/>
      <point x="115" y="48"/>
      <point x="273" y="10" type="curve" smooth="yes"/>
      <point x="356" y="-10" type="line"/>
      <point x="320" y="-144" type="line"/>
      <point x="396" y="-164" type="line"/>
      <point x="427" y="-47" type="line" smooth="yes"/>
      <point x="430" y="-35"/>
      <point x="432" y="-23"/>
      <point x="432" y="-13" type="curve" smooth="yes"/>
      <point x="432" y="24"/>
      <point x="412" y="50"/>
      <point x="363" y="63" type="curve" smooth="yes"/>
      <point x="283" y="84" type="line" smooth="yes"/>
      <point x="184" y="110"/>
      <point x="144" y="152"/>
      <point x="144" y="221" type="curve" smooth="yes"/>
      <point x="144" y="236" type="line" smooth="yes"/>
      <point x="144" y="320"/>
      <point x="187" y="370"/>
      <point x="300" y="370" type="curve" smooth="yes"/>
      <point x="391" y="370" type="line"/>
      <point x="391" y="440" type="line"/>
      <point x="300" y="440" type="line" smooth="yes"/>
      <point x="222" y="440"/>
      <point x="182" y="483"/>
      <point x="182" y="556" type="curve" smooth="yes"/>
      <point x="182" y="571" type="line" smooth="yes"/>
      <point x="182" y="657"/>
      <point x="231" y="709"/>
      <point x="309" y="709" type="curve" smooth="yes"/>
    </contour>
  </outline>
</glyph>
<glyph name="uni03BF" format="2">
  <advance width="588"/>
  <unicode hex="03BF"/>
  <outline>
    <contour>
      <point x="294" y="-13" type="curve" smooth="yes"/>
      <point x="439" y="-13"/>
      <point x="538" y="98"/>
      <point x="538" y="271" type="curve" smooth="yes"/>
      <point x="538" y="443"/>
      <point x="439" y="554"/>
      <point x="294" y="554" type="curve" smooth="yes"/>
      <point x="150" y="554"/>
      <point x="51" y="443"/>
      <point x="51" y="271" type="curve" smooth="yes"/>
      <point x="51" y="98"/>
      <point x="150" y="-13"/>
    </contour>
    <contour>
      <point x="294" y="58" type="curve" smooth="yes"/>
      <point x="202" y="58"/>
      <point x="137" y="116"/>
      <point x="137" y="232" type="curve" smooth="yes"/>
      <point x="137" y="309" type="line" smooth="yes"/>
      <point x="137" y="425"/>
      <point x="202" y="483"/>
      <point x="294" y="483" type="curve" smooth="yes"/>
      <point x="387" y="483"/>
      <point x="452" y="425"/>
      <point x="452" y="309" type="curve" smooth="yes"/>
      <point x="452" y="232" type="line" smooth="yes"/>
      <point x="452" y="116"/>
      <point x="387" y="58"/>
    </contour>
  </outline>
</glyph>
<glyph name="uni03C0" format="2">
  <advance width="653"/>
  <unicode hex="03C0"/>
  <outline>
    <contour>
      <point x="509" y="471" type="line"/>
      <point x="619" y="471" type="line"/>
      <point x="619" y="541" type="line"/>
      <point x="25" y="541" type="line"/>
      <point x="25" y="471" type="line"/>
      <point x="127" y="471" type="line"/>
      <point x="127" y="0" type="line"/>
      <point x="207" y="0" type="line"/>
      <point x="207" y="471" type="line"/>
      <point x="429" y="471" type="line"/>
      <point x="429" y="83" type="line" smooth="yes"/>
      <point x="429" y="35"/>
      <point x="459" y="0"/>
      <point x="518" y="0" type="curve" smooth="yes"/>
      <point x="578" y="0" type="line"/>
      <point x="578" y="70" type="line"/>
      <point x="509" y="70" type="line"/>
    </contour>
  </outline>
</glyph>
<glyph name="uni03C1" format="2">
  <advance width="580"/>
  <unicode hex="03C1"/>
  <outline>
    <contour>
      <point x="63" y="-210" type="line"/>
      <point x="143" y="-210" type="line"/>
      <point x="143" y="62" type="line"/>
      <point x="147" y="62" type="line"/>
      <point x="176" y="15"/>
      <point x="234" y="-13"/>
      <point x="305" y="-13" type="curve" smooth="yes"/>
      <point x="441" y="-13"/>
      <point x="525" y="93"/>
      <point x="525" y="275" type="curve" smooth="yes"/>
      <point x="525" y="451"/>
      <point x="445" y="554"/>
      <point x="296" y="554" type="curve" smooth="yes"/>
      <point x="143" y="554"/>
      <point x="63" y="445"/>
      <point x="63" y="311" type="curve" smooth="yes"/>
    </contour>
    <contour>
      <point x="284" y="59" type="curve" smooth="yes"/>
      <point x="211" y="59"/>
      <point x="143" y="89"/>
      <point x="143" y="140" type="curve" smooth="yes"/>
      <point x="143" y="310" type="line" smooth="yes"/>
      <point x="143" y="420"/>
      <point x="197" y="481"/>
      <point x="291" y="481" type="curve" smooth="yes"/>
      <point x="385" y="481"/>
      <point x="439" y="420"/>
      <point x="439" y="310" type="curve" smooth="yes"/>
      <point x="439" y="232" type="line" smooth="yes"/>
      <point x="439" y="120"/>
      <point x="388" y="59"/>
    </contour>
  </outline>
</glyph>
<glyph name="uni03C4" format="2">
  <advance width="501"/>
  <unicode hex="03C4"/>
  <outline>
    <contour>
      <point x="402" y="0" type="line"/>
      <point x="402" y="70" type="line"/>
      <point x="279" y="70" type="line"/>
      <point x="279" y="471" type="line"/>
      <point x="467" y="471" type="line"/>
      <point x="467" y="541" type="line"/>
      <point x="21" y="541" type="line"/>
      <point x="21" y="471" type="line"/>
      <point x="199" y="471" type="line"/>
      <point x="199" y="86" type="line" smooth="yes"/>
      <point x="199" y="34"/>
      <point x="227" y="0"/>
      <point x="285" y="0" type="curve" smooth="yes"/>
    </contour>
  </outline>
</glyph>
<glyph name="uni03C5" format="2">
  <advance width="596"/>
  <unicode hex="03C5"/>
  <outline>
    <contour>
      <point x="166" y="541" type="line"/>
      <point x="86" y="541" type="line"/>
      <point x="86" y="258" type="line" smooth="yes"/>
      <point x="86" y="69"/>
      <point x="158" y="-13"/>
      <point x="298" y="-13" type="curve" smooth="yes"/>
      <point x="438" y="-13"/>
      <point x="510" y="69"/>
      <point x="510" y="258" type="curve" smooth="yes"/>
      <point x="510" y="541" type="line"/>
      <point x="430" y="541" type="line"/>
      <point x="430" y="245" type="line" smooth="yes"/>
      <point x="430" y="115"/>
      <point x="393" y="58"/>
      <point x="298" y="58" type="curve" smooth="yes"/>
      <point x="204" y="58"/>
      <point x="166" y="115"/>
      <point x="166" y="245" type="curve" smooth="yes"/>
    </contour>
  </outline>
</glyph>
<glyph name="uni03C6" format="2">
  <advance width="751"/>
  <unicode hex="03C6"/>
  <outline>
    <contour>
      <point x="325" y="-210" type="line"/>
      <point x="405" y="-210" type="line"/>
      <point x="405" y="-13" type="line"/>
      <point x="582" y="-13"/>
      <point x="694" y="92"/>
      <point x="694" y="288" type="curve" smooth="yes"/>
      <point x="694" y="476"/>
      <point x="627" y="554"/>
      <point x="507" y="554" type="curve" smooth="yes"/>
      <point x="389" y="554"/>
      <point x="325" y="476"/>
      <point x="325" y="288" type="curve" smooth="yes"/>
      <point x="325" y="58" type="line"/>
      <point x="224" y="58"/>
      <point x="141" y="117"/>
      <point x="141" y="241" type="curve" smooth="yes"/>
      <point x="141" y="282" type="line" smooth="yes"/>
      <point x="141" y="396"/>
      <point x="175" y="458"/>
      <point x="250" y="496" type="curve"/>
      <point x="207" y="554" type="line"/>
      <point x="111" y="508"/>
      <point x="55" y="412"/>
      <point x="55" y="262" type="curve" smooth="yes"/>
      <point x="55" y="97"/>
      <point x="171" y="-13"/>
      <point x="325" y="-13" type="curve"/>
    </contour>
    <contour>
      <point x="405" y="314" type="line" smooth="yes"/>
      <point x="405" y="442"/>
      <point x="443" y="483"/>
      <point x="507" y="483" type="curve" smooth="yes"/>
      <point x="571" y="483"/>
      <point x="608" y="442"/>
      <point x="608" y="314" type="curve" smooth="yes"/>
      <point x="608" y="241" type="line" smooth="yes"/>
      <point x="608" y="111"/>
      <point x="527" y="58"/>
      <point x="405" y="58" type="curve"/>
    </contour>
  </outline>
</glyph>
<glyph name="uni0401" format="2">
  <advance width="612"/>
  <unicode hex="0401"/>
  <outline>
    <contour>
      <point x="544" y="74" type="line"/>
      <point x="184" y="74" type="line"/>
      <point x="184" y="335" type="line"/>
      <point x="524" y="335" type="line"/>
      <point x="524" y="409" type="line"/>
      <point x="184" y="409" type="line"/>
      <point x="184" y="659" type="line"/>
      <point x="544" y="659" type="line"/>
      <point x="544" y="733" type="line"/>
      <point x="100" y="733" type="line"/>
      <point x="100" y="0" type="line"/>
      <point x="544" y="0" type="line"/>
    </contour>
    <contour>
      <point x="218" y="830" type="curve" smooth="yes"/>
      <point x="251" y="830"/>
      <point x="267" y="850"/>
      <point x="267" y="877" type="curve" smooth="yes"/>
      <point x="267" y="889" type="line" smooth="yes"/>
      <point x="267" y="916"/>
      <point x="251" y="936"/>
      <point x="218" y="936" type="curve" smooth="yes"/>
      <point x="184" y="936"/>
      <point x="167" y="916"/>
      <point x="167" y="889" type="curve" smooth="yes"/>
      <point x="167" y="877" type="line" smooth="yes"/>
      <point x="167" y="850"/>
      <point x="184" y="830"/>
    </contour>
    <contour>
      <point x="413" y="830" type="curve" smooth="yes"/>
      <point x="446" y="830"/>
      <point x="463" y="850"/>
      <point x="463" y="877" type="curve" smooth="yes"/>
      <point x="463" y="889" type="line" smooth="yes"/>
      <point x="463" y="916"/>
      <point x="446" y="936"/>
      <point x="413" y="936" type="curve" smooth="yes"/>
      <point x="379" y="936"/>
      <point x="363" y="916"/>
      <point x="363" y="889" type="curve" smooth="yes"/>
      <point x="363" y="877" type="line" smooth="yes"/>
      <point x="363" y="850"/>
      <point x="379" y="830"/>
    </contour>
  </outline>
</glyph>
<glyph name="uni0410" format="2">
  <advance width="673"/>
  <unicode hex="0410"/>
  <outline>
    <contour>
      <point x="111" y="0" type="line"/>
      <point x="187" y="219" type="line"/>
      <point x="483" y="219" type="line"/>
      <point x="559" y="0" type="line"/>
      <point x="647" y="0" type="line"/>
      <point x="391" y="733" type="line"/>
      <point x="282" y="733" type="line"/>
      <point x="26" y="0" type="line"/>
    </contour>
    <contour>
      <point x="333" y="656" type="line"/>
      <point x="338" y="656" type="line"/>
      <point x="463" y="293" type="line"/>
      <point x="206" y="293" type="line"/>
    </contour>
  </outline>
</glyph>
<glyph name="uni0413" format="2">
  <advance width="524"/>
  <unicode hex="0413"/>
  <outline>
    <contour>
      <point x="99" y="0" type="line"/>
      <point x="183" y="0" type="line"/>
      <point x="183" y="659" type="line"/>
      <point x="496" y="659" type="line"/>
      <point x="496" y="733" type="line"/>
      <point x="99" y="733" type="line"/>
    </contour>
  </outline>
</glyph>
<glyph name="uni0416" format="2">
  <advance width="1027"/>
  <unicode hex="0416"/>
  <outline>
    <contour>
      <point x="44" y="0" type="line"/>
      <point x="111" y="0" type="line" smooth="yes"/>
      <point x="151" y="0"/>
      <point x="178" y="19"/>
      <point x="208" y="77" type="curve" smooth="yes"/>
      <point x="340" y="334" type="line"/>
      <point x="471" y="334" type="line"/>
      <point x="471" y="0" type="line"/>
      <point x="555" y="0" type="line"/>
      <point x="555" y="334" type="line"/>
      <point x="688" y="334" type="line"/>
      <point x="818" y="77" type="line" smooth="yes"/>
      <point x="847" y="19"/>
      <point x="876" y="0"/>
      <point x="915" y="0" type="curve" smooth="yes"/>
      <point x="983" y="0" type="line"/>
      <point x="983" y="74" type="line"/>
      <point x="914" y="74" type="line"/>
      <point x="802" y="297" type="line" smooth="yes"/>
      <point x="778" y="344"/>
      <point x="758" y="360"/>
      <point x="726" y="369" type="curve"/>
      <point x="726" y="374" type="line"/>
      <point x="754" y="382"/>
      <point x="774" y="400"/>
      <point x="794" y="442" type="curve" smooth="yes"/>
      <point x="895" y="659" type="line"/>
      <point x="962" y="659" type="line"/>
      <point x="962" y="733" type="line"/>
      <point x="909" y="733" type="line" smooth="yes"/>
      <point x="865" y="733"/>
      <point x="832" y="713"/>
      <point x="806" y="657" type="curve" smooth="yes"/>
      <point x="689" y="406" type="line"/>
      <point x="555" y="406" type="line"/>
      <point x="555" y="733" type="line"/>
      <point x="471" y="733" type="line"/>
      <point x="471" y="406" type="line"/>
      <point x="338" y="406" type="line"/>
      <point x="223" y="657" type="line" smooth="yes"/>
      <point x="197" y="713"/>
      <point x="162" y="733"/>
      <point x="118" y="733" type="curve" smooth="yes"/>
      <point x="65" y="733" type="line"/>
      <point x="65" y="659" type="line"/>
      <point x="132" y="659" type="line"/>
      <point x="231" y="442" type="line" smooth="yes"/>
      <point x="250" y="400"/>
      <point x="273" y="382"/>
      <point x="300" y="374" type="curve"/>
      <point x="300" y="369" type="line"/>
      <point x="269" y="360"/>
      <point x="253" y="344"/>
      <point x="228" y="297" type="curve" smooth="yes"/>
      <point x="112" y="74" type="line"/>
      <point x="44" y="74" type="line"/>
    </contour>
  </outline>
</glyph>
<glyph name="uni0418" format="2">
  <advance width="742"/>
  <unicode hex="0418"/>
  <outline>
    <contour>
      <point x="100" y="0" type="line"/>
      <point x="176" y="0" type="line"/>
      <point x="489" y="478" type="line"/>
      <point x="566" y="610" type="line"/>
      <point x="569" y="610" type="line"/>
      <point x="561" y="460" type="line"/>
      <point x="561" y="0" type="line"/>
      <point x="643" y="0" type="line"/>
      <point x="643" y="733" type="line"/>
      <point x="567" y="733" type="line"/>
      <point x="254" y="255" type="line"/>
      <point x="177" y="123" type="line"/>
      <point x="174" y="123" type="line"/>
      <point x="182" y="273" type="line"/>
      <point x="182" y="733" type="line"/>
      <point x="100" y="733" type="line"/>
    </contour>
  </outline>
</glyph>
<glyph name="uni041B" format="2">
  <advance width="718"/>
  <unicode hex="041B"/>
  <outline>
    <contour>
      <point x="11" y="0" type="line"/>
      <point x="49" y="0" type="line" smooth="yes"/>
      <point x="99" y="0"/>
      <point x="132" y="14"/>
      <point x="161" y="43" type="curve" smooth="yes"/>
      <point x="225" y="107"/>
      <point x="262" y="220"/>
      <point x="262" y="524" type="curve" smooth="yes"/>
      <point x="262" y="659" type="line"/>
      <point x="535" y="659" type="line"/>
      <point x="535" y="0" type="line"/>
      <point x="619" y="0" type="line"/>
      <point x="619" y="733" type="line"/>
      <point x="182" y="733" type="line"/>
      <point x="182" y="530" type="line" smooth="yes"/>
      <point x="182" y="239"/>
      <point x="154" y="137"/>
      <point x="89" y="74" type="curve"/>
      <point x="11" y="74" type="line"/>
    </contour>
  </outline>
</glyph>
<glyph name="uni041C" format="2">
  <advance width="853"/>
  <unicode hex="041C"/>
  <outline>
    <contour>
      <point x="182" y="0" type="line"/>
      <point x="182" y="622" type="line"/>
      <point x="187" y="622" type="line"/>
      <point x="187" y="622" type="line"/>
      <point x="427" y="181" type="line"/>
      <point x="667" y="622" type="line"/>
      <point x="667" y="622" type="line"/>
      <point x="672" y="622" type="line"/>
      <point x="672" y="0" type="line"/>
      <point x="754" y="0" type="line"/>
      <point x="754" y="733" type="line"/>
      <point x="646" y="733" type="line"/>
      <point x="431" y="336" type="line"/>
      <point x="426" y="336" type="line"/>
      <point x="212" y="733" type="line"/>
      <point x="100" y="733" type="line"/>
      <point x="100" y="0" type="line"/>
    </contour>
  </outline>
</glyph>
<glyph name="uni0420" format="2">
  <advance width="635"/>
  <unicode hex="0420"/>
  <outline>
    <contour>
      <point x="183" y="314" type="line"/>
      <point x="390" y="314" type="line" smooth="yes"/>
      <point x="521" y="314"/>
      <point x="593" y="395"/>
      <point x="593" y="524" type="curve" smooth="yes"/>
      <point x="593" y="652"/>
      <point x="521" y="733"/>
      <point x="390" y="733" type="curve" smooth="yes"/>
      <point x="99" y="733" type="line"/>
      <point x="99" y="0" type="line"/>
      <point x="183" y="0" type="line"/>
    </contour>
    <contour>
      <point x="390" y="659" type="line" smooth="yes"/>
      <point x="461" y="659"/>
      <point x="503" y="620"/>
      <point x="503" y="550" type="curve" smooth="yes"/>
      <point x="503" y="497" type="line" smooth="yes"/>
      <point x="503" y="427"/>
      <point x="461" y="388"/>
      <point x="390" y="388" type="curve" smooth="yes"/>
      <point x="183" y="388" type="line"/>
      <point x="183" y="659" type="line"/>
    </contour>
  </outline>
</glyph>
<glyph name="uni0423" format="2">
  <advance width="625"/>
  <unicode hex="0423"/>
  <outline>
    <contour>
      <point x="152" y="0" type="line"/>
      <point x="210" y="0" type="line" smooth="yes"/>
      <point x="290" y="0"/>
      <point x="316" y="18"/>
      <point x="346" y="93" type="curve" smooth="yes"/>
      <point x="601" y="733" type="line"/>
      <point x="515" y="733" type="line"/>
      <point x="383" y="401" type="line"/>
      <point x="336" y="272" type="line"/>
      <point x="331" y="272" type="line"/>
      <point x="275" y="399" type="line"/>
      <point x="115" y="733" type="line"/>
      <point x="24" y="733" type="line"/>
      <point x="296" y="167" type="line"/>
      <point x="259" y="74" type="line"/>
      <point x="152" y="74" type="line"/>
    </contour>
  </outline>
</glyph>
<glyph name="uni0424" format="2">
  <advance width="886"/>
  <unicode hex="0424"/>
  <outline>
    <contour>
      <point x="401" y="-31" type="line"/>
      <point x="485" y="-31" type="line"/>
      <point x="485" y="64" type="line"/>
      <point x="519" y="64" type="line" smooth="yes"/>
      <point x="715" y="64"/>
      <point x="832" y="193"/>
      <point x="832" y="365" type="curve" smooth="yes"/>
      <point x="832" y="536"/>
      <point x="715" y="665"/>
      <point x="519" y="665" type="curve" smooth="yes"/>
      <point x="485" y="665" type="line"/>
      <point x="485" y="761" type="line"/>
      <point x="401" y="761" type="line"/>
      <point x="401" y="665" type="line"/>
      <point x="367" y="665" type="line" smooth="yes"/>
      <point x="171" y="665"/>
      <point x="54" y="536"/>
      <point x="54" y="365" type="curve" smooth="yes"/>
      <point x="54" y="193"/>
      <point x="170" y="64"/>
      <point x="366" y="64" type="curve" smooth="yes"/>
      <point x="401" y="64" type="line"/>
    </contour>
    <contour>
      <point x="366" y="134" type="line" smooth="yes"/>
      <point x="232" y="134"/>
      <point x="144" y="218"/>
      <point x="144" y="332" type="curve" smooth="yes"/>
      <point x="144" y="398" type="line" smooth="yes"/>
      <point x="144" y="511"/>
      <point x="233" y="595"/>
      <point x="367" y="595" type="curve" smooth="yes"/>
      <point x="403" y="595" type="line"/>
      <point x="403" y="134" type="line"/>
    </contour>
    <contour>
      <point x="483" y="134" type="line"/>
      <point x="483" y="595" type="line"/>
      <point x="519" y="595" type="line" smooth="yes"/>
      <point x="653" y="595"/>
      <point x="742" y="511"/>
      <point x="742" y="398" type="curve" smooth="yes"/>
      <point x="742" y="332" type="line" smooth="yes"/>
      <point x="742" y="218"/>
      <point x="653" y="134"/>
      <point x="519" y="134" type="curve" smooth="yes"/>
    </contour>
  </outline>
</glyph>
<glyph name="uni0429" format="2">
  <advance width="1043"/>
  <unicode hex="0429"/>
  <outline>
    <contour>
      <point x="931" y="-157" type="line"/>
      <point x="1008" y="-157" type="line"/>
      <point x="1008" y="74" type="line"/>
      <point x="905" y="74" type="line"/>
      <point x="905" y="733" type="line"/>
      <point x="821" y="733" type="line"/>
      <point x="821" y="74" type="line"/>
      <point x="545" y="74" type="line"/>
      <point x="545" y="733" type="line"/>
      <point x="461" y="733" type="line"/>
      <point x="461" y="74" type="line"/>
      <point x="185" y="74" type="line"/>
      <point x="185" y="733" type="line"/>
      <point x="101" y="733" type="line"/>
      <point x="101" y="0" type="line"/>
      <point x="931" y="0" type="line"/>
    </contour>
  </outline>
</glyph>
<glyph name="uni042A" format="2">
  <advance width="778"/>
  <unicode hex="042A"/>
  <outline>
    <contour>
      <point x="217" y="0" type="line"/>
      <point x="532" y="0" type="line" smooth="yes"/>
      <point x="661" y="0"/>
      <point x="735" y="81"/>
      <point x="735" y="219" type="curve" smooth="yes"/>
      <point x="735" y="356"/>
      <point x="661" y="437"/>
      <point x="532" y="437" type="curve" smooth="yes"/>
      <point x="301" y="437" type="line"/>
      <point x="301" y="733" type="line"/>
      <point x="24" y="733" type="line"/>
      <point x="24" y="659" type="line"/>
      <point x="217" y="659" type="line"/>
    </contour>
    <contour>
      <point x="301" y="74" type="line"/>
      <point x="301" y="363" type="line"/>
      <point x="532" y="363" type="line" smooth="yes"/>
      <point x="604" y="363"/>
      <point x="645" y="325"/>
      <point x="645" y="247" type="curve" smooth="yes"/>
      <point x="645" y="190" type="line" smooth="yes"/>
      <point x="645" y="111"/>
      <point x="604" y="74"/>
      <point x="532" y="74" type="curve" smooth="yes"/>
    </contour>
  </outline>
</glyph>
<glyph name="uni042C" format="2">
  <advance width="662"/>
  <unicode hex="042C"/>
  <outline>
    <contour>
      <point x="101" y="0" type="line"/>
      <point x="416" y="0" type="line" smooth="yes"/>
      <point x="545" y="0"/>
      <point x="619" y="81"/>
      <point x="619" y="219" type="curve" smooth="yes"/>
      <point x="619" y="354"/>
      <point x="545" y="435"/>
      <point x="416" y="435" type="curve" smooth="yes"/>
      <point x="185" y="435" type="line"/>
      <point x="185" y="733" type="line"/>
      <point x="101" y="733" type="line"/>
    </contour>
    <contour>
      <point x="185" y="74" type="line"/>
      <point x="185" y="361" type="line"/>
      <point x="416" y="361" type="line" smooth="yes"/>
      <point x="488" y="361"/>
      <point x="529" y="323"/>
      <point x="529" y="247" type="curve" smooth="yes"/>
      <point x="529" y="190" type="line" smooth="yes"/>
      <point x="529" y="111"/>
      <point x="488" y="74"/>
      <point x="416" y="74" type="curve" smooth="yes"/>
    </contour>
  </outline>
</glyph>
<glyph name="uni042D" format="2">
  <advance width="663"/>
  <unicode hex="042D"/>
  <outline>
    <contour>
      <point x="200" y="334" type="line"/>
      <point x="510" y="334" type="line"/>
      <point x="510" y="318" type="line" smooth="yes"/>
      <point x="510" y="162"/>
      <point x="438" y="62"/>
      <point x="302" y="62" type="curve" smooth="yes"/>
      <point x="202" y="62"/>
      <point x="140" y="114"/>
      <point x="108" y="194" type="curve"/>
      <point x="40" y="154" type="line"/>
      <point x="86" y="51"/>
      <point x="173" y="-13"/>
      <point x="302" y="-13" type="curve" smooth="yes"/>
      <point x="492" y="-13"/>
      <point x="600" y="127"/>
      <point x="600" y="371" type="curve" smooth="yes"/>
      <point x="600" y="616"/>
      <point x="492" y="746"/>
      <point x="302" y="746" type="curve" smooth="yes"/>
      <point x="175" y="746"/>
      <point x="91" y="687"/>
      <point x="45" y="585" type="curve"/>
      <point x="114" y="546" type="line"/>
      <point x="144" y="622"/>
      <point x="207" y="671"/>
      <point x="302" y="671" type="curve" smooth="yes"/>
      <point x="438" y="671"/>
      <point x="510" y="576"/>
      <point x="510" y="426" type="curve" smooth="yes"/>
      <point x="510" y="408" type="line"/>
      <point x="200" y="408" type="line"/>
    </contour>
  </outline>
</glyph>
<glyph name="uni042E" format="2">
  <advance width="1008"/>
  <unicode hex="042E"/>
  <outline>
    <contour>
      <point x="647" y="-13" type="curve" smooth="yes"/>
      <point x="834" y="-13"/>
      <point x="945" y="115"/>
      <point x="945" y="367" type="curve" smooth="yes"/>
      <point x="945" y="619"/>
      <point x="834" y="746"/>
      <point x="647" y="746" type="curve" smooth="yes"/>
      <point x="469" y="746"/>
      <point x="357" y="628"/>
      <point x="349" y="408" type="curve"/>
      <point x="184" y="408" type="line"/>
      <point x="184" y="733" type="line"/>
      <point x="100" y="733" type="line"/>
      <point x="100" y="0" type="line"/>
      <point x="184" y="0" type="line"/>
      <point x="184" y="334" type="line"/>
      <point x="347" y="334" type="line"/>
      <point x="357" y="108"/>
      <point x="462" y="-13"/>
    </contour>
    <contour>
      <point x="647" y="62" type="curve" smooth="yes"/>
      <point x="520" y="62"/>
      <point x="441" y="151"/>
      <point x="441" y="306" type="curve" smooth="yes"/>
      <point x="441" y="428" type="line" smooth="yes"/>
      <point x="441" y="583"/>
      <point x="520" y="671"/>
      <point x="647" y="671" type="curve" smooth="yes"/>
      <point x="776" y="671"/>
      <point x="855" y="583"/>
      <point x="855" y="428" type="curve" smooth="yes"/>
      <point x="855" y="306" type="line" smooth="yes"/>
      <point x="855" y="151"/>
      <point x="776" y="62"/>
    </contour>
  </outline>
</glyph>
<glyph name="uni0431" format="2">
  <advance width="592"/>
  <unicode hex="0431"/>
  <outline>
    <contour>
      <point x="299" y="-13" type="curve" smooth="yes"/>
      <point x="442" y="-13"/>
      <point x="541" y="99"/>
      <point x="541" y="263" type="curve" smooth="yes"/>
      <point x="541" y="439"/>
      <point x="445" y="538"/>
      <point x="310" y="538" type="curve" smooth="yes"/>
      <point x="226" y="538"/>
      <point x="176" y="502"/>
      <point x="144" y="428" type="curve"/>
      <point x="140" y="428" type="line"/>
      <point x="155" y="619"/>
      <point x="196" y="679"/>
      <point x="320" y="689" type="curve" smooth="yes"/>
      <point x="500" y="704" type="line"/>
      <point x="500" y="785" type="line"/>
      <point x="330" y="771" type="line" smooth="yes"/>
      <point x="135" y="755"/>
      <point x="56" y="634"/>
      <point x="56" y="322" type="curve" smooth="yes"/>
      <point x="56" y="83"/>
      <point x="150" y="-13"/>
    </contour>
    <contour>
      <point x="303" y="58" type="curve" smooth="yes"/>
      <point x="206" y="58"/>
      <point x="142" y="115"/>
      <point x="142" y="236" type="curve" smooth="yes"/>
      <point x="142" y="332" type="line" smooth="yes"/>
      <point x="142" y="412"/>
      <point x="194" y="467"/>
      <point x="294" y="467" type="curve" smooth="yes"/>
      <point x="393" y="467"/>
      <point x="455" y="409"/>
      <point x="455" y="293" type="curve" smooth="yes"/>
      <point x="455" y="226" type="line" smooth="yes"/>
      <point x="455" y="114"/>
      <point x="391" y="58"/>
    </contour>
  </outline>
</glyph>
<glyph name="uni0433" format="2">
  <advance width="457"/>
  <unicode hex="0433"/>
  <outline>
    <contour>
      <point x="91" y="0" type="line"/>
      <point x="171" y="0" type="line"/>
      <point x="171" y="471" type="line"/>
      <point x="431" y="471" type="line"/>
      <point x="431" y="541" type="line"/>
      <point x="91" y="541" type="line"/>
    </contour>
  </outline>
</glyph>
<glyph name="uni0439" format="2">
  <advance width="617"/>
  <unicode hex="0439"/>
  <outline>
    <contour>
      <point x="91" y="0" type="line"/>
      <point x="165" y="0" type="line"/>
      <point x="381" y="315" type="line"/>
      <point x="452" y="436" type="line"/>
      <point x="456" y="436" type="line"/>
      <point x="448" y="300" type="line"/>
      <point x="448" y="0" type="line"/>
      <point x="526" y="0" type="line"/>
      <point x="526" y="541" type="line"/>
      <point x="452" y="541" type="line"/>
      <point x="236" y="227" type="line"/>
      <point x="165" y="106" type="line"/>
      <point x="160" y="106" type="line"/>
      <point x="169" y="241" type="line"/>
      <point x="169" y="541" type="line"/>
      <point x="91" y="541" type="line"/>
    </contour>
    <contour>
      <point x="311" y="628" type="curve" smooth="yes"/>
      <point x="387" y="628"/>
      <point x="429" y="660"/>
      <point x="454" y="708" type="curve" smooth="yes"/>
      <point x="475" y="748" type="line"/>
      <point x="406" y="780" type="line"/>
      <point x="366" y="693" type="line"/>
      <point x="349" y="689"/>
      <point x="328" y="687"/>
      <point x="311" y="687" type="curve" smooth="yes"/>
      <point x="295" y="687"/>
      <point x="274" y="689"/>
      <point x="257" y="693" type="curve"/>
      <point x="217" y="780" type="line"/>
      <point x="148" y="748" type="line"/>
      <point x="169" y="708" type="line" smooth="yes"/>
      <point x="194" y="660"/>
      <point x="236" y="628"/>
    </contour>
  </outline>
</glyph>
<glyph name="uni043A" format="2">
  <advance width="578"/>
  <unicode hex="043A"/>
  <outline>
    <contour>
      <point x="91" y="0" type="line"/>
      <point x="171" y="0" type="line"/>
      <point x="171" y="246" type="line"/>
      <point x="281" y="246" type="line"/>
      <point x="383" y="66" type="line" smooth="yes"/>
      <point x="411" y="16"/>
      <point x="439" y="0"/>
      <point x="474" y="0" type="curve" smooth="yes"/>
      <point x="535" y="0" type="line"/>
      <point x="535" y="70" type="line"/>
      <point x="471" y="70" type="line"/>
      <point x="388" y="220" type="line" smooth="yes"/>
      <point x="365" y="262"/>
      <point x="346" y="273"/>
      <point x="317" y="277" type="curve"/>
      <point x="317" y="281" type="line"/>
      <point x="344" y="290"/>
      <point x="350" y="298"/>
      <point x="373" y="334" type="curve" smooth="yes"/>
      <point x="460" y="471" type="line"/>
      <point x="527" y="471" type="line"/>
      <point x="527" y="541" type="line"/>
      <point x="477" y="541" type="line" smooth="yes"/>
      <point x="440" y="541"/>
      <point x="418" y="530"/>
      <point x="386" y="480" type="curve" smooth="yes"/>
      <point x="281" y="314" type="line"/>
      <point x="171" y="314" type="line"/>
      <point x="171" y="541" type="line"/>
      <point x="91" y="541" type="line"/>
    </contour>
  </outline>
</glyph>
<glyph name="uni0440" format="2">
  <advance width="609"/>
  <unicode hex="0440"/>
  <outline>
    <contour>
      <point x="172" y="-210" type="line"/>
      <point x="172" y="87" type="line"/>
      <point x="176" y="87" type="line"/>
      <point x="208" y="21"/>
      <point x="259" y="-13"/>
      <point x="336" y="-13" type="curve" smooth="yes"/>
      <point x="470" y="-13"/>
      <point x="555" y="97"/>
      <point x="555" y="271" type="curve" smooth="yes"/>
      <point x="555" y="444"/>
      <point x="470" y="554"/>
      <point x="336" y="554" type="curve" smooth="yes"/>
      <point x="259" y="554"/>
      <point x="204" y="521"/>
      <point x="176" y="454" type="curve"/>
      <point x="172" y="454" type="line"/>
      <point x="172" y="541" type="line"/>
      <point x="92" y="541" type="line"/>
      <point x="92" y="-210" type="line"/>
    </contour>
    <contour>
      <point x="314" y="59" type="curve" smooth="yes"/>
      <point x="236" y="59"/>
      <point x="172" y="100"/>
      <point x="172" y="172" type="curve" smooth="yes"/>
      <point x="172" y="375" type="line" smooth="yes"/>
      <point x="172" y="438"/>
      <point x="236" y="482"/>
      <point x="314" y="482" type="curve" smooth="yes"/>
      <point x="409" y="482"/>
      <point x="469" y="416"/>
      <point x="469" y="316" type="curve" smooth="yes"/>
      <point x="469" y="226" type="line" smooth="yes"/>
      <point x="469" y="125"/>
      <point x="409" y="59"/>
    </contour>
  </outline>
</glyph>
<glyph name="uni0441" format="2">
  <advance width="528"/>
  <unicode hex="0441"/>
  <outline>
    <contour>
      <point x="292" y="-13" type="curve" smooth="yes"/>
      <point x="394" y="-13"/>
      <point x="463" y="37"/>
      <point x="498" y="115" type="curve"/>
      <point x="440" y="153" type="line"/>
      <point x="409" y="91"/>
      <point x="360" y="58"/>
      <point x="292" y="58" type="curve" smooth="yes"/>
      <point x="189" y="58"/>
      <point x="137" y="127"/>
      <point x="137" y="226" type="curve" smooth="yes"/>
      <point x="137" y="315" type="line" smooth="yes"/>
      <point x="137" y="414"/>
      <point x="189" y="483"/>
      <point x="292" y="483" type="curve" smooth="yes"/>
      <point x="358" y="483"/>
      <point x="405" y="451"/>
      <point x="426" y="394" type="curve"/>
      <point x="493" y="429" type="line"/>
      <point x="461" y="503"/>
      <point x="397" y="554"/>
      <point x="292" y="554" type="curve" smooth="yes"/>
      <point x="140" y="554"/>
      <point x="51" y="444"/>
      <point x="51" y="271" type="curve" smooth="yes"/>
      <point x="51" y="97"/>
      <point x="140" y="-13"/>
    </contour>
  </outline>
</glyph>
<glyph name="uni0443" format="2">
  <advance width="524"/>
  <unicode hex="0443"/>
  <outline>
    <contour>
      <point x="141" y="-210" type="line" smooth="yes"/>
      <point x="216" y="-210"/>
      <point x="238" y="-192"/>
      <point x="262" y="-129" type="curve"/>
      <point x="504" y="541" type="line"/>
      <point x="425" y="541" type="line"/>
      <point x="264" y="82" type="line"/>
      <point x="264" y="82" type="line"/>
      <point x="258" y="82" type="line"/>
      <point x="258" y="82" type="line"/>
      <point x="101" y="541" type="line"/>
      <point x="21" y="541" type="line"/>
      <point x="223" y="-20" type="line"/>
      <point x="181" y="-140" type="line"/>
      <point x="95" y="-140" type="line"/>
      <point x="95" y="-210" type="line"/>
    </contour>
  </outline>
</glyph>
<glyph name="uni0444" format="2">
  <advance width="788"/>
  <unicode hex="0444"/>
  <outline>
    <contour>
      <point x="354" y="-206" type="line"/>
      <point x="434" y="-206" type="line"/>
      <point x="434" y="61" type="line"/>
      <point x="437" y="61" type="line"/>
      <point x="464" y="19"/>
      <point x="501" y="-7"/>
      <point x="555" y="-7" type="curve" smooth="yes"/>
      <point x="672" y="-7"/>
      <point x="732" y="84"/>
      <point x="732" y="275" type="curve" smooth="yes"/>
      <point x="732" y="466"/>
      <point x="672" y="558"/>
      <point x="555" y="558" type="curve" smooth="yes"/>
      <point x="501" y="558"/>
      <point x="464" y="530"/>
      <point x="437" y="488" type="curve"/>
      <point x="434" y="488" type="line"/>
      <point x="434" y="750" type="line"/>
      <point x="354" y="750" type="line"/>
      <point x="354" y="488" type="line"/>
      <point x="351" y="488" type="line"/>
      <point x="324" y="530"/>
      <point x="287" y="558"/>
      <point x="233" y="558" type="curve" smooth="yes"/>
      <point x="116" y="558"/>
      <point x="56" y="466"/>
      <point x="56" y="275" type="curve" smooth="yes"/>
      <point x="56" y="84"/>
      <point x="116" y="-7"/>
      <point x="233" y="-7" type="curve" smooth="yes"/>
      <point x="287" y="-7"/>
      <point x="324" y="19"/>
      <point x="351" y="61" type="curve"/>
      <point x="354" y="61" type="line"/>
    </contour>
    <contour>
      <point x="253" y="64" type="curve" smooth="yes"/>
      <point x="176" y="64"/>
      <point x="142" y="109"/>
      <point x="142" y="229" type="curve" smooth="yes"/>
      <point x="142" y="321" type="line" smooth="yes"/>
      <point x="142" y="441"/>
      <point x="176" y="486"/>
      <point x="253" y="486" type="curve" smooth="yes"/>
      <point x="320" y="486"/>
      <point x="355" y="462"/>
      <point x="355" y="411" type="curve" smooth="yes"/>
      <point x="355" y="140" type="line" smooth="yes"/>
      <point x="355" y="88"/>
      <point x="320" y="64"/>
    </contour>
    <contour>
      <point x="535" y="64" type="curve" smooth="yes"/>
      <point x="468" y="64"/>
      <point x="433" y="88"/>
      <point x="433" y="140" type="curve" smooth="yes"/>
      <point x="433" y="411" type="line" smooth="yes"/>
      <point x="433" y="462"/>
      <point x="468" y="486"/>
      <point x="535" y="486" type="curve" smooth="yes"/>
      <point x="612" y="486"/>
      <point x="646" y="441"/>
      <point x="646" y="321" type="curve" smooth="yes"/>
      <point x="646" y="229" type="line" smooth="yes"/>
      <point x="646" y="109"/>
      <point x="612" y="64"/>
    </contour>
  </outline>
</glyph>
<glyph name="uni0447" format="2">
  <advance width="565"/>
  <unicode hex="0447"/>
  <outline>
    <contour>
      <point x="393" y="0" type="line"/>
      <point x="473" y="0" type="line"/>
      <point x="473" y="541" type="line"/>
      <point x="393" y="541" type="line"/>
      <point x="393" y="325" type="line" smooth="yes"/>
      <point x="393" y="280"/>
      <point x="332" y="258"/>
      <point x="253" y="258" type="curve" smooth="yes"/>
      <point x="172" y="258"/>
      <point x="134" y="291"/>
      <point x="134" y="358" type="curve" smooth="yes"/>
      <point x="134" y="541" type="line"/>
      <point x="54" y="541" type="line"/>
      <point x="54" y="351" type="line" smooth="yes"/>
      <point x="54" y="241"/>
      <point x="119" y="186"/>
      <point x="227" y="186" type="curve" smooth="yes"/>
      <point x="307" y="186"/>
      <point x="354" y="213"/>
      <point x="388" y="250" type="curve"/>
      <point x="393" y="250" type="line"/>
    </contour>
  </outline>
</glyph>
<glyph name="uni0448" format="2">
  <advance width="838"/>
  <unicode hex="0448"/>
  <outline>
    <contour>
      <point x="92" y="0" type="line"/>
      <point x="747" y="0" type="line"/>
      <point x="747" y="541" type="line"/>
      <point x="667" y="541" type="line"/>
      <point x="667" y="70" type="line"/>
      <point x="460" y="70" type="line"/>
      <point x="460" y="541" type="line"/>
      <point x="380" y="541" type="line"/>
      <point x="380" y="70" type="line"/>
      <point x="172" y="70" type="line"/>
      <point x="172" y="541" type="line"/>
      <point x="92" y="541" type="line"/>
    </contour>
  </outline>
</glyph>
<glyph name="uni044D" format="2">
  <advance width="537"/>
  <unicode hex="044D"/>
  <outline>
    <contour>
      <point x="162" y="239" type="line"/>
      <point x="400" y="239" type="line"/>
      <point x="400" y="223" type="line" smooth="yes"/>
      <point x="400" y="123"/>
      <point x="349" y="58"/>
      <point x="242" y="58" type="curve" smooth="yes"/>
      <point x="170" y="58"/>
      <point x="122" y="91"/>
      <point x="102" y="148" type="curve"/>
      <point x="35" y="114" type="line"/>
      <point x="67" y="39"/>
      <point x="129" y="-13"/>
      <point x="242" y="-13" type="curve" smooth="yes"/>
      <point x="397" y="-13"/>
      <point x="486" y="96"/>
      <point x="486" y="269" type="curve" smooth="yes"/>
      <point x="486" y="443"/>
      <point x="397" y="552"/>
      <point x="242" y="552" type="curve" smooth="yes"/>
      <point x="134" y="552"/>
      <point x="65" y="502"/>
      <point x="30" y="424" type="curve"/>
      <point x="88" y="385" type="line"/>
      <point x="118" y="447"/>
      <point x="169" y="481"/>
      <point x="242" y="481" type="curve" smooth="yes"/>
      <point x="349" y="481"/>
      <point x="400" y="415"/>
      <point x="400" y="316" type="curve" smooth="yes"/>
      <point x="400" y="306" type="line"/>
      <point x="162" y="306" type="line"/>
    </contour>
  </outline>
</glyph>
<glyph name="uni044E" format="2">
  <advance width="820"/>
  <unicode hex="044E"/>
  <outline>
    <contour>
      <point x="534" y="-13" type="curve" smooth="yes"/>
      <point x="676" y="-13"/>
      <point x="769" y="92"/>
      <point x="769" y="270" type="curve" smooth="yes"/>
      <point x="769" y="449"/>
      <point x="676" y="552"/>
      <point x="534" y="552" type="curve" smooth="yes"/>
      <point x="404" y="552"/>
      <point x="315" y="466"/>
      <point x="301" y="313" type="curve"/>
      <point x="172" y="313" type="line"/>
      <point x="172" y="539" type="line"/>
      <point x="92" y="539" type="line"/>
      <point x="92" y="0" type="line"/>
      <point x="172" y="0" type="line"/>
      <point x="172" y="245" type="line"/>
      <point x="299" y="245" type="line"/>
      <point x="308" y="81"/>
      <point x="400" y="-13"/>
    </contour>
    <contour>
      <point x="534" y="58" type="curve" smooth="yes"/>
      <point x="443" y="58"/>
      <point x="385" y="107"/>
      <point x="385" y="232" type="curve" smooth="yes"/>
      <point x="385" y="309" type="line" smooth="yes"/>
      <point x="385" y="434"/>
      <point x="442" y="481"/>
      <point x="533" y="481" type="curve" smooth="yes"/>
      <point x="624" y="481"/>
      <point x="683" y="434"/>
      <point x="683" y="309" type="curve" smooth="yes"/>
      <point x="683" y="232" type="line" smooth="yes"/>
      <point x="683" y="107"/>
      <point x="625" y="58"/>
    </contour>
  </outline>
</glyph>
<glyph name="uni044F" format="2">
  <advance width="562"/>
  <unicode hex="044F"/>
  <outline>
    <contour>
      <point x="42" y="0" type="line"/>
      <point x="100" y="0" type="line" smooth="yes"/>
      <point x="138" y="0"/>
      <point x="164" y="17"/>
      <point x="189" y="75" type="curve" smooth="yes"/>
      <point x="246" y="208" type="line"/>
      <point x="392" y="208" type="line"/>
      <point x="392" y="0" type="line"/>
      <point x="472" y="0" type="line"/>
      <point x="472" y="541" type="line"/>
      <point x="234" y="541" type="line" smooth="yes"/>
      <point x="127" y="541"/>
      <point x="60" y="477"/>
      <point x="60" y="376" type="curve" smooth="yes"/>
      <point x="60" y="282"/>
      <point x="111" y="225"/>
      <point x="204" y="216" type="curve"/>
      <point x="204" y="212" type="line"/>
      <point x="175" y="208"/>
      <point x="154" y="190"/>
      <point x="138" y="153" type="curve" smooth="yes"/>
      <point x="102" y="70" type="line"/>
      <point x="42" y="70" type="line"/>
    </contour>
    <contour>
      <point x="247" y="276" type="line" smooth="yes"/>
      <point x="182" y="276"/>
      <point x="145" y="297"/>
      <point x="145" y="358" type="curve" smooth="yes"/>
      <point x="145" y="393" type="line" smooth="yes"/>
      <point x="145" y="450"/>
      <point x="182" y="471"/>
      <point x="247" y="471" type="curve" smooth="yes"/>
      <point x="392" y="471" type="line"/>
      <point x="392" y="276" type="line"/>
    </contour>
  </outline>
</glyph>
<glyph name="uni0451" format="2">
  <advance width="576"/>
  <unicode hex="0451"/>
  <outline>
    <contour>
      <point x="294" y="-13" type="curve" smooth="yes"/>
      <point x="396" y="-13"/>
      <point x="473" y="38"/>
      <point x="507" y="112" type="curve"/>
      <point x="450" y="153" type="line"/>
      <point x="422" y="92"/>
      <point x="367" y="57"/>
      <point x="298" y="57" type="curve" smooth="yes"/>
      <point x="196" y="57"/>
      <point x="136" y="128"/>
      <point x="136" y="226" type="curve" smooth="yes"/>
      <point x="136" y="251" type="line"/>
      <point x="525" y="251" type="line"/>
      <point x="525" y="288" type="line" smooth="yes"/>
      <point x="525" y="444"/>
      <point x="437" y="554"/>
      <point x="293" y="554" type="curve" smooth="yes"/>
      <point x="148" y="554"/>
      <point x="52" y="444"/>
      <point x="52" y="270" type="curve" smooth="yes"/>
      <point x="52" y="97"/>
      <point x="148" y="-13"/>
    </contour>
    <contour>
      <point x="136" y="317" type="line" smooth="yes"/>
      <point x="136" y="417"/>
      <point x="201" y="487"/>
      <point x="293" y="487" type="curve" smooth="yes"/>
      <point x="380" y="487"/>
      <point x="439" y="422"/>
      <point x="439" y="321" type="curve" smooth="yes"/>
      <point x="439" y="311" type="line"/>
      <point x="136" y="311" type="line"/>
    </contour>
    <contour>
      <point x="194" y="651" type="curve" smooth="yes"/>
      <point x="228" y="651"/>
      <point x="243" y="670"/>
      <point x="243" y="698" type="curve" smooth="yes"/>
      <point x="243" y="709" type="line" smooth="yes"/>
      <point x="243" y="737"/>
      <point x="228" y="756"/>
      <point x="194" y="756" type="curve" smooth="yes"/>
      <point x="160" y="756"/>
      <point x="144" y="737"/>
      <point x="144" y="709" type="curve" smooth="yes"/>
      <point x="144" y="698" type="line" smooth="yes"/>
      <point x="144" y="670"/>
      <point x="160" y="651"/>
    </contour>
    <contour>
      <point x="389" y="651" type="curve" smooth="yes"/>
      <point x="423" y="651"/>
      <point x="439" y="670"/>
      <point x="439" y="698" type="curve" smooth="yes"/>
      <point x="439" y="709" type="line" smooth="yes"/>
      <point x="439" y="737"/>
      <point x="423" y="756"/>
      <point x="389" y="756" type="curve" smooth="yes"/>
      <point x="356" y="756"/>
      <point x="340" y="737"/>
      <point x="340" y="709" type="curve" smooth="yes"/>
      <point x="340" y="698" type="line" smooth="yes"/>
      <point x="340" y="670"/>
      <point x="356" y="651"/>
    </contour>
  </outline>
</glyph>
<glyph name="uni1E3F" format="2">
  <advance width="929"/>
  <unicode hex="1E3F"/>
  <outline>
    <contour>
      <point x="170" y="0" type="line"/>
      <point x="170" y="371" type="line" smooth="yes"/>
      <point x="170" y="451"/>
      <point x="235" y="489"/>
      <point x="303" y="489" type="curve" smooth="yes"/>
      <point x="386" y="489"/>
      <point x="430" y="441"/>
      <point x="430" y="336" type="curve" smooth="yes"/>
      <point x="430" y="0" type="line"/>
      <point x="506" y="0" type="line"/>
      <point x="506" y="370" type="line" smooth="yes"/>
      <point x="506" y="451"/>
      <point x="569" y="489"/>
      <point x="640" y="489" type="curve" smooth="yes"/>
      <point x="723" y="489"/>
      <point x="766" y="441"/>
      <point x="766" y="336" type="curve" smooth="yes"/>
      <point x="766" y="0" type="line"/>
      <point x="843" y="0" type="line"/>
      <point x="843" y="343" type="line" smooth="yes"/>
      <point x="843" y="478"/>
      <point x="781" y="552"/>
      <point x="668" y="552" type="curve" smooth="yes"/>
      <point x="575" y="552"/>
      <point x="516" y="503"/>
      <point x="496" y="437" type="curve"/>
      <point x="492" y="437" type="line"/>
      <point x="470" y="513"/>
      <point x="412" y="552"/>
      <point x="330" y="552" type="curve" smooth="yes"/>
      <point x="241" y="552"/>
      <point x="194" y="506"/>
      <point x="174" y="455" type="curve"/>
      <point x="170" y="455" type="line"/>
      <point x="170" y="539" type="line"/>
      <point x="94" y="539" type="line"/>
      <point x="94" y="0" type="line"/>
    </contour>
    <contour>
      <point x="594" y="784" type="line"/>
      <point x="530" y="817" type="line"/>
      <point x="419" y="638" type="line"/>
      <point x="467" y="614" type="line"/>
    </contour>
  </outline>
</glyph>
<glyph name="uni2010" format="2">
  <advance width="1000"/>
  <unicode hex="2010"/>
  <outline>
    <contour>
      <point x="636" y="276" type="line"/>
      <point x="636" y="362" type="line"/>
      <point x="364" y="362" type="line"/>
      <point x="364" y="276" type="line"/>
    </contour>
  </outline>
</glyph>
<glyph name="uni201D" format="2">
  <advance width="1000"/>
  <unicode hex="201D"/>
  <anchor x="490" y="380" name="BSB"/>
  <anchor x="0" y="0" name="LSB"/>
  <anchor x="500" y="0" name="RSB"/>
  <anchor x="510" y="880" name="TSB"/>
  <outline>
    <contour>
      <point x="360" y="848" type="curve" smooth="yes"/>
      <point x="318" y="848"/>
      <point x="299" y="824"/>
      <point x="299" y="789" type="curve" smooth="yes"/>
      <point x="299" y="775" type="line" smooth="yes"/>
      <point x="299" y="748"/>
      <point x="311" y="728"/>
      <point x="338" y="722" type="curve"/>
      <point x="327" y="675"/>
      <point x="303" y="640"/>
      <point x="263" y="598" type="curve"/>
      <point x="330" y="598" type="line"/>
      <point x="387" y="647"/>
      <point x="421" y="721"/>
      <point x="421" y="775" type="curve" smooth="yes"/>
      <point x="421" y="789" type="line" smooth="yes"/>
      <point x="421" y="824"/>
      <point x="402" y="848"/>
    </contour>
    <contour>
      <point x="148" y="848" type="curve" smooth="yes"/>
      <point x="106" y="848"/>
      <point x="87" y="824"/>
      <point x="87" y="789" type="curve" smooth="yes"/>
      <point x="87" y="775" type="line" smooth="yes"/>
      <point x="87" y="748"/>
      <point x="99" y="728"/>
      <point x="126" y="722" type="curve"/>
      <point x="115" y="675"/>
      <point x="91" y="640"/>
      <point x="51" y="598" type="curve"/>
      <point x="118" y="598" type="line"/>
      <point x="175" y="647"/>
      <point x="209" y="721"/>
      <point x="209" y="775" type="curve" smooth="yes"/>
      <point x="209" y="789" type="line" smooth="yes"/>
      <point x="209" y="824"/>
      <point x="190" y="848"/>
    </contour>
  </outline>
</glyph>
<glyph name="uni2026" format="2">
  <advance width="1000"/>
  <unicode hex="2026"/>
  <outline>
    <contour>
      <point x="167" y="313" type="curve" smooth="yes"/>
      <point x="209" y="313"/>
      <point x="228" y="337"/>
      <point x="228" y="371" type="curve" smooth="yes"/>
      <point x="228" y="384" type="line" smooth="yes"/>
      <point x="228" y="418"/>
      <point x="209" y="442"/>
      <point x="167" y="442" type="curve" smooth="yes"/>
      <point x="125" y="442"/>
      <point x="106" y="418"/>
      <point x="106" y="384" type="curve" smooth="yes"/>
      <point x="106" y="371" type="line" smooth="yes"/>
      <point x="106" y="337"/>
      <point x="125" y="313"/>
    </contour>
    <contour>
      <point x="500" y="313" type="curve" smooth="yes"/>
      <point x="542" y="313"/>
      <point x="561" y="337"/>
      <point x="561" y="371" type="curve" smooth="yes"/>
      <point x="561" y="384" type="line" smooth="yes"/>
      <point x="561" y="418"/>
      <point x="542" y="442"/>
      <point x="500" y="442" type="curve" smooth="yes"/>
      <point x="458" y="442"/>
      <point x="439" y="418"/>
      <point x="439" y="384" type="curve" smooth="yes"/>
      <point x="439" y="371" type="line" smooth="yes"/>
      <point x="439" y="337"/>
      <point x="458" y="313"/>
    </contour>
    <contour>
      <point x="833" y="313" type="curve" smooth="yes"/>
      <point x="875" y="313"/>
      <point x="894" y="337"/>
      <point x="894" y="371" type="curve" smooth="yes"/>
      <point x="894" y="384" type="line" smooth="yes"/>
      <point x="894" y="418"/>
      <point x="875" y="442"/>
      <point x="833" y="442" type="curve" smooth="yes"/>
      <point x="791" y="442"/>
      <point x="772" y="418"/>
      <point x="772" y="384" type="curve" smooth="yes"/>
      <point x="772" y="371" type="line" smooth="yes"/>
      <point x="772" y="337"/>
      <point x="791" y="313"/>
    </contour>
  </outline>
</glyph>
<glyph name="uni2030" format="2">
  <advance width="1000"/>
  <unicode hex="2030"/>
  <outline>
    <contour>
      <point x="215" y="0" type="line"/>
      <point x="575" y="733" type="line"/>
      <point x="511" y="733" type="line"/>
      <point x="151" y="0" type="line"/>
    </contour>
    <contour>
      <point x="183" y="356" type="curve" smooth="yes"/>
      <point x="259" y="356"/>
      <point x="300" y="412"/>
      <point x="300" y="551" type="curve" smooth="yes"/>
      <point x="300" y="690"/>
      <point x="259" y="746"/>
      <point x="183" y="746" type="curve" smooth="yes"/>
      <point x="107" y="746"/>
      <point x="66" y="690"/>
      <point x="66" y="551" type="curve" smooth="yes"/>
      <point x="66" y="412"/>
      <point x="107" y="356"/>
    </contour>
    <contour>
      <point x="183" y="411" type="curve" smooth="yes"/>
      <point x="145" y="411"/>
      <point x="127" y="444"/>
      <point x="127" y="513" type="curve" smooth="yes"/>
      <point x="127" y="589" type="line" smooth="yes"/>
      <point x="127" y="658"/>
      <point x="145" y="691"/>
      <point x="183" y="691" type="curve" smooth="yes"/>
      <point x="221" y="691"/>
      <point x="240" y="658"/>
      <point x="240" y="589" type="curve" smooth="yes"/>
      <point x="240" y="513" type="line" smooth="yes"/>
      <point x="240" y="444"/>
      <point x="221" y="411"/>
    </contour>
    <contour>
      <point x="534" y="-12" type="curve" smooth="yes"/>
      <point x="610" y="-12"/>
      <point x="650" y="44"/>
      <point x="650" y="183" type="curve" smooth="yes"/>
      <point x="650" y="321"/>
      <point x="610" y="377"/>
      <point x="534" y="377" type="curve" smooth="yes"/>
      <point x="458" y="377"/>
      <point x="417" y="321"/>
      <point x="417" y="183" type="curve" smooth="yes"/>
      <point x="417" y="44"/>
      <point x="458" y="-12"/>
    </contour>
    <contour>
      <point x="534" y="43" type="curve" smooth="yes"/>
      <point x="495" y="43"/>
      <point x="477" y="76"/>
      <point x="477" y="145" type="curve" smooth="yes"/>
      <point x="477" y="220" type="line" smooth="yes"/>
      <point x="477" y="290"/>
      <point x="495" y="322"/>
      <point x="534" y="322" type="curve" smooth="yes"/>
      <point x="572" y="322"/>
      <point x="590" y="290"/>
      <point x="590" y="220" type="curve" smooth="yes"/>
      <point x="590" y="145" type="line" smooth="yes"/>
      <point x="590" y="76"/>
      <point x="572" y="43"/>
    </contour>
    <contour>
      <point x="818" y="-12" type="curve" smooth="yes"/>
      <point x="894" y="-12"/>
      <point x="934" y="44"/>
      <point x="934" y="183" type="curve" smooth="yes"/>
      <point x="934" y="321"/>
      <point x="894" y="377"/>
      <point x="818" y="377" type="curve" smooth="yes"/>
      <point x="742" y="377"/>
      <point x="701" y="321"/>
      <point x="701" y="183" type="curve" smooth="yes"/>
      <point x="701" y="44"/>
      <point x="742" y="-12"/>
    </contour>
    <contour>
      <point x="818" y="43" type="curve" smooth="yes"/>
      <point x="780" y="43"/>
      <point x="761" y="76"/>
      <point x="761" y="145" type="curve" smooth="yes"/>
      <point x="761" y="220" type="line" smooth="yes"/>
      <point x="761" y="290"/>
      <point x="780" y="322"/>
      <point x="818" y="322" type="curve" smooth="yes"/>
      <point x="856" y="322"/>
      <point x="874" y="290"/>
      <point x="874" y="220" type="curve" smooth="yes"/>
      <point x="874" y="145" type="line" smooth="yes"/>
      <point x="874" y="76"/>
      <point x="856" y="43"/>
    </contour>
  </outline>
</glyph>
<glyph name="uni2032" format="2">
  <advance width="245"/>
  <unicode hex="2032"/>
  <outline>
    <contour>
      <point x="132" y="408" type="line"/>
      <point x="191" y="740" type="line"/>
      <point x="113" y="740" type="line"/>
      <point x="54" y="408" type="line"/>
    </contour>
  </outline>
</glyph>
<glyph name="uni2033" format="2">
  <advance width="432"/>
  <unicode hex="2033"/>
  <outline>
    <contour>
      <point x="319" y="408" type="line"/>
      <point x="378" y="740" type="line"/>
      <point x="302" y="740" type="line"/>
      <point x="243" y="408" type="line"/>
    </contour>
    <contour>
      <point x="130" y="408" type="line"/>
      <point x="190" y="740" type="line"/>
      <point x="114" y="740" type="line"/>
      <point x="54" y="408" type="line"/>
    </contour>
  </outline>
</glyph>
<glyph name="uni2035" format="2">
  <advance width="1000"/>
  <unicode hex="2035"/>
  <outline>
    <contour>
      <point x="423" y="758" type="line"/>
      <point x="363" y="757" type="line"/>
      <point x="521" y="414" type="line"/>
      <point x="558" y="416" type="line"/>
    </contour>
  </outline>
</glyph>
<glyph name="uni203B" format="2">
  <advance width="1000"/>
  <unicode hex="203B"/>
  <outline>
    <contour>
      <point x="500" y="355" type="line"/>
      <point x="835" y="21" type="line"/>
      <point x="862" y="49" type="line"/>
      <point x="528" y="383" type="line"/>
      <point x="862" y="716" type="line"/>
      <point x="834" y="744" type="line"/>
      <point x="500" y="411" type="line"/>
      <point x="166" y="744" type="line"/>
      <point x="138" y="716" type="line"/>
      <point x="472" y="383" type="line"/>
      <point x="138" y="49" type="line"/>
      <point x="165" y="21" type="line"/>
    </contour>
    <contour>
      <point x="218" y="338" type="curve" smooth="yes"/>
      <point x="243" y="338"/>
      <point x="263" y="358"/>
      <point x="263" y="383" type="curve" smooth="yes"/>
      <point x="263" y="407"/>
      <point x="243" y="427"/>
      <point x="218" y="427" type="curve" smooth="yes"/>
      <point x="193" y="427"/>
      <point x="174" y="407"/>
      <point x="174" y="383" type="curve" smooth="yes"/>
      <point x="174" y="358"/>
      <point x="193" y="338"/>
    </contour>
    <contour>
      <point x="500" y="56" type="curve" smooth="yes"/>
      <point x="525" y="56"/>
      <point x="545" y="76"/>
      <point x="545" y="101" type="curve" smooth="yes"/>
      <point x="545" y="125"/>
      <point x="525" y="145"/>
      <point x="500" y="145" type="curve" smooth="yes"/>
      <point x="475" y="145"/>
      <point x="456" y="125"/>
      <point x="456" y="101" type="curve" smooth="yes"/>
      <point x="456" y="76"/>
      <point x="475" y="56"/>
    </contour>
    <contour>
      <point x="500" y="620" type="curve" smooth="yes"/>
      <point x="525" y="620"/>
      <point x="545" y="640"/>
      <point x="545" y="665" type="curve" smooth="yes"/>
      <point x="545" y="689"/>
      <point x="525" y="709"/>
      <point x="500" y="709" type="curve" smooth="yes"/>
      <point x="475" y="709"/>
      <point x="456" y="689"/>
      <point x="456" y="665" type="curve" smooth="yes"/>
      <point x="456" y="640"/>
      <point x="475" y="620"/>
    </contour>
    <contour>
      <point x="782" y="338" type="curve" smooth="yes"/>
      <point x="807" y="338"/>
      <point x="826" y="358"/>
      <point x="826" y="383" type="curve" smooth="yes"/>
      <point x="826" y="407"/>
      <point x="807" y="427"/>
      <point x="782" y="427" type="curve" smooth="yes"/>
      <point x="757" y="427"/>
      <point x="737" y="407"/>
      <point x="737" y="383" type="curve" smooth="yes"/>
      <point x="737" y="358"/>
      <point x="757" y="338"/>
    </contour>
  </outline>
</glyph>
<glyph name="uni2105" format="2">
  <advance width="1000"/>
  <unicode hex="2105"/>
  <outline>
    <contour>
      <point x="253" y="331" type="curve" smooth="yes"/>
      <point x="321" y="331"/>
      <point x="371" y="363"/>
      <point x="398" y="428" type="curve"/>
      <point x="337" y="454" type="line"/>
      <point x="324" y="412"/>
      <point x="301" y="383"/>
      <point x="252" y="383" type="curve" smooth="yes"/>
      <point x="185" y="383"/>
      <point x="154" y="421"/>
      <point x="154" y="517" type="curve" smooth="yes"/>
      <point x="154" y="561" type="line" smooth="yes"/>
      <point x="154" y="648"/>
      <point x="177" y="693"/>
      <point x="252" y="693" type="curve" smooth="yes"/>
      <point x="297" y="693"/>
      <point x="322" y="669"/>
      <point x="334" y="627" type="curve"/>
      <point x="393" y="650" type="line"/>
      <point x="367" y="712"/>
      <point x="320" y="746"/>
      <point x="253" y="746" type="curve" smooth="yes"/>
      <point x="135" y="746"/>
      <point x="81" y="665"/>
      <point x="81" y="539" type="curve" smooth="yes"/>
      <point x="81" y="409"/>
      <point x="135" y="331"/>
    </contour>
    <contour>
      <point x="284" y="0" type="line"/>
      <point x="792" y="733" type="line"/>
      <point x="715" y="733" type="line"/>
      <point x="207" y="0" type="line"/>
    </contour>
    <contour>
      <point x="752" y="-13" type="curve" smooth="yes"/>
      <point x="857" y="-13"/>
      <point x="917" y="60"/>
      <point x="917" y="195" type="curve" smooth="yes"/>
      <point x="917" y="329"/>
      <point x="857" y="402"/>
      <point x="752" y="402" type="curve" smooth="yes"/>
      <point x="647" y="402"/>
      <point x="587" y="329"/>
      <point x="587" y="195" type="curve" smooth="yes"/>
      <point x="587" y="60"/>
      <point x="647" y="-13"/>
    </contour>
    <contour>
      <point x="752" y="39" type="curve" smooth="yes"/>
      <point x="689" y="39"/>
      <point x="659" y="81"/>
      <point x="659" y="163" type="curve" smooth="yes"/>
      <point x="659" y="226" type="line" smooth="yes"/>
      <point x="659" y="308"/>
      <point x="689" y="350"/>
      <point x="752" y="350" type="curve" smooth="yes"/>
      <point x="815" y="350"/>
      <point x="845" y="308"/>
      <point x="845" y="226" type="curve" smooth="yes"/>
      <point x="845" y="163" type="line" smooth="yes"/>
      <point x="845" y="81"/>
      <point x="815" y="39"/>
    </contour>
  </outline>
</glyph>
<glyph name="uni2109" format="2">
  <advance width="1000"/>
  <unicode hex="2109"/>
  <outline>
    <contour>
      <point x="213" y="461" type="curve" smooth="yes"/>
      <point x="292" y="461"/>
      <point x="353" y="522"/>
      <point x="353" y="604" type="curve" smooth="yes"/>
      <point x="353" y="685"/>
      <point x="292" y="747"/>
      <point x="213" y="747" type="curve" smooth="yes"/>
      <point x="134" y="747"/>
      <point x="73" y="685"/>
      <point x="73" y="604" type="curve" smooth="yes"/>
      <point x="73" y="522"/>
      <point x="134" y="461"/>
    </contour>
    <contour>
      <point x="213" y="510" type="curve" smooth="yes"/>
      <point x="160" y="510"/>
      <point x="126" y="551"/>
      <point x="126" y="604" type="curve" smooth="yes"/>
      <point x="126" y="656"/>
      <point x="160" y="698"/>
      <point x="213" y="698" type="curve" smooth="yes"/>
      <point x="266" y="698"/>
      <point x="300" y="656"/>
      <point x="300" y="604" type="curve" smooth="yes"/>
      <point x="300" y="551"/>
      <point x="266" y="510"/>
    </contour>
    <contour>
      <point x="562" y="335" type="line"/>
      <point x="882" y="335" type="line"/>
      <point x="882" y="409" type="line"/>
      <point x="562" y="409" type="line"/>
      <point x="562" y="659" type="line"/>
      <point x="911" y="659" type="line"/>
      <point x="911" y="733" type="line"/>
      <point x="478" y="733" type="line"/>
      <point x="478" y="0" type="line"/>
      <point x="562" y="0" type="line"/>
    </contour>
  </outline>
</glyph>
<glyph name="uni2122" format="2">
  <advance width="690"/>
  <unicode hex="2122"/>
  <outline>
    <contour>
      <point x="378" y="441" type="line"/>
      <point x="378" y="579" type="line"/>
      <point x="377" y="661" type="line"/>
      <point x="381" y="661" type="line"/>
      <point x="469" y="498" type="line"/>
      <point x="555" y="661" type="line"/>
      <point x="560" y="661" type="line"/>
      <point x="559" y="579" type="line"/>
      <point x="559" y="441" type="line"/>
      <point x="605" y="441" type="line"/>
      <point x="605" y="733" type="line"/>
      <point x="545" y="733" type="line"/>
      <point x="471" y="591" type="line"/>
      <point x="469" y="591" type="line"/>
      <point x="395" y="733" type="line"/>
      <point x="332" y="733" type="line"/>
      <point x="332" y="441" type="line"/>
    </contour>
    <contour>
      <point x="182" y="441" type="line"/>
      <point x="182" y="688" type="line"/>
      <point x="277" y="688" type="line"/>
      <point x="277" y="733" type="line"/>
      <point x="35" y="733" type="line"/>
      <point x="35" y="688" type="line"/>
      <point x="130" y="688" type="line"/>
      <point x="130" y="441" type="line"/>
    </contour>
  </outline>
</glyph>
<glyph name="uni2160" format="2">
  <advance width="1000"/>
  <unicode hex="2160"/>
  <outline>
    <contour>
      <point x="704" y="0" type="line"/>
      <point x="704" y="70" type="line"/>
      <point x="542" y="70" type="line"/>
      <point x="542" y="663" type="line"/>
      <point x="704" y="663" type="line"/>
      <point x="704" y="733" type="line"/>
      <point x="296" y="733" type="line"/>
      <point x="296" y="663" type="line"/>
      <point x="458" y="663" type="line"/>
      <point x="458" y="70" type="line"/>
      <point x="296" y="70" type="line"/>
      <point x="296" y="0" type="line"/>
    </contour>
  </outline>
</glyph>
<glyph name="uni2161" format="2">
  <advance width="1000"/>
  <unicode hex="2161"/>
  <outline>
    <contour>
      <point x="143" y="0" type="line"/>
      <point x="437" y="0" type="line"/>
      <point x="437" y="70" type="line"/>
      <point x="332" y="70" type="line"/>
      <point x="332" y="663" type="line"/>
      <point x="437" y="663" type="line"/>
      <point x="437" y="733" type="line"/>
      <point x="143" y="733" type="line"/>
      <point x="143" y="663" type="line"/>
      <point x="248" y="663" type="line"/>
      <point x="248" y="70" type="line"/>
      <point x="143" y="70" type="line"/>
    </contour>
    <contour>
      <point x="563" y="0" type="line"/>
      <point x="857" y="0" type="line"/>
      <point x="857" y="70" type="line"/>
      <point x="752" y="70" type="line"/>
      <point x="752" y="663" type="line"/>
      <point x="857" y="663" type="line"/>
      <point x="857" y="733" type="line"/>
      <point x="563" y="733" type="line"/>
      <point x="563" y="663" type="line"/>
      <point x="668" y="663" type="line"/>
      <point x="668" y="70" type="line"/>
      <point x="563" y="70" type="line"/>
    </contour>
  </outline>
</glyph>
<glyph name="uni2163" format="2">
  <advance width="1000"/>
  <unicode hex="2163"/>
  <outline>
    <contour>
      <point x="735" y="0" type="line"/>
      <point x="982" y="733" type="line"/>
      <point x="891" y="733" type="line"/>
      <point x="769" y="363" type="line"/>
      <point x="686" y="88" type="line"/>
      <point x="681" y="88" type="line"/>
      <point x="600" y="363" type="line"/>
      <point x="479" y="733" type="line"/>
      <point x="385" y="733" type="line"/>
      <point x="628" y="0" type="line"/>
    </contour>
    <contour>
      <point x="342" y="0" type="line"/>
      <point x="342" y="69" type="line"/>
      <point x="237" y="69" type="line"/>
      <point x="237" y="663" type="line"/>
      <point x="342" y="663" type="line"/>
      <point x="342" y="733" type="line"/>
      <point x="48" y="733" type="line"/>
      <point x="48" y="663" type="line"/>
      <point x="153" y="663" type="line"/>
      <point x="153" y="69" type="line"/>
      <point x="48" y="69" type="line"/>
      <point x="48" y="0" type="line"/>
    </contour>
  </outline>
</glyph>
<glyph name="uni2164" format="2">
  <advance width="1000"/>
  <unicode hex="2164"/>
  <outline>
    <contour>
      <point x="551" y="0" type="line"/>
      <point x="808" y="733" type="line"/>
      <point x="722" y="733" type="line"/>
      <point x="504" y="84" type="line"/>
      <point x="504" y="84" type="line"/>
      <point x="499" y="84" type="line"/>
      <point x="499" y="84" type="line"/>
      <point x="282" y="733" type="line"/>
      <point x="192" y="733" type="line"/>
      <point x="449" y="0" type="line"/>
    </contour>
  </outline>
</glyph>
<glyph name="uni2166" format="2">
  <advance width="1000"/>
  <unicode hex="2166"/>
  <outline>
    <contour>
      <point x="272" y="0" type="line"/>
      <point x="449" y="733" type="line"/>
      <point x="370" y="733" type="line"/>
      <point x="284" y="363" type="line"/>
      <point x="235" y="118" type="line"/>
      <point x="231" y="118" type="line"/>
      <point x="182" y="363" type="line"/>
      <point x="96" y="733" type="line"/>
      <point x="17" y="733" type="line"/>
      <point x="191" y="0" type="line"/>
    </contour>
    <contour>
      <point x="688" y="0" type="line"/>
      <point x="688" y="67" type="line"/>
      <point x="612" y="67" type="line"/>
      <point x="612" y="666" type="line"/>
      <point x="688" y="666" type="line"/>
      <point x="688" y="733" type="line"/>
      <point x="458" y="733" type="line"/>
      <point x="458" y="666" type="line"/>
      <point x="534" y="666" type="line"/>
      <point x="534" y="67" type="line"/>
      <point x="458" y="67" type="line"/>
      <point x="458" y="0" type="line"/>
    </contour>
    <contour>
      <point x="964" y="0" type="line"/>
      <point x="964" y="67" type="line"/>
      <point x="888" y="67" type="line"/>
      <point x="888" y="666" type="line"/>
      <point x="964" y="666" type="line"/>
      <point x="964" y="733" type="line"/>
      <point x="734" y="733" type="line"/>
      <point x="734" y="666" type="line"/>
      <point x="810" y="666" type="line"/>
      <point x="810" y="67" type="line"/>
      <point x="734" y="67" type="line"/>
      <point x="734" y="0" type="line"/>
    </contour>
  </outline>
</glyph>
<glyph name="uni2167" format="2">
  <advance width="1000"/>
  <unicode hex="2167"/>
  <outline>
    <contour>
      <point x="203" y="0" type="line"/>
      <point x="325" y="733" type="line"/>
      <point x="253" y="733" type="line"/>
      <point x="195" y="363" type="line"/>
      <point x="171" y="148" type="line"/>
      <point x="168" y="148" type="line"/>
      <point x="143" y="363" type="line"/>
      <point x="86" y="733" type="line"/>
      <point x="13" y="733" type="line"/>
      <point x="133" y="0" type="line"/>
    </contour>
    <contour>
      <point x="528" y="0" type="line"/>
      <point x="528" y="61" type="line"/>
      <point x="472" y="61" type="line"/>
      <point x="472" y="672" type="line"/>
      <point x="528" y="672" type="line"/>
      <point x="528" y="733" type="line"/>
      <point x="342" y="733" type="line"/>
      <point x="342" y="672" type="line"/>
      <point x="398" y="672" type="line"/>
      <point x="398" y="61" type="line"/>
      <point x="342" y="61" type="line"/>
      <point x="342" y="0" type="line"/>
    </contour>
    <contour>
      <point x="751" y="0" type="line"/>
      <point x="751" y="61" type="line"/>
      <point x="695" y="61" type="line"/>
      <point x="695" y="672" type="line"/>
      <point x="751" y="672" type="line"/>
      <point x="751" y="733" type="line"/>
      <point x="565" y="733" type="line"/>
      <point x="565" y="672" type="line"/>
      <point x="621" y="672" type="line"/>
      <point x="621" y="61" type="line"/>
      <point x="565" y="61" type="line"/>
      <point x="565" y="0" type="line"/>
    </contour>
    <contour>
      <point x="974" y="0" type="line"/>
      <point x="974" y="61" type="line"/>
      <point x="918" y="61" type="line"/>
      <point x="918" y="672" type="line"/>
      <point x="974" y="672" type="line"/>
      <point x="974" y="733" type="line"/>
      <point x="788" y="733" type="line"/>
      <point x="788" y="672" type="line"/>
      <point x="844" y="672" type="line"/>
      <point x="844" y="61" type="line"/>
      <point x="788" y="61" type="line"/>
      <point x="788" y="0" type="line"/>
    </contour>
  </outline>
</glyph>
<glyph name="uni2169" format="2">
  <advance width="1000"/>
  <unicode hex="2169"/>
  <outline>
    <contour>
      <point x="293" y="0" type="line"/>
      <point x="497" y="307" type="line"/>
      <point x="499" y="307" type="line"/>
      <point x="702" y="0" type="line"/>
      <point x="803" y="0" type="line"/>
      <point x="549" y="376" type="line"/>
      <point x="798" y="733" type="line"/>
      <point x="702" y="733" type="line"/>
      <point x="502" y="442" type="line"/>
      <point x="500" y="442" type="line"/>
      <point x="308" y="733" type="line"/>
      <point x="207" y="733" type="line"/>
      <point x="451" y="373" type="line"/>
      <point x="197" y="0" type="line"/>
    </contour>
  </outline>
</glyph>
<glyph name="uni216A" format="2">
  <advance width="1000"/>
  <unicode hex="216A"/>
  <outline>
    <contour>
      <point x="119" y="0" type="line"/>
      <point x="311" y="308" type="line"/>
      <point x="313" y="308" type="line"/>
      <point x="505" y="0" type="line"/>
      <point x="611" y="0" type="line"/>
      <point x="370" y="376" type="line"/>
      <point x="605" y="733" type="line"/>
      <point x="504" y="733" type="line"/>
      <point x="316" y="441" type="line"/>
      <point x="314" y="441" type="line"/>
      <point x="131" y="733" type="line"/>
      <point x="25" y="733" type="line"/>
      <point x="258" y="373" type="line"/>
      <point x="18" y="0" type="line"/>
    </contour>
    <contour>
      <point x="952" y="0" type="line"/>
      <point x="952" y="69" type="line"/>
      <point x="847" y="69" type="line"/>
      <point x="847" y="663" type="line"/>
      <point x="952" y="663" type="line"/>
      <point x="952" y="733" type="line"/>
      <point x="658" y="733" type="line"/>
      <point x="658" y="663" type="line"/>
      <point x="763" y="663" type="line"/>
      <point x="763" y="69" type="line"/>
      <point x="658" y="69" type="line"/>
      <point x="658" y="0" type="line"/>
    </contour>
  </outline>
</glyph>
<glyph name="uni216B" format="2">
  <advance width="1000"/>
  <unicode hex="216B"/>
  <outline>
    <contour>
      <point x="103" y="0" type="line"/>
      <point x="231" y="310" type="line"/>
      <point x="234" y="310" type="line"/>
      <point x="362" y="0" type="line"/>
      <point x="449" y="0" type="line"/>
      <point x="287" y="376" type="line"/>
      <point x="445" y="733" type="line"/>
      <point x="360" y="733" type="line"/>
      <point x="235" y="439" type="line"/>
      <point x="232" y="439" type="line"/>
      <point x="110" y="733" type="line"/>
      <point x="23" y="733" type="line"/>
      <point x="180" y="373" type="line"/>
      <point x="18" y="0" type="line"/>
    </contour>
    <contour>
      <point x="688" y="0" type="line"/>
      <point x="688" y="67" type="line"/>
      <point x="612" y="67" type="line"/>
      <point x="612" y="666" type="line"/>
      <point x="688" y="666" type="line"/>
      <point x="688" y="733" type="line"/>
      <point x="458" y="733" type="line"/>
      <point x="458" y="666" type="line"/>
      <point x="534" y="666" type="line"/>
      <point x="534" y="67" type="line"/>
      <point x="458" y="67" type="line"/>
      <point x="458" y="0" type="line"/>
    </contour>
    <contour>
      <point x="964" y="0" type="line"/>
      <point x="964" y="67" type="line"/>
      <point x="888" y="67" type="line"/>
      <point x="888" y="666" type="line"/>
      <point x="964" y="666" type="line"/>
      <point x="964" y="733" type="line"/>
      <point x="734" y="733" type="line"/>
      <point x="734" y="666" type="line"/>
      <point x="810" y="666" type="line"/>
      <point x="810" y="67" type="line"/>
      <point x="734" y="67" type="line"/>
      <point x="734" y="0" type="line"/>
    </contour>
  </outline>
</glyph>
<glyph name="uni2175" format="2">
  <advance width="1000"/>
  <unicode hex="2175"/>
  <outline>
    <contour>
      <point x="418" y="0" type="line"/>
      <point x="609" y="542" type="line"/>
      <point x="532" y="542" type="line"/>
      <point x="428" y="242" type="line"/>
      <point x="374" y="88" type="line"/>
      <point x="369" y="88" type="line"/>
      <point x="317" y="242" type="line"/>
      <point x="214" y="542" type="line"/>
      <point x="134" y="542" type="line"/>
      <point x="325" y="0" type="line"/>
    </contour>
    <contour>
      <point x="815" y="0" type="line"/>
      <point x="815" y="542" type="line"/>
      <point x="735" y="542" type="line"/>
      <point x="735" y="0" type="line"/>
    </contour>
    <contour>
      <point x="776" y="672" type="curve" smooth="yes"/>
      <point x="810" y="672"/>
      <point x="825" y="690"/>
      <point x="825" y="717" type="curve" smooth="yes"/>
      <point x="825" y="730" type="line" smooth="yes"/>
      <point x="825" y="757"/>
      <point x="810" y="775"/>
      <point x="776" y="775" type="curve" smooth="yes"/>
      <point x="742" y="775"/>
      <point x="727" y="757"/>
      <point x="727" y="730" type="curve" smooth="yes"/>
      <point x="727" y="717" type="line" smooth="yes"/>
      <point x="727" y="690"/>
      <point x="742" y="672"/>
    </contour>
  </outline>
</glyph>
<glyph name="uni2176" format="2">
  <advance width="1000"/>
  <unicode hex="2176"/>
  <outline>
    <contour>
      <point x="340" y="0" type="line"/>
      <point x="531" y="542" type="line"/>
      <point x="450" y="542" type="line"/>
      <point x="353" y="273" type="line"/>
      <point x="294" y="88" type="line"/>
      <point x="289" y="88" type="line"/>
      <point x="230" y="273" type="line"/>
      <point x="136" y="542" type="line"/>
      <point x="52" y="542" type="line"/>
      <point x="242" y="0" type="line"/>
    </contour>
    <contour>
      <point x="674" y="0" type="line"/>
      <point x="674" y="542" type="line"/>
      <point x="590" y="542" type="line"/>
      <point x="590" y="0" type="line"/>
    </contour>
    <contour>
      <point x="903" y="0" type="line"/>
      <point x="903" y="542" type="line"/>
      <point x="819" y="542" type="line"/>
      <point x="819" y="0" type="line"/>
    </contour>
    <contour>
      <point x="632" y="669" type="curve" smooth="yes"/>
      <point x="668" y="669"/>
      <point x="684" y="688"/>
      <point x="684" y="716" type="curve" smooth="yes"/>
      <point x="684" y="730" type="line" smooth="yes"/>
      <point x="684" y="758"/>
      <point x="668" y="777"/>
      <point x="632" y="777" type="curve" smooth="yes"/>
      <point x="597" y="777"/>
      <point x="581" y="758"/>
      <point x="581" y="730" type="curve" smooth="yes"/>
      <point x="581" y="716" type="line" smooth="yes"/>
      <point x="581" y="688"/>
      <point x="597" y="669"/>
    </contour>
    <contour>
      <point x="861" y="669" type="curve" smooth="yes"/>
      <point x="897" y="669"/>
      <point x="913" y="688"/>
      <point x="913" y="716" type="curve" smooth="yes"/>
      <point x="913" y="730" type="line" smooth="yes"/>
      <point x="913" y="758"/>
      <point x="897" y="777"/>
      <point x="861" y="777" type="curve" smooth="yes"/>
      <point x="826" y="777"/>
      <point x="810" y="758"/>
      <point x="810" y="730" type="curve" smooth="yes"/>
      <point x="810" y="716" type="line" smooth="yes"/>
      <point x="810" y="688"/>
      <point x="826" y="669"/>
    </contour>
  </outline>
</glyph>
<glyph name="uni2178" format="2">
  <advance width="1000"/>
  <unicode hex="2178"/>
  <outline>
    <contour>
      <point x="476" y="0" type="line"/>
      <point x="628" y="212" type="line"/>
      <point x="631" y="212" type="line"/>
      <point x="772" y="0" type="line"/>
      <point x="866" y="0" type="line"/>
      <point x="671" y="279" type="line"/>
      <point x="862" y="542" type="line"/>
      <point x="773" y="542" type="line"/>
      <point x="630" y="340" type="line"/>
      <point x="627" y="340" type="line"/>
      <point x="489" y="542" type="line"/>
      <point x="395" y="542" type="line"/>
      <point x="588" y="273" type="line"/>
      <point x="387" y="0" type="line"/>
    </contour>
    <contour>
      <point x="264" y="0" type="line"/>
      <point x="264" y="542" type="line"/>
      <point x="184" y="542" type="line"/>
      <point x="184" y="0" type="line"/>
    </contour>
    <contour>
      <point x="225" y="672" type="curve" smooth="yes"/>
      <point x="259" y="672"/>
      <point x="274" y="690"/>
      <point x="274" y="717" type="curve" smooth="yes"/>
      <point x="274" y="730" type="line" smooth="yes"/>
      <point x="274" y="757"/>
      <point x="259" y="775"/>
      <point x="225" y="775" type="curve" smooth="yes"/>
      <point x="191" y="775"/>
      <point x="176" y="757"/>
      <point x="176" y="730" type="curve" smooth="yes"/>
      <point x="176" y="717" type="line" smooth="yes"/>
      <point x="176" y="690"/>
      <point x="191" y="672"/>
    </contour>
  </outline>
</glyph>
<glyph name="uni2191" format="2">
  <advance width="1000"/>
  <unicode hex="2191"/>
  <outline>
    <contour>
      <point x="500" y="753" type="line"/>
      <point x="283" y="536" type="line"/>
      <point x="331" y="487" type="line"/>
      <point x="427" y="584" type="line"/>
      <point x="469" y="634" type="line"/>
      <point x="472" y="633" type="line"/>
      <point x="466" y="536" type="line"/>
      <point x="466" y="10" type="line"/>
      <point x="534" y="10" type="line"/>
      <point x="534" y="536" type="line"/>
      <point x="528" y="633" type="line"/>
      <point x="531" y="634" type="line"/>
      <point x="573" y="584" type="line"/>
      <point x="669" y="487" type="line"/>
      <point x="717" y="536" type="line"/>
    </contour>
  </outline>
</glyph>
<glyph name="uni2197" format="2">
  <advance width="1000"/>
  <unicode hex="2197"/>
  <outline>
    <contour>
      <point x="645" y="496" type="line"/>
      <point x="699" y="554" type="line"/>
      <point x="702" y="552" type="line"/>
      <point x="698" y="485" type="line"/>
      <point x="698" y="345" type="line"/>
      <point x="759" y="345" type="line"/>
      <point x="759" y="655" type="line"/>
      <point x="449" y="655" type="line"/>
      <point x="449" y="595" type="line"/>
      <point x="589" y="595" type="line"/>
      <point x="655" y="598" type="line"/>
      <point x="657" y="596" type="line"/>
      <point x="599" y="542" type="line"/>
      <point x="208" y="150" type="line"/>
      <point x="253" y="105" type="line"/>
    </contour>
  </outline>
</glyph>
<glyph name="uni2198" format="2">
  <advance width="1000"/>
  <unicode hex="2198"/>
  <outline>
    <contour>
      <point x="759" y="113" type="line"/>
      <point x="759" y="423" type="line"/>
      <point x="698" y="423" type="line"/>
      <point x="698" y="283" type="line"/>
      <point x="702" y="216" type="line"/>
      <point x="699" y="214" type="line"/>
      <point x="645" y="272" type="line"/>
      <point x="253" y="663" type="line"/>
      <point x="208" y="618" type="line"/>
      <point x="599" y="226" type="line"/>
      <point x="657" y="172" type="line"/>
      <point x="655" y="170" type="line"/>
      <point x="589" y="173" type="line"/>
      <point x="449" y="173" type="line"/>
      <point x="449" y="113" type="line"/>
    </contour>
  </outline>
</glyph>
<glyph name="uni2199" format="2">
  <advance width="1000"/>
  <unicode hex="2199"/>
  <outline>
    <contour>
      <point x="551" y="113" type="line"/>
      <point x="551" y="173" type="line"/>
      <point x="411" y="173" type="line"/>
      <point x="345" y="170" type="line"/>
      <point x="343" y="172" type="line"/>
      <point x="401" y="226" type="line"/>
      <point x="792" y="618" type="line"/>
      <point x="747" y="663" type="line"/>
      <point x="355" y="272" type="line"/>
      <point x="301" y="214" type="line"/>
      <point x="298" y="216" type="line"/>
      <point x="302" y="283" type="line"/>
      <point x="302" y="423" type="line"/>
      <point x="241" y="423" type="line"/>
      <point x="241" y="113" type="line"/>
    </contour>
  </outline>
</glyph>
<glyph name="uni21A9" format="2">
  <advance width="1000"/>
  <unicode hex="21A9"/>
  <outline>
    <contour>
      <point x="395" y="150" type="line"/>
      <point x="301" y="242" type="line"/>
      <point x="247" y="288" type="line"/>
      <point x="248" y="291" type="line"/>
      <point x="355" y="284" type="line"/>
      <point x="657" y="284" type="line" smooth="yes"/>
      <point x="773" y="284"/>
      <point x="873" y="349"/>
      <point x="873" y="478" type="curve" smooth="yes"/>
      <point x="873" y="608"/>
      <point x="773" y="673"/>
      <point x="657" y="673" type="curve"/>
      <point x="657" y="605" type="line"/>
      <point x="732" y="605"/>
      <point x="799" y="567"/>
      <point x="799" y="478" type="curve" smooth="yes"/>
      <point x="799" y="390"/>
      <point x="732" y="352"/>
      <point x="657" y="352" type="curve" smooth="yes"/>
      <point x="355" y="352" type="line"/>
      <point x="248" y="347" type="line"/>
      <point x="247" y="350" type="line"/>
      <point x="301" y="395" type="line"/>
      <point x="395" y="487" type="line"/>
      <point x="347" y="536" type="line"/>
      <point x="127" y="319" type="line"/>
      <point x="347" y="101" type="line"/>
    </contour>
  </outline>
</glyph>
<glyph name="uni21B0" format="2">
  <advance width="1000"/>
  <unicode hex="21B0"/>
  <outline>
    <contour>
      <point x="712" y="14" type="line"/>
      <point x="712" y="572" type="line"/>
      <point x="418" y="572" type="line"/>
      <point x="313" y="566" type="line"/>
      <point x="312" y="569" type="line"/>
      <point x="366" y="616" type="line"/>
      <point x="457" y="706" type="line"/>
      <point x="409" y="755" type="line"/>
      <point x="192" y="537" type="line"/>
      <point x="409" y="320" type="line"/>
      <point x="457" y="368" type="line"/>
      <point x="366" y="459" type="line"/>
      <point x="312" y="507" type="line"/>
      <point x="313" y="510" type="line"/>
      <point x="418" y="504" type="line"/>
      <point x="644" y="504" type="line"/>
      <point x="644" y="14" type="line"/>
    </contour>
  </outline>
</glyph>
<glyph name="uni21B2" format="2">
  <advance width="1000"/>
  <unicode hex="21B2"/>
  <outline>
    <contour>
      <point x="463" y="53" type="line"/>
      <point x="372" y="143" type="line"/>
      <point x="318" y="190" type="line"/>
      <point x="319" y="193" type="line"/>
      <point x="424" y="187" type="line"/>
      <point x="718" y="187" type="line"/>
      <point x="718" y="745" type="line"/>
      <point x="650" y="745" type="line"/>
      <point x="650" y="255" type="line"/>
      <point x="424" y="255" type="line"/>
      <point x="319" y="249" type="line"/>
      <point x="318" y="252" type="line"/>
      <point x="372" y="300" type="line"/>
      <point x="463" y="391" type="line"/>
      <point x="415" y="439" type="line"/>
      <point x="198" y="222" type="line"/>
      <point x="415" y="4" type="line"/>
    </contour>
  </outline>
</glyph>
<glyph name="uni21B3" format="2">
  <advance width="1000"/>
  <unicode hex="21B3"/>
  <outline>
    <contour>
      <point x="802" y="222" type="line"/>
      <point x="585" y="439" type="line"/>
      <point x="537" y="391" type="line"/>
      <point x="628" y="300" type="line"/>
      <point x="682" y="252" type="line"/>
      <point x="681" y="249" type="line"/>
      <point x="576" y="255" type="line"/>
      <point x="350" y="255" type="line"/>
      <point x="350" y="745" type="line"/>
      <point x="282" y="745" type="line"/>
      <point x="282" y="187" type="line"/>
      <point x="576" y="187" type="line"/>
      <point x="681" y="193" type="line"/>
      <point x="682" y="190" type="line"/>
      <point x="628" y="143" type="line"/>
      <point x="537" y="53" type="line"/>
      <point x="585" y="4" type="line"/>
    </contour>
  </outline>
</glyph>
<glyph name="uni21B7" format="2">
  <advance width="1000"/>
  <unicode hex="21B7"/>
  <outline>
    <contour>
      <point x="915" y="280" type="line"/>
      <point x="866" y="328" type="line"/>
      <point x="772" y="232" type="line"/>
      <point x="730" y="182" type="line"/>
      <point x="727" y="183" type="line"/>
      <point x="733" y="291" type="line"/>
      <point x="733" y="345" type="line" smooth="yes"/>
      <point x="733" y="539"/>
      <point x="624" y="705"/>
      <point x="409" y="705" type="curve" smooth="yes"/>
      <point x="193" y="705"/>
      <point x="84" y="539"/>
      <point x="84" y="345" type="curve"/>
      <point x="152" y="345" type="line"/>
      <point x="152" y="499"/>
      <point x="228" y="641"/>
      <point x="409" y="641" type="curve" smooth="yes"/>
      <point x="588" y="641"/>
      <point x="665" y="499"/>
      <point x="665" y="345" type="curve" smooth="yes"/>
      <point x="665" y="291" type="line"/>
      <point x="671" y="183" type="line"/>
      <point x="668" y="182" type="line"/>
      <point x="626" y="232" type="line"/>
      <point x="532" y="328" type="line"/>
      <point x="483" y="280" type="line"/>
      <point x="699" y="63" type="line"/>
    </contour>
  </outline>
</glyph>
<glyph name="uni21BA" format="2">
  <advance width="1000"/>
  <unicode hex="21BA"/>
  <outline>
    <contour>
      <point x="504" y="5" type="curve" smooth="yes"/>
      <point x="688" y="5"/>
      <point x="836" y="145"/>
      <point x="836" y="319" type="curve" smooth="yes"/>
      <point x="836" y="484"/>
      <point x="729" y="563"/>
      <point x="647" y="631" type="curve" smooth="yes"/>
      <point x="593" y="676" type="line"/>
      <point x="594" y="680" type="line"/>
      <point x="672" y="675" type="line"/>
      <point x="792" y="675" type="line"/>
      <point x="792" y="743" type="line"/>
      <point x="484" y="743" type="line"/>
      <point x="484" y="435" type="line"/>
      <point x="552" y="435" type="line"/>
      <point x="552" y="555" type="line"/>
      <point x="547" y="630" type="line"/>
      <point x="551" y="631" type="line"/>
      <point x="608" y="583" type="line" smooth="yes"/>
      <point x="701" y="505"/>
      <point x="768" y="448"/>
      <point x="768" y="319" type="curve" smooth="yes"/>
      <point x="768" y="179"/>
      <point x="652" y="69"/>
      <point x="504" y="69" type="curve" smooth="yes"/>
      <point x="354" y="69"/>
      <point x="231" y="170"/>
      <point x="231" y="328" type="curve" smooth="yes"/>
      <point x="231" y="446"/>
      <point x="287" y="522"/>
      <point x="381" y="583" type="curve"/>
      <point x="346" y="634" type="line"/>
      <point x="239" y="569"/>
      <point x="163" y="460"/>
      <point x="163" y="328" type="curve" smooth="yes"/>
      <point x="163" y="141"/>
      <point x="314" y="5"/>
    </contour>
  </outline>
</glyph>
<glyph name="uni220F" format="2">
  <advance width="1000"/>
  <unicode hex="220F"/>
  <outline>
    <contour>
      <point x="359" y="-69" type="line"/>
      <point x="359" y="755" type="line"/>
      <point x="641" y="755" type="line"/>
      <point x="641" y="-69" type="line"/>
      <point x="725" y="-69" type="line"/>
      <point x="725" y="755" type="line"/>
      <point x="805" y="755" type="line"/>
      <point x="805" y="829" type="line"/>
      <point x="195" y="829" type="line"/>
      <point x="195" y="755" type="line"/>
      <point x="275" y="755" type="line"/>
      <point x="275" y="-69" type="line"/>
    </contour>
  </outline>
</glyph>
<glyph name="uni2211" format="2">
  <advance width="1000"/>
  <unicode hex="2211"/>
  <outline>
    <contour>
      <point x="718" y="-69" type="line"/>
      <point x="718" y="5" type="line"/>
      <point x="359" y="5" type="line"/>
      <point x="603" y="353" type="line"/>
      <point x="603" y="407" type="line"/>
      <point x="359" y="755" type="line"/>
      <point x="718" y="755" type="line"/>
      <point x="718" y="829" type="line"/>
      <point x="268" y="829" type="line"/>
      <point x="268" y="754" type="line"/>
      <point x="529" y="382" type="line"/>
      <point x="529" y="378" type="line"/>
      <point x="268" y="6" type="line"/>
      <point x="268" y="-69" type="line"/>
    </contour>
  </outline>
</glyph>
<glyph name="uni2215" format="2">
  <advance width="442"/>
  <unicode hex="2215"/>
  <outline>
    <contour>
      <point x="89" y="-82" type="line"/>
      <point x="418" y="842" type="line"/>
      <point x="354" y="842" type="line"/>
      <point x="24" y="-82" type="line"/>
    </contour>
  </outline>
</glyph>
<glyph name="uni221D" format="2">
  <advance width="1000"/>
  <unicode hex="221D"/>
  <outline>
    <contour>
      <point x="335" y="191" type="curve" smooth="yes"/>
      <point x="409" y="191"/>
      <point x="484" y="239"/>
      <point x="498" y="338" type="curve"/>
      <point x="502" y="338" type="line"/>
      <point x="531" y="240"/>
      <point x="603" y="191"/>
      <point x="689" y="191" type="curve" smooth="yes"/>
      <point x="765" y="191"/>
      <point x="819" y="223"/>
      <point x="849" y="274" type="curve"/>
      <point x="789" y="305" type="line"/>
      <point x="767" y="271"/>
      <point x="733" y="254"/>
      <point x="684" y="254" type="curve" smooth="yes"/>
      <point x="623" y="254"/>
      <point x="569" y="300"/>
      <point x="542" y="386" type="curve"/>
      <point x="566" y="462"/>
      <point x="625" y="508"/>
      <point x="683" y="508" type="curve" smooth="yes"/>
      <point x="733" y="508"/>
      <point x="766" y="489"/>
      <point x="788" y="457" type="curve"/>
      <point x="848" y="488" type="line"/>
      <point x="818" y="539"/>
      <point x="764" y="571"/>
      <point x="689" y="571" type="curve" smooth="yes"/>
      <point x="615" y="571"/>
      <point x="539" y="523"/>
      <point x="526" y="424" type="curve"/>
      <point x="522" y="424" type="line"/>
      <point x="494" y="522"/>
      <point x="421" y="571"/>
      <point x="335" y="571" type="curve" smooth="yes"/>
      <point x="215" y="571"/>
      <point x="149" y="501"/>
      <point x="149" y="381" type="curve" smooth="yes"/>
      <point x="149" y="262"/>
      <point x="215" y="191"/>
    </contour>
    <contour>
      <point x="334" y="254" type="curve" smooth="yes"/>
      <point x="267" y="254"/>
      <point x="221" y="294"/>
      <point x="221" y="367" type="curve" smooth="yes"/>
      <point x="221" y="395" type="line" smooth="yes"/>
      <point x="221" y="469"/>
      <point x="267" y="509"/>
      <point x="334" y="509" type="curve" smooth="yes"/>
      <point x="399" y="509"/>
      <point x="455" y="461"/>
      <point x="481" y="376" type="curve"/>
      <point x="457" y="300"/>
      <point x="399" y="254"/>
    </contour>
  </outline>
</glyph>
<glyph name="uni221F" format="2">
  <advance width="1000"/>
  <unicode hex="221F"/>
  <outline>
    <contour>
      <point x="830" y="57" type="line"/>
      <point x="830" y="124" type="line"/>
      <point x="283" y="124" type="line"/>
      <point x="283" y="696" type="line"/>
      <point x="212" y="696" type="line"/>
      <point x="212" y="57" type="line"/>
    </contour>
  </outline>
</glyph>
<glyph name="uni2223" format="2">
  <advance width="1000"/>
  <unicode hex="2223"/>
  <outline>
    <contour>
      <point x="515" y="-120" type="line"/>
      <point x="515" y="880" type="line"/>
      <point x="485" y="880" type="line"/>
      <point x="485" y="-120" type="line"/>
    </contour>
  </outline>
</glyph>
<glyph name="uni2228" format="2">
  <advance width="1000"/>
  <unicode hex="2228"/>
  <outline>
    <contour>
      <point x="544" y="34" type="line"/>
      <point x="825" y="729" type="line"/>
      <point x="745" y="729" type="line"/>
      <point x="501" y="109" type="line"/>
      <point x="497" y="109" type="line"/>
      <point x="254" y="729" type="line"/>
      <point x="175" y="729" type="line"/>
      <point x="453" y="34" type="line"/>
    </contour>
  </outline>
</glyph>
<glyph name="uni2229" format="2">
  <advance width="1000"/>
  <unicode hex="2229"/>
  <outline>
    <contour>
      <point x="334" y="459" type="line" smooth="yes"/>
      <point x="334" y="605"/>
      <point x="376" y="664"/>
      <point x="500" y="664" type="curve" smooth="yes"/>
      <point x="624" y="664"/>
      <point x="666" y="605"/>
      <point x="666" y="459" type="curve" smooth="yes"/>
      <point x="666" y="30" type="line"/>
      <point x="749" y="30" type="line"/>
      <point x="749" y="450" type="line" smooth="yes"/>
      <point x="749" y="657"/>
      <point x="683" y="740"/>
      <point x="500" y="740" type="curve" smooth="yes"/>
      <point x="317" y="740"/>
      <point x="251" y="657"/>
      <point x="251" y="450" type="curve" smooth="yes"/>
      <point x="251" y="30" type="line"/>
      <point x="334" y="30" type="line"/>
    </contour>
  </outline>
</glyph>
<glyph name="uni222B" format="2">
  <advance width="1000"/>
  <unicode hex="222B"/>
  <outline>
    <contour>
      <point x="346" y="-89" type="line"/>
      <point x="452" y="-89" type="line" smooth="yes"/>
      <point x="510" y="-89"/>
      <point x="538" y="-57"/>
      <point x="538" y="-7" type="curve" smooth="yes"/>
      <point x="538" y="790" type="line"/>
      <point x="654" y="790" type="line"/>
      <point x="654" y="851" type="line"/>
      <point x="547" y="851" type="line" smooth="yes"/>
      <point x="489" y="851"/>
      <point x="462" y="818"/>
      <point x="462" y="769" type="curve" smooth="yes"/>
      <point x="462" y="-29" type="line"/>
      <point x="346" y="-29" type="line"/>
    </contour>
  </outline>
</glyph>
<glyph name="uni2235" format="2">
  <advance width="1000"/>
  <unicode hex="2235"/>
  <outline>
    <contour>
      <point x="712" y="460" type="curve" smooth="yes"/>
      <point x="772" y="460"/>
      <point x="800" y="494"/>
      <point x="800" y="540" type="curve" smooth="yes"/>
      <point x="800" y="560" type="line" smooth="yes"/>
      <point x="800" y="606"/>
      <point x="772" y="640"/>
      <point x="712" y="640" type="curve" smooth="yes"/>
      <point x="652" y="640"/>
      <point x="624" y="606"/>
      <point x="624" y="560" type="curve" smooth="yes"/>
      <point x="624" y="540" type="line" smooth="yes"/>
      <point x="624" y="494"/>
      <point x="652" y="460"/>
    </contour>
    <contour>
      <point x="500" y="120" type="curve" smooth="yes"/>
      <point x="560" y="120"/>
      <point x="588" y="154"/>
      <point x="588" y="200" type="curve" smooth="yes"/>
      <point x="588" y="220" type="line" smooth="yes"/>
      <point x="588" y="266"/>
      <point x="560" y="300"/>
      <point x="500" y="300" type="curve" smooth="yes"/>
      <point x="440" y="300"/>
      <point x="412" y="266"/>
      <point x="412" y="220" type="curve" smooth="yes"/>
      <point x="412" y="200" type="line" smooth="yes"/>
      <point x="412" y="154"/>
      <point x="440" y="120"/>
    </contour>
    <contour>
      <point x="288" y="460" type="curve" smooth="yes"/>
      <point x="348" y="460"/>
      <point x="376" y="494"/>
      <point x="376" y="540" type="curve" smooth="yes"/>
      <point x="376" y="560" type="line" smooth="yes"/>
      <point x="376" y="606"/>
      <point x="348" y="640"/>
      <point x="288" y="640" type="curve" smooth="yes"/>
      <point x="228" y="640"/>
      <point x="200" y="606"/>
      <point x="200" y="560" type="curve" smooth="yes"/>
      <point x="200" y="540" type="line" smooth="yes"/>
      <point x="200" y="494"/>
      <point x="228" y="460"/>
    </contour>
  </outline>
</glyph>
<glyph name="uni2236" format="2">
  <advance width="636"/>
  <unicode hex="2236"/>
  <outline>
    <contour>
      <point x="273" y="500" type="curve"/>
      <point x="284" y="471"/>
      <point x="305" y="462"/>
      <point x="328" y="471" type="curve" smooth="yes"/>
      <point x="338" y="475" type="line"/>
      <point x="360" y="485"/>
      <point x="372" y="503"/>
      <point x="362" y="533" type="curve"/>
      <point x="351" y="562"/>
      <point x="330" y="571"/>
      <point x="307" y="562" type="curve" smooth="yes"/>
      <point x="297" y="558" type="line"/>
      <point x="275" y="548"/>
      <point x="263" y="530"/>
    </contour>
    <contour>
      <point x="273" y="162" type="curve" smooth="yes"/>
      <point x="284" y="132"/>
      <point x="305" y="124"/>
      <point x="328" y="133" type="curve" smooth="yes"/>
      <point x="338" y="137" type="line" smooth="yes"/>
      <point x="360" y="146"/>
      <point x="372" y="165"/>
      <point x="362" y="194" type="curve" smooth="yes"/>
      <point x="351" y="224"/>
      <point x="330" y="232"/>
      <point x="307" y="223" type="curve" smooth="yes"/>
      <point x="297" y="219" type="line" smooth="yes"/>
      <point x="275" y="210"/>
      <point x="263" y="191"/>
    </contour>
  </outline>
</glyph>
<glyph name="uni223D" format="2">
  <advance width="1000"/>
  <unicode hex="223D"/>
  <outline>
    <contour>
      <point x="472" y="397" type="curve" smooth="yes"/>
      <point x="436" y="320"/>
      <point x="396" y="255"/>
      <point x="325" y="255" type="curve" smooth="yes"/>
      <point x="259" y="255"/>
      <point x="216" y="292"/>
      <point x="216" y="367" type="curve" smooth="yes"/>
      <point x="216" y="395" type="line" smooth="yes"/>
      <point x="216" y="467"/>
      <point x="259" y="509"/>
      <point x="325" y="509" type="curve" smooth="yes"/>
      <point x="361" y="509"/>
      <point x="394" y="496"/>
      <point x="421" y="469" type="curve"/>
      <point x="455" y="509" type="line"/>
      <point x="423" y="550"/>
      <point x="374" y="574"/>
      <point x="326" y="574" type="curve" smooth="yes"/>
      <point x="212" y="574"/>
      <point x="143" y="505"/>
      <point x="143" y="381" type="curve" smooth="yes"/>
      <point x="143" y="262"/>
      <point x="207" y="188"/>
      <point x="326" y="188" type="curve" smooth="yes"/>
      <point x="421" y="188"/>
      <point x="485" y="262"/>
      <point x="539" y="383" type="curve"/>
      <point x="575" y="458"/>
      <point x="606" y="508"/>
      <point x="676" y="508" type="curve" smooth="yes"/>
      <point x="742" y="508"/>
      <point x="784" y="471"/>
      <point x="784" y="395" type="curve" smooth="yes"/>
      <point x="784" y="367" type="line" smooth="yes"/>
      <point x="784" y="292"/>
      <point x="742" y="254"/>
      <point x="676" y="254" type="curve" smooth="yes"/>
      <point x="638" y="254"/>
      <point x="604" y="269"/>
      <point x="577" y="299" type="curve"/>
      <point x="543" y="259" type="line"/>
      <point x="573" y="214"/>
      <point x="625" y="188"/>
      <point x="675" y="188" type="curve" smooth="yes"/>
      <point x="796" y="188"/>
      <point x="857" y="262"/>
      <point x="857" y="381" type="curve" smooth="yes"/>
      <point x="857" y="505"/>
      <point x="790" y="574"/>
      <point x="675" y="574" type="curve" smooth="yes"/>
      <point x="587" y="574"/>
      <point x="529" y="520"/>
    </contour>
  </outline>
</glyph>
<glyph name="uni2248" format="2">
  <advance width="1000"/>
  <unicode hex="2248"/>
  <outline>
    <contour>
      <point x="193" y="444" type="line"/>
      <point x="230" y="509"/>
      <point x="283" y="552"/>
      <point x="347" y="552" type="curve" smooth="yes"/>
      <point x="392" y="552"/>
      <point x="433" y="532"/>
      <point x="486" y="497" type="curve" smooth="yes"/>
      <point x="547" y="456"/>
      <point x="604" y="435"/>
      <point x="659" y="435" type="curve" smooth="yes"/>
      <point x="740" y="435"/>
      <point x="814" y="475"/>
      <point x="858" y="566" type="curve"/>
      <point x="806" y="608" type="line"/>
      <point x="767" y="532"/>
      <point x="717" y="503"/>
      <point x="659" y="503" type="curve" smooth="yes"/>
      <point x="612" y="503"/>
      <point x="566" y="522"/>
      <point x="513" y="557" type="curve" smooth="yes"/>
      <point x="452" y="597"/>
      <point x="400" y="619"/>
      <point x="346" y="619" type="curve" smooth="yes"/>
      <point x="263" y="619"/>
      <point x="188" y="568"/>
      <point x="142" y="488" type="curve"/>
    </contour>
    <contour>
      <point x="193" y="154" type="line"/>
      <point x="230" y="219"/>
      <point x="283" y="262"/>
      <point x="347" y="262" type="curve" smooth="yes"/>
      <point x="392" y="262"/>
      <point x="434" y="242"/>
      <point x="486" y="207" type="curve" smooth="yes"/>
      <point x="547" y="166"/>
      <point x="604" y="145"/>
      <point x="659" y="145" type="curve" smooth="yes"/>
      <point x="740" y="145"/>
      <point x="814" y="185"/>
      <point x="858" y="276" type="curve"/>
      <point x="806" y="318" type="line"/>
      <point x="767" y="242"/>
      <point x="717" y="213"/>
      <point x="659" y="213" type="curve" smooth="yes"/>
      <point x="612" y="213"/>
      <point x="566" y="232"/>
      <point x="513" y="267" type="curve" smooth="yes"/>
      <point x="452" y="307"/>
      <point x="400" y="329"/>
      <point x="346" y="329" type="curve" smooth="yes"/>
      <point x="263" y="329"/>
      <point x="190" y="279"/>
      <point x="142" y="198" type="curve"/>
    </contour>
  </outline>
</glyph>
<glyph name="uni2260" format="2">
  <advance width="601"/>
  <unicode hex="2260"/>
  <outline>
    <contour>
      <point x="197" y="81" type="line"/>
      <point x="258" y="187" type="line"/>
      <point x="536" y="187" type="line"/>
      <point x="536" y="248" type="line"/>
      <point x="291" y="248" type="line"/>
      <point x="373" y="389" type="line"/>
      <point x="536" y="389" type="line"/>
      <point x="536" y="450" type="line"/>
      <point x="406" y="450" type="line"/>
      <point x="468" y="556" type="line"/>
      <point x="401" y="556" type="line"/>
      <point x="339" y="450" type="line"/>
      <point x="64" y="450" type="line"/>
      <point x="64" y="389" type="line"/>
      <point x="307" y="389" type="line"/>
      <point x="225" y="248" type="line"/>
      <point x="64" y="248" type="line"/>
      <point x="64" y="187" type="line"/>
      <point x="192" y="187" type="line"/>
      <point x="131" y="81" type="line"/>
    </contour>
  </outline>
</glyph>
<glyph name="uni2264" format="2">
  <advance width="600"/>
  <unicode hex="2264"/>
  <outline>
    <contour>
      <point x="507" y="0" type="line"/>
      <point x="507" y="61" type="line"/>
      <point x="93" y="61" type="line"/>
      <point x="93" y="0" type="line"/>
    </contour>
    <contour>
      <point x="507" y="599" type="line"/>
      <point x="93" y="382" type="line"/>
      <point x="93" y="333" type="line"/>
      <point x="507" y="116" type="line"/>
      <point x="507" y="188" type="line"/>
      <point x="182" y="355" type="line"/>
      <point x="182" y="359" type="line"/>
      <point x="507" y="528" type="line"/>
    </contour>
  </outline>
</glyph>
<glyph name="uni2266" format="2">
  <advance width="1000"/>
  <unicode hex="2266"/>
  <outline>
    <contour>
      <point x="141" y="536" type="line"/>
      <point x="859" y="377" type="line"/>
      <point x="859" y="437" type="line"/>
      <point x="249" y="567" type="line"/>
      <point x="249" y="571" type="line"/>
      <point x="859" y="716" type="line"/>
      <point x="859" y="776" type="line"/>
      <point x="141" y="602" type="line"/>
    </contour>
    <contour>
      <point x="859" y="233" type="line"/>
      <point x="859" y="293" type="line"/>
      <point x="141" y="293" type="line"/>
      <point x="141" y="233" type="line"/>
    </contour>
    <contour>
      <point x="859" y="44" type="line"/>
      <point x="859" y="103" type="line"/>
      <point x="141" y="103" type="line"/>
      <point x="141" y="44" type="line"/>
    </contour>
  </outline>
</glyph>
<glyph name="uni226F" format="2">
  <advance width="1000"/>
  <unicode hex="226F"/>
  <outline>
    <contour>
      <point x="857" y="319" type="line"/>
      <point x="857" y="403" type="line"/>
      <point x="133" y="693" type="line"/>
      <point x="133" y="620" type="line"/>
      <point x="776" y="363" type="line"/>
      <point x="776" y="359" type="line"/>
      <point x="133" y="102" type="line"/>
      <point x="133" y="28" type="line"/>
    </contour>
    <contour>
      <point x="377" y="-17" type="line"/>
      <point x="618" y="747" type="line"/>
      <point x="545" y="747" type="line"/>
      <point x="303" y="-17" type="line"/>
    </contour>
  </outline>
</glyph>
<glyph name="uni2295" format="2">
  <advance width="1000"/>
  <unicode hex="2295"/>
  <outline>
    <contour>
      <point x="528" y="85" type="line"/>
      <point x="528" y="353" type="line"/>
      <point x="785" y="353" type="line"/>
      <point x="785" y="407" type="line"/>
      <point x="528" y="407" type="line"/>
      <point x="528" y="675" type="line"/>
      <point x="472" y="675" type="line"/>
      <point x="472" y="407" type="line"/>
      <point x="215" y="407" type="line"/>
      <point x="215" y="353" type="line"/>
      <point x="472" y="353" type="line"/>
      <point x="472" y="85" type="line"/>
    </contour>
    <contour>
      <point x="500" y="-78" type="curve" smooth="yes"/>
      <point x="753" y="-78"/>
      <point x="958" y="127"/>
      <point x="958" y="380" type="curve" smooth="yes"/>
      <point x="958" y="633"/>
      <point x="753" y="838"/>
      <point x="500" y="838" type="curve" smooth="yes"/>
      <point x="247" y="838"/>
      <point x="42" y="633"/>
      <point x="42" y="380" type="curve" smooth="yes"/>
      <point x="42" y="127"/>
      <point x="247" y="-78"/>
    </contour>
    <contour>
      <point x="500" y="-48" type="curve" smooth="yes"/>
      <point x="265" y="-48"/>
      <point x="73" y="143"/>
      <point x="73" y="380" type="curve" smooth="yes"/>
      <point x="73" y="617"/>
      <point x="265" y="808"/>
      <point x="500" y="808" type="curve" smooth="yes"/>
      <point x="735" y="808"/>
      <point x="927" y="617"/>
      <point x="927" y="380" type="curve" smooth="yes"/>
      <point x="927" y="143"/>
      <point x="735" y="-48"/>
    </contour>
  </outline>
</glyph>
<glyph name="uni22A5" format="2">
  <advance width="1000"/>
  <unicode hex="22A5"/>
  <outline>
    <contour>
      <point x="537" y="113" type="line"/>
      <point x="537" y="687" type="line"/>
      <point x="463" y="687" type="line"/>
      <point x="463" y="113" type="line"/>
      <point x="180" y="113" type="line"/>
      <point x="180" y="45" type="line"/>
      <point x="820" y="45" type="line"/>
      <point x="820" y="113" type="line"/>
    </contour>
  </outline>
</glyph>
<glyph name="uni2312" format="2">
  <advance width="1000"/>
  <unicode hex="2312"/>
  <outline>
    <contour>
      <point x="878" y="190" type="line"/>
      <point x="878" y="428"/>
      <point x="717" y="599"/>
      <point x="500" y="599" type="curve" smooth="yes"/>
      <point x="285" y="599"/>
      <point x="122" y="428"/>
      <point x="122" y="190" type="curve"/>
      <point x="194" y="190" type="line"/>
      <point x="194" y="390"/>
      <point x="329" y="533"/>
      <point x="500" y="533" type="curve" smooth="yes"/>
      <point x="669" y="533"/>
      <point x="806" y="390"/>
      <point x="806" y="190" type="curve"/>
    </contour>
  </outline>
</glyph>
<glyph name="uni2460" format="2">
  <advance width="1000"/>
  <unicode hex="2460"/>
  <outline>
    <contour>
      <point x="500" y="-79" type="curve" smooth="yes"/>
      <point x="753" y="-79"/>
      <point x="959" y="127"/>
      <point x="959" y="380" type="curve" smooth="yes"/>
      <point x="959" y="633"/>
      <point x="753" y="839"/>
      <point x="500" y="839" type="curve" smooth="yes"/>
      <point x="247" y="839"/>
      <point x="41" y="633"/>
      <point x="41" y="380" type="curve" smooth="yes"/>
      <point x="41" y="127"/>
      <point x="247" y="-79"/>
    </contour>
    <contour>
      <point x="500" y="-48" type="curve" smooth="yes"/>
      <point x="265" y="-48"/>
      <point x="73" y="143"/>
      <point x="73" y="380" type="curve" smooth="yes"/>
      <point x="73" y="617"/>
      <point x="265" y="808"/>
      <point x="500" y="808" type="curve" smooth="yes"/>
      <point x="735" y="808"/>
      <point x="927" y="617"/>
      <point x="927" y="380" type="curve" smooth="yes"/>
      <point x="927" y="143"/>
      <point x="735" y="-48"/>
    </contour>
    <contour>
      <point x="658" y="174" type="line"/>
      <point x="658" y="216" type="line"/>
      <point x="551" y="216" type="line"/>
      <point x="551" y="593" type="line"/>
      <point x="470" y="593" type="line"/>
      <point x="355" y="472" type="line"/>
      <point x="388" y="445" type="line"/>
      <point x="495" y="555" type="line"/>
      <point x="499" y="555" type="line"/>
      <point x="499" y="216" type="line"/>
      <point x="376" y="216" type="line"/>
      <point x="376" y="174" type="line"/>
    </contour>
  </outline>
</glyph>
<glyph name="uni2466" format="2">
  <advance width="1000"/>
  <unicode hex="2466"/>
  <outline>
    <contour>
      <point x="500" y="-79" type="curve" smooth="yes"/>
      <point x="753" y="-79"/>
      <point x="959" y="127"/>
      <point x="959" y="380" type="curve" smooth="yes"/>
      <point x="959" y="633"/>
      <point x="753" y="839"/>
      <point x="500" y="839" type="curve" smooth="yes"/>
      <point x="247" y="839"/>
      <point x="41" y="633"/>
      <point x="41" y="380" type="curve" smooth="yes"/>
      <point x="41" y="127"/>
      <point x="247" y="-79"/>
    </contour>
    <contour>
      <point x="500" y="-48" type="curve" smooth="yes"/>
      <point x="265" y="-48"/>
      <point x="73" y="143"/>
      <point x="73" y="380" type="curve" smooth="yes"/>
      <point x="73" y="617"/>
      <point x="265" y="808"/>
      <point x="500" y="808" type="curve" smooth="yes"/>
      <point x="735" y="808"/>
      <point x="927" y="617"/>
      <point x="927" y="380" type="curve" smooth="yes"/>
      <point x="927" y="143"/>
      <point x="735" y="-48"/>
    </contour>
    <contour>
      <point x="481" y="168" type="line"/>
      <point x="638" y="541" type="line"/>
      <point x="638" y="587" type="line"/>
      <point x="359" y="587" type="line"/>
      <point x="359" y="456" type="line"/>
      <point x="404" y="456" type="line"/>
      <point x="404" y="544" type="line"/>
      <point x="586" y="544" type="line"/>
      <point x="426" y="168" type="line"/>
    </contour>
  </outline>
</glyph>
<glyph name="uni2467" format="2">
  <advance width="1000"/>
  <unicode hex="2467"/>
  <outline>
    <contour>
      <point x="500" y="-79" type="curve" smooth="yes"/>
      <point x="753" y="-79"/>
      <point x="959" y="127"/>
      <point x="959" y="380" type="curve" smooth="yes"/>
      <point x="959" y="633"/>
      <point x="753" y="839"/>
      <point x="500" y="839" type="curve" smooth="yes"/>
      <point x="247" y="839"/>
      <point x="41" y="633"/>
      <point x="41" y="380" type="curve" smooth="yes"/>
      <point x="41" y="127"/>
      <point x="247" y="-79"/>
    </contour>
    <contour>
      <point x="500" y="202" type="curve" smooth="yes"/>
      <point x="443" y="202"/>
      <point x="409" y="231"/>
      <point x="409" y="276" type="curve" smooth="yes"/>
      <point x="409" y="290" type="line" smooth="yes"/>
      <point x="409" y="335"/>
      <point x="443" y="365"/>
      <point x="500" y="365" type="curve" smooth="yes"/>
      <point x="557" y="365"/>
      <point x="591" y="335"/>
      <point x="591" y="290" type="curve" smooth="yes"/>
      <point x="591" y="276" type="line" smooth="yes"/>
      <point x="591" y="231"/>
      <point x="557" y="202"/>
    </contour>
    <contour>
      <point x="500" y="-48" type="curve" smooth="yes"/>
      <point x="265" y="-48"/>
      <point x="73" y="143"/>
      <point x="73" y="380" type="curve" smooth="yes"/>
      <point x="73" y="617"/>
      <point x="265" y="808"/>
      <point x="500" y="808" type="curve" smooth="yes"/>
      <point x="735" y="808"/>
      <point x="927" y="617"/>
      <point x="927" y="380" type="curve" smooth="yes"/>
      <point x="927" y="143"/>
      <point x="735" y="-48"/>
    </contour>
    <contour>
      <point x="500" y="161" type="curve" smooth="yes"/>
      <point x="591" y="161"/>
      <point x="646" y="209"/>
      <point x="646" y="279" type="curve" smooth="yes"/>
      <point x="646" y="347"/>
      <point x="597" y="388"/>
      <point x="525" y="389" type="curve"/>
      <point x="559" y="361" type="line"/>
      <point x="559" y="413" type="line"/>
      <point x="528" y="385" type="line"/>
      <point x="586" y="387"/>
      <point x="633" y="422"/>
      <point x="633" y="486" type="curve" smooth="yes"/>
      <point x="633" y="551"/>
      <point x="583" y="594"/>
      <point x="500" y="594" type="curve" smooth="yes"/>
      <point x="417" y="594"/>
      <point x="367" y="550"/>
      <point x="367" y="486" type="curve" smooth="yes"/>
      <point x="367" y="422"/>
      <point x="414" y="387"/>
      <point x="472" y="385" type="curve"/>
      <point x="441" y="413" type="line"/>
      <point x="441" y="362" type="line"/>
      <point x="475" y="389" type="line"/>
      <point x="403" y="388"/>
      <point x="354" y="347"/>
      <point x="354" y="279" type="curve" smooth="yes"/>
      <point x="354" y="209"/>
      <point x="409" y="161"/>
    </contour>
    <contour>
      <point x="500" y="404" type="curve" smooth="yes"/>
      <point x="449" y="404"/>
      <point x="417" y="430"/>
      <point x="417" y="472" type="curve" smooth="yes"/>
      <point x="417" y="484" type="line" smooth="yes"/>
      <point x="417" y="526"/>
      <point x="449" y="553"/>
      <point x="500" y="553" type="curve" smooth="yes"/>
      <point x="551" y="553"/>
      <point x="583" y="526"/>
      <point x="583" y="484" type="curve" smooth="yes"/>
      <point x="583" y="472" type="line" smooth="yes"/>
      <point x="583" y="430"/>
      <point x="551" y="404"/>
    </contour>
  </outline>
</glyph>
<glyph name="uni2478" format="2">
  <advance width="1000"/>
  <unicode hex="2478"/>
  <outline>
    <contour>
      <point x="198" y="831" type="line"/>
      <point x="105" y="745"/>
      <point x="21" y="582"/>
      <point x="21" y="382" type="curve" smooth="yes"/>
      <point x="21" y="182"/>
      <point x="105" y="18"/>
      <point x="198" y="-67" type="curve"/>
      <point x="253" y="-67" type="line"/>
      <point x="155" y="24"/>
      <point x="74" y="177"/>
      <point x="74" y="359" type="curve" smooth="yes"/>
      <point x="74" y="406" type="line" smooth="yes"/>
      <point x="74" y="585"/>
      <point x="154" y="739"/>
      <point x="253" y="831" type="curve"/>
    </contour>
    <contour>
      <point x="747" y="831" type="line"/>
      <point x="846" y="738"/>
      <point x="925" y="584"/>
      <point x="925" y="406" type="curve" smooth="yes"/>
      <point x="925" y="359" type="line" smooth="yes"/>
      <point x="925" y="176"/>
      <point x="844" y="24"/>
      <point x="747" y="-67" type="curve"/>
      <point x="802" y="-67" type="line"/>
      <point x="894" y="18"/>
      <point x="979" y="181"/>
      <point x="979" y="382" type="curve" smooth="yes"/>
      <point x="979" y="582"/>
      <point x="894" y="745"/>
      <point x="802" y="831" type="curve"/>
    </contour>
    <contour>
      <point x="516" y="455" type="curve" smooth="yes"/>
      <point x="468" y="455"/>
      <point x="442" y="437"/>
      <point x="422" y="402" type="curve"/>
      <point x="418" y="402" type="line"/>
      <point x="429" y="567" type="line"/>
      <point x="621" y="567" type="line"/>
      <point x="621" y="613" type="line"/>
      <point x="390" y="613" type="line"/>
      <point x="375" y="382" type="line"/>
      <point x="419" y="376" type="line"/>
      <point x="437" y="397"/>
      <point x="459" y="412"/>
      <point x="502" y="412" type="curve" smooth="yes"/>
      <point x="556" y="412"/>
      <point x="586" y="378"/>
      <point x="586" y="328" type="curve" smooth="yes"/>
      <point x="586" y="318" type="line" smooth="yes"/>
      <point x="586" y="266"/>
      <point x="555" y="229"/>
      <point x="498" y="229" type="curve" smooth="yes"/>
      <point x="451" y="229"/>
      <point x="420" y="250"/>
      <point x="397" y="288" type="curve"/>
      <point x="359" y="259" type="line"/>
      <point x="386" y="215"/>
      <point x="428" y="187"/>
      <point x="498" y="187" type="curve" smooth="yes"/>
      <point x="588" y="187"/>
      <point x="640" y="243"/>
      <point x="640" y="325" type="curve" smooth="yes"/>
      <point x="640" y="407"/>
      <point x="590" y="455"/>
    </contour>
  </outline>
</glyph>
<glyph name="uni247A" format="2">
  <advance width="1000"/>
  <unicode hex="247A"/>
  <outline>
    <contour>
      <point x="253" y="-67" type="line"/>
      <point x="155" y="24"/>
      <point x="74" y="177"/>
      <point x="74" y="359" type="curve" smooth="yes"/>
      <point x="74" y="406" type="line" smooth="yes"/>
      <point x="74" y="585"/>
      <point x="154" y="739"/>
      <point x="253" y="831" type="curve"/>
      <point x="198" y="831" type="line"/>
      <point x="105" y="745"/>
      <point x="21" y="582"/>
      <point x="21" y="382" type="curve" smooth="yes"/>
      <point x="21" y="182"/>
      <point x="105" y="18"/>
      <point x="198" y="-67" type="curve"/>
    </contour>
    <contour>
      <point x="802" y="-67" type="line"/>
      <point x="894" y="18"/>
      <point x="979" y="181"/>
      <point x="979" y="382" type="curve" smooth="yes"/>
      <point x="979" y="582"/>
      <point x="894" y="745"/>
      <point x="802" y="831" type="curve"/>
      <point x="747" y="831" type="line"/>
      <point x="846" y="738"/>
      <point x="925" y="584"/>
      <point x="925" y="406" type="curve" smooth="yes"/>
      <point x="925" y="359" type="line" smooth="yes"/>
      <point x="925" y="176"/>
      <point x="844" y="24"/>
      <point x="747" y="-67" type="curve"/>
    </contour>
    <contour>
      <point x="638" y="613" type="line"/>
      <point x="359" y="613" type="line"/>
      <point x="359" y="482" type="line"/>
      <point x="404" y="482" type="line"/>
      <point x="404" y="570" type="line"/>
      <point x="586" y="570" type="line"/>
      <point x="426" y="194" type="line"/>
      <point x="481" y="194" type="line"/>
      <point x="638" y="567" type="line"/>
    </contour>
  </outline>
</glyph>
<glyph name="uni247C" format="2">
  <advance width="1000"/>
  <unicode hex="247C"/>
  <outline>
    <contour>
      <point x="198" y="831" type="line"/>
      <point x="105" y="745"/>
      <point x="21" y="582"/>
      <point x="21" y="382" type="curve" smooth="yes"/>
      <point x="21" y="182"/>
      <point x="105" y="18"/>
      <point x="198" y="-67" type="curve"/>
      <point x="253" y="-67" type="line"/>
      <point x="155" y="24"/>
      <point x="74" y="177"/>
      <point x="74" y="359" type="curve" smooth="yes"/>
      <point x="74" y="406" type="line" smooth="yes"/>
      <point x="74" y="585"/>
      <point x="154" y="739"/>
      <point x="253" y="831" type="curve"/>
    </contour>
    <contour>
      <point x="747" y="831" type="line"/>
      <point x="846" y="738"/>
      <point x="925" y="584"/>
      <point x="925" y="406" type="curve" smooth="yes"/>
      <point x="925" y="359" type="line" smooth="yes"/>
      <point x="925" y="176"/>
      <point x="844" y="24"/>
      <point x="747" y="-67" type="curve"/>
      <point x="802" y="-67" type="line"/>
      <point x="894" y="18"/>
      <point x="979" y="181"/>
      <point x="979" y="382" type="curve" smooth="yes"/>
      <point x="979" y="582"/>
      <point x="894" y="745"/>
      <point x="802" y="831" type="curve"/>
    </contour>
    <contour>
      <point x="499" y="620" type="curve" smooth="yes"/>
      <point x="412" y="620"/>
      <point x="357" y="564"/>
      <point x="357" y="481" type="curve" smooth="yes"/>
      <point x="357" y="402"/>
      <point x="409" y="353"/>
      <point x="482" y="353" type="curve" smooth="yes"/>
      <point x="532" y="353"/>
      <point x="564" y="377"/>
      <point x="583" y="416" type="curve"/>
      <point x="586" y="414" type="line"/>
      <point x="569" y="324"/>
      <point x="512" y="260"/>
      <point x="413" y="194" type="curve"/>
      <point x="485" y="194" type="line"/>
      <point x="567" y="246"/>
      <point x="642" y="339"/>
      <point x="642" y="465" type="curve" smooth="yes"/>
      <point x="642" y="554"/>
      <point x="595" y="620"/>
    </contour>
    <contour>
      <point x="412" y="493" type="line" smooth="yes"/>
      <point x="412" y="544"/>
      <point x="445" y="579"/>
      <point x="500" y="579" type="curve" smooth="yes"/>
      <point x="554" y="579"/>
      <point x="587" y="544"/>
      <point x="587" y="493" type="curve" smooth="yes"/>
      <point x="587" y="478" type="line" smooth="yes"/>
      <point x="587" y="428"/>
      <point x="555" y="393"/>
      <point x="500" y="393" type="curve" smooth="yes"/>
      <point x="445" y="393"/>
      <point x="412" y="427"/>
      <point x="412" y="478" type="curve" smooth="yes"/>
    </contour>
  </outline>
</glyph>
<glyph name="uni247F" format="2">
  <advance width="1000"/>
  <unicode hex="247F"/>
  <outline>
    <contour>
      <point x="74" y="406" type="line" smooth="yes"/>
      <point x="74" y="585"/>
      <point x="154" y="739"/>
      <point x="253" y="831" type="curve"/>
      <point x="198" y="831" type="line"/>
      <point x="105" y="745"/>
      <point x="21" y="582"/>
      <point x="21" y="382" type="curve" smooth="yes"/>
      <point x="21" y="182"/>
      <point x="105" y="18"/>
      <point x="198" y="-67" type="curve"/>
      <point x="253" y="-67" type="line"/>
      <point x="155" y="24"/>
      <point x="74" y="177"/>
      <point x="74" y="359" type="curve" smooth="yes"/>
    </contour>
    <contour>
      <point x="747" y="831" type="line"/>
      <point x="846" y="738"/>
      <point x="925" y="584"/>
      <point x="925" y="406" type="curve" smooth="yes"/>
      <point x="925" y="359" type="line" smooth="yes"/>
      <point x="925" y="176"/>
      <point x="844" y="24"/>
      <point x="747" y="-67" type="curve"/>
      <point x="802" y="-67" type="line"/>
      <point x="894" y="18"/>
      <point x="979" y="181"/>
      <point x="979" y="382" type="curve" smooth="yes"/>
      <point x="979" y="582"/>
      <point x="894" y="745"/>
      <point x="802" y="831" type="curve"/>
    </contour>
    <contour>
      <point x="544" y="195" type="line"/>
      <point x="822" y="195" type="line"/>
      <point x="822" y="239" type="line"/>
      <point x="600" y="239" type="line"/>
      <point x="716" y="347" type="line"/>
      <point x="763" y="387"/>
      <point x="807" y="432"/>
      <point x="807" y="499" type="curve" smooth="yes"/>
      <point x="807" y="572"/>
      <point x="761" y="621"/>
      <point x="678" y="621" type="curve" smooth="yes"/>
      <point x="600" y="621"/>
      <point x="555" y="578"/>
      <point x="539" y="521" type="curve"/>
      <point x="584" y="504" type="line"/>
      <point x="597" y="546"/>
      <point x="624" y="576"/>
      <point x="674" y="576" type="curve" smooth="yes"/>
      <point x="721" y="576"/>
      <point x="752" y="547"/>
      <point x="752" y="504" type="curve" smooth="yes"/>
      <point x="752" y="491" type="line" smooth="yes"/>
      <point x="752" y="451"/>
      <point x="731" y="419"/>
      <point x="689" y="380" type="curve" smooth="yes"/>
      <point x="544" y="243" type="line"/>
    </contour>
    <contour>
      <point x="175" y="492" type="line"/>
      <point x="208" y="465" type="line"/>
      <point x="315" y="575" type="line"/>
      <point x="319" y="575" type="line"/>
      <point x="319" y="236" type="line"/>
      <point x="196" y="236" type="line"/>
      <point x="196" y="194" type="line"/>
      <point x="478" y="194" type="line"/>
      <point x="478" y="236" type="line"/>
      <point x="371" y="236" type="line"/>
      <point x="371" y="613" type="line"/>
      <point x="290" y="613" type="line"/>
    </contour>
  </outline>
</glyph>
